<?xml version="1.0" encoding="UTF-8"?>
<!DOCTYPE svg PUBLIC "-//W3C//DTD SVG 1.1//EN" "http://www.w3.org/Graphics/SVG/1.1/DTD/svg11.dtd">
<!-- Creator: CorelDRAW 2017 -->
<svg xmlns="http://www.w3.org/2000/svg" xml:space="preserve" width="210mm" height="188.502mm" version="1.1" style="shape-rendering:geometricPrecision; text-rendering:geometricPrecision; image-rendering:optimizeQuality; fill-rule:evenodd; clip-rule:evenodd"
viewBox="0 0 210 188.5024"
 xmlns:xlink="http://www.w3.org/1999/xlink">
 <defs>
  <style type="text/css">
   <![CDATA[
    .fil0 {fill:black}
   ]]>
  </style>
 </defs>
 <g id="Слой_x0020_1">
  <metadata id="CorelCorpID_0Corel-Layer"/>
  <g id="_2360494386576">
   <path class="fil0" d="M174.3421 188.5024l-143.1897 0 -15.2329 0c-8.7965,0 -15.9195,-7.123 -15.9195,-15.9195l0 -9.7834 12.83 0 0.6866 0 0 -101.0523c0,-7.9383 6.4365,-14.4177 14.4177,-14.4177l43.7249 0.0001c-0.1716,1.9738 -0.3004,3.9477 -0.3004,5.9644 0,4.6342 0.5149,9.1827 1.5018,13.6882l-39.6914 0 0 95.8173 50.2901 0 0 0.9869c0,3.0037 2.4459,5.4495 5.4495,5.4495l27.591 0.0001c3.0037,0 5.4495,-2.4459 5.4495,-5.4495l0 -0.9869 50.3331 -0.0001 0 -42.3948c7.0372,-1.9738 13.6453,-4.8488 19.6526,-8.4532l0 50.848 0.6866 0 12.83 0 0 9.7834c0,8.7965 -7.123,15.9195 -15.9195,15.9195l-15.19 0 0 0z"/>
   <path class="fil0" d="M210 53.4656c0,29.5648 -27.3335,53.5084 -61.0176,53.5084 -12.2293,0 -23.6003,-3.1753 -33.1692,-8.5819 -8.5819,5.1492 -17.8933,4.9775 -23.3,4.2051 -1.5447,-0.2145 -1.9309,-2.1884 -0.6436,-3.0466 5.235,-3.4328 8.067,-8.2387 9.6547,-12.4438 -8.4961,-9.1827 -13.5595,-20.897 -13.5595,-33.5983 0,-29.5648 27.3335,-53.5084 61.0176,-53.5084 33.6841,-0.0428 61.0176,23.9437 61.0176,53.4655zm-68.6984 -22.313c0,3.7331 3.0466,6.7797 6.7797,6.7797 3.7331,0 6.7797,-3.0466 6.7797,-6.7797 0,-3.7331 -3.0466,-6.7797 -6.7797,-6.7797 -3.7331,-0.0429 -6.7797,3.0037 -6.7797,6.7797zm17.0351 39.3482l-3.4327 0 0 -27.4622 -1.6735 0 -10.1267 0 -3.3899 0 0 9.0539 3.3899 0 0 18.4083 -3.4328 0 0 9.0539 3.4328 0 11.8431 0 3.4328 0 0 -9.0539 -0.043 0z"/>
  </g>
  <g id="_2360494389168">
  </g>
  <g id="_2360494389808">
  </g>
  <g id="_2360494389424">
  </g>
  <g id="_2360494390352">
  </g>
  <g id="_2360494382416">
  </g>
  <g id="_2360494383056">
  </g>
  <g id="_2360494382768">
  </g>
  <g id="_2360494382384">
  </g>
  <g id="_2360494382608">
  </g>
  <g id="_2360494384304">
  </g>
  <g id="_2360494385776">
  </g>
  <g id="_2360494385456">
  </g>
  <g id="_2360494384816">
  </g>
  <g id="_2360494385072">
  </g>
  <g id="_2360494384752">
  </g>
 </g>
</svg>
