<?xml version="1.0" encoding="iso-8859-1"?>
<!-- Generator: Adobe Illustrator 19.0.0, SVG Export Plug-In . SVG Version: 6.00 Build 0)  -->
<svg version="1.1" id="Capa_1" xmlns="http://www.w3.org/2000/svg" xmlns:xlink="http://www.w3.org/1999/xlink" x="0px" y="0px"
	 viewBox="0 0 489.4 489.4" style="enable-background:new 0 0 489.4 489.4;" xml:space="preserve">
<g>
	<g>
		<g>
			<path d="M406.3,464.35H72.6H37.1c-20.5,0-37.1-16.6-37.1-37.1v-22.8h29.9h1.6v-235.5c0-18.5,15-33.6,33.6-33.6H167
				c-0.4,4.6-0.7,9.2-0.7,13.9c0,10.8,1.2,21.4,3.5,31.9H77.3v223.3h117.2v2.3c0,7,5.7,12.7,12.7,12.7h64.3c7,0,12.7-5.7,12.7-12.7
				v-2.3h117.3v-98.8c16.4-4.6,31.8-11.3,45.8-19.7v118.5h1.6h29.9v22.8c0,20.5-16.6,37.1-37.1,37.1L406.3,464.35L406.3,464.35z
				 M489.4,149.65c0,68.9-63.7,124.7-142.2,124.7c-28.5,0-55-7.4-77.3-20c-20,12-41.7,11.6-54.3,9.8c-3.6-0.5-4.5-5.1-1.5-7.1
				c12.2-8,18.8-19.2,22.5-29c-19.8-21.4-31.6-48.7-31.6-78.3c0-68.9,63.7-124.7,142.2-124.7C425.7,24.95,489.4,80.85,489.4,149.65z
				 M329.3,97.65c0,8.7,7.1,15.8,15.8,15.8c8.7,0,15.8-7.1,15.8-15.8s-7.1-15.8-15.8-15.8C336.4,81.75,329.3,88.85,329.3,97.65z
				 M369,189.35h-8v-64h-3.9h-23.6h-7.9v21.1h7.9v42.9h-8v21.1h8h27.6h8v-21.1H369z"/>
		</g>
	</g>
</g>
<g>
</g>
<g>
</g>
<g>
</g>
<g>
</g>
<g>
</g>
<g>
</g>
<g>
</g>
<g>
</g>
<g>
</g>
<g>
</g>
<g>
</g>
<g>
</g>
<g>
</g>
<g>
</g>
<g>
</g>
</svg>
