<?xml version="1.0" encoding="iso-8859-1"?>
<!-- Generator: Adobe Illustrator 19.1.0, SVG Export Plug-In . SVG Version: 6.00 Build 0)  -->
<svg version="1.1" id="Capa_1" xmlns="http://www.w3.org/2000/svg" xmlns:xlink="http://www.w3.org/1999/xlink" x="0px" y="0px"
	 viewBox="0 0 488.7 488.7" style="enable-background:new 0 0 488.7 488.7;" xml:space="preserve">
<g>
	<g>
		<path style="fill: #000; opacity: 0.25;" d="M362.6,236.3c5.4,4.7,13.6,4.4,18.8-0.7c4.9-4.9,5.4-12.7,1.3-18.1l0,0l-0.2-0.2c-0.1-0.2-0.3-0.4-0.5-0.5l-34.1-40.7
			c-1.5-1.7-2.3-3.9-2.5-6.2l-5-76.5l0,0c-0.6-7.1-6.5-12.6-13.8-12.6c-7.1,0-12.9,5.3-13.7,12.2l0,0v0.1c0,0.3,0,0.6-0.1,0.9
			l-5.5,84.1c-0.1,0.5-0.1,1.1-0.1,1.7v0.2l0,0c0,0.1,0,0.2,0,0.3c0,0.2,0,0.3,0,0.5c-0.1,5.1,1.8,10.1,5.7,14
			c0.8,0.8,1.7,1.5,2.6,2.2L362.6,236.3L362.6,236.3z"/>
		<path style="fill: #000; opacity: 0.5;" d="M327.8,16.7c-70.5,0-130.5,45.6-152.1,108.9c14,1.6,27.6,4.7,40.8,9.2c17.2-44.8,60.6-76.7,111.4-76.7
			c65.8,0,119.3,53.5,119.3,119.3c0,59.5-43.8,109-100.9,117.9c0.9,7.8,1.4,15.7,1.4,23.6c0,6.1-0.3,12.1-0.8,18.1
			c79.7-9.4,141.8-77.4,141.8-159.6C488.6,88.8,416.5,16.7,327.8,16.7z"/>
		<path style="fill: #000; opacity: 0.75;" d="M153,166C68.5,166,0,234.5,0,319s68.5,153,153,153s153-68.5,153-153S237.5,166,153,166z M196.9,379.3
			c-6.7,8.1-15.4,13.6-25.5,16.3c-4.4,1.2-6.4,3.5-6.2,8.1c0.2,4.5,0,9,0,13.5c0,4-2.1,6.2-6,6.3c-2.6,0.1-5.2,0.1-7.8,0.1
			c-2.3,0-4.5,0-6.8-0.1c-4.3-0.1-6.3-2.5-6.3-6.7c0-3.3-0.1-6.6-0.1-9.9c-0.1-7.3-0.3-7.6-7.3-8.7c-9-1.4-17.8-3.5-26-7.4
			c-6.4-3.1-7.1-4.7-5.3-11.5c1.4-5,2.8-10.1,4.3-15c1.1-3.7,2.2-5.3,4.2-5.3c1.1,0,2.6,0.5,4.5,1.6c9.1,4.7,18.7,7.4,28.8,8.6
			c1.7,0.2,3.4,0.3,5.1,0.3c4.7,0,9.3-0.9,13.8-2.8c11.2-4.9,13-18,3.5-25.8c-3.2-2.7-6.9-4.6-10.8-6.3c-9.9-4.3-20.1-7.6-29.5-13.2
			c-15.1-9-24.7-21.5-23.6-39.9c1.3-20.8,13-33.8,32.1-40.7c7.9-2.9,7.9-2.7,7.9-11c0-2.8,0-5.6,0-8.3c0.2-6.2,1.2-7.3,7.4-7.4
			c0.7,0,1.4,0,2.1,0c1.2,0,2.4,0,3.6,0c0.5,0,1,0,1.4,0c11.7,0,11.7,0.5,11.8,13.1c0,9.3,0,9.3,9.3,10.8c7.1,1.1,13.9,3.2,20.4,6.1
			c3.6,1.6,5,4.1,3.9,7.9c-1.7,5.7-3.2,11.4-5,17c-1.1,3.4-2.2,5-4.2,5c-1.1,0-2.5-0.5-4.3-1.3c-9.1-4.4-18.6-6.5-28.5-6.5
			c-1.3,0-2.6,0-3.9,0.1c-3,0.2-5.9,0.6-8.6,1.8c-9.8,4.3-11.4,15.1-3,21.8c4.2,3.4,9,5.8,14,7.9c8.7,3.6,17.4,7,25.6,11.6
			C208.3,323.9,215.4,356.8,196.9,379.3z"/>
	</g>
</g>
<g>
</g>
<g>
</g>
<g>
</g>
<g>
</g>
<g>
</g>
<g>
</g>
<g>
</g>
<g>
</g>
<g>
</g>
<g>
</g>
<g>
</g>
<g>
</g>
<g>
</g>
<g>
</g>
<g>
</g>
</svg>
