<svg xmlns="http://www.w3.org/2000/svg" data-svg-id="9de2e0a4e5fdaa2e948b4a8636c3eeb6" viewBox="0 0 100 100" class="ui-icon__svg-wrapper" data-qa-file="UIIcon">
	<circle style="fill:#ffdd2d;" cx="50" cy="50" r="48"></circle>
	<g stroke-linecap="round" stroke-linejoin="round">
		<path style="stroke:#3e4757;fill:transparent;stroke-width: 2.27272727px;" d="M65.212 51.894h3.243v-12.88h4.378c1.758 0 3.258.622 4.5 1.88 1.258 1.167 1.88 2.667 1.88 4.5 0 1.833-.622 3.333-1.88 4.5-1.242 1.333-2.742 2-4.5 2h-4.378v4.62h7.878M68.455 61.894v-5.38h-3.243"></path>
		<path style="fill:#3e4757;" d="M56.197 50.106c0 3.273-.394 6.197-1.167 8.818-.788 2.606-1.91 4.85-3.378 6.712-1.47 1.864-3.228 3.288-5.288 4.288-2.06 1-4.38 1.5-6.97 1.5-2.62 0-4.985-.515-7.06-1.53-2.076-1.015-3.82-2.455-5.243-4.318-1.423-1.88-2.5-4.106-3.242-6.712-.757-2.622-1.12-5.53-1.12-8.758 0-3.182.363-6.076 1.12-8.682.743-2.62 1.82-4.848 3.243-6.712 1.425-1.88 3.168-3.318 5.243-4.364 2.076-1.045 4.44-1.56 7.06-1.56 2.546 0 4.865.515 6.94 1.53 2.076 1.015 3.85 2.44 5.32 4.288 1.468 1.85 2.59 4.09 3.377 6.712.773 2.637 1.167 5.56 1.167 8.788zm-3.242 0c0-2.636-.273-5.076-.834-7.318-.544-2.243-1.378-4.182-2.514-5.818-1.12-1.637-2.53-2.925-4.227-3.85-1.698-.938-3.683-1.408-5.986-1.408-2.288 0-4.273.455-5.94 1.38-1.68.908-3.075 2.18-4.166 3.817-1.106 1.62-1.94 3.56-2.485 5.817-.56 2.243-.833 4.712-.833 7.38 0 2.5.272 4.863.803 7.09.53 2.227 1.333 4.197 2.41 5.894 1.09 1.698 2.47 3.046 4.165 4.046 1.697.985 3.713 1.485 6.046 1.485s4.348-.5 6.045-1.484c1.696-1 3.105-2.333 4.242-4.015 1.12-1.68 1.94-3.635 2.485-5.893.53-2.242.788-4.62.788-7.12z"></path>
	</g>
</svg>