<?xml version="1.0" encoding="iso-8859-1"?>
<!-- Generator: Adobe Illustrator 19.0.0, SVG Export Plug-In . SVG Version: 6.00 Build 0)  -->
<svg version="1.1" id="Layer_1" xmlns="http://www.w3.org/2000/svg" xmlns:xlink="http://www.w3.org/1999/xlink" x="0px" y="0px"
	 viewBox="0 0 512.457 512.457" style="enable-background:new 0 0 512.457 512.457; fill: #000;" xml:space="preserve">
<g transform="translate(-1)">
	<g>
		<g>
			<path opacity="0.75" d="M506.847,376.188c-2.506-4.739-5.667-9.463-9.428-14.215c-8.571-10.83-20.227-21.791-34.287-32.906
				c-9.809-7.755-20.237-15.145-30.657-21.961c-6.267-4.1-11.191-7.129-14.123-8.847c-24.749-14.092-53.262-12.224-67.987,11.507
				c-0.684,0.812-1.553,1.841-2.567,3.034c-2.772,3.26-5.585,6.516-8.252,9.535c-0.576,0.651-0.576,0.651-1.151,1.298
				c-4.427,4.973-8.479,9.158-8.33,9.057c-16.299,11.031-26.909,10.163-41.279-4.208L184.976,224.674
				c-14.37-14.37-15.239-24.98-4.201-41.289c-0.107,0.158,4.078-3.894,9.051-8.321c0.647-0.575,0.647-0.575,1.298-1.151
				c3.019-2.667,6.275-5.48,9.535-8.252c1.193-1.014,2.221-1.884,3.034-2.567c23.731-14.725,25.602-43.232,11.64-67.756
				c-1.851-3.163-4.88-8.086-8.98-14.354c-6.816-10.42-14.206-20.848-21.961-30.657c-11.114-14.06-22.076-25.716-32.906-34.287
				c-4.752-3.761-9.477-6.922-14.222-9.432c-22.077-11.67-49.146-7.606-66.816,10.03L47.514,39.593
				c-76.079,76.079-55.111,166.746,35.804,257.661l66.43,66.451l66.458,66.437c90.913,90.913,181.581,111.881,257.666,35.795
				l22.919-22.94C514.45,425.372,518.531,398.258,506.847,376.188z M466.629,412.82l-22.934,22.955
				c-55.66,55.66-120.958,40.559-197.322-35.804l-66.456-66.434l-66.427-66.448c-76.366-76.366-91.467-141.664-35.8-197.331
				l22.919-22.94c4.408-4.4,11.174-5.415,16.709-2.489c2.276,1.204,4.866,2.937,7.688,5.17c7.823,6.191,16.675,15.605,25.913,27.291
				c6.887,8.712,13.561,18.13,19.727,27.554c3.689,5.64,6.357,9.977,7.74,12.337c3.849,6.764,3.612,9.72,2.477,10.358l-3.217,2.217
				c-0.944,0.787-2.561,2.147-4.631,3.907c-3.449,2.934-6.901,5.915-10.144,8.78c-0.708,0.627-0.708,0.627-1.418,1.257
				c-8.44,7.514-13.205,12.127-16.009,16.265c-22.372,33.057-19.645,66.377,9.36,95.382l103.808,103.808
				c29.005,29.005,62.325,31.733,95.373,9.367c4.147-2.81,8.76-7.575,16.274-16.015c0.63-0.709,0.63-0.709,1.257-1.418
				c2.865-3.243,5.847-6.695,8.78-10.144c1.76-2.069,3.12-3.686,3.907-4.631l2.217-3.217c0.637-1.135,3.594-1.371,10.589,2.611
				c2.129,1.25,6.466,3.918,12.106,7.607c9.425,6.165,18.842,12.839,27.555,19.727c11.686,9.238,21.099,18.09,27.29,25.913
				c2.233,2.821,3.966,5.412,5.173,7.693C472.054,401.66,471.037,408.42,466.629,412.82z"/>
			<path opacity="0.25" d="M278.878,193.799c0.029,0.348,0.073,0.69,0.119,1.033c0.045,0.338,0.093,0.675,0.154,1.011
				c0.067,0.365,0.146,0.725,0.231,1.083c0.074,0.313,0.152,0.624,0.24,0.933c0.102,0.357,0.214,0.708,0.334,1.057
				c0.106,0.311,0.218,0.618,0.338,0.925c0.13,0.328,0.268,0.65,0.414,0.97c0.145,0.319,0.296,0.635,0.456,0.947
				c0.151,0.293,0.31,0.581,0.474,0.866c0.184,0.32,0.374,0.635,0.575,0.946c0.175,0.27,0.358,0.533,0.544,0.795
				c0.214,0.3,0.432,0.596,0.663,0.887c0.212,0.267,0.435,0.525,0.659,0.782c0.228,0.26,0.457,0.518,0.699,0.769
				c0.267,0.277,0.547,0.54,0.828,0.802c0.159,0.148,0.301,0.307,0.466,0.451c0.075,0.066,0.156,0.119,0.232,0.183
				c0.306,0.261,0.626,0.505,0.947,0.748c0.245,0.186,0.487,0.377,0.737,0.551c0.312,0.216,0.637,0.412,0.961,0.612
				c0.276,0.17,0.548,0.348,0.83,0.504c0.312,0.173,0.635,0.325,0.956,0.482c0.305,0.15,0.607,0.308,0.917,0.442
				c0.317,0.137,0.644,0.251,0.968,0.373c0.326,0.122,0.65,0.253,0.98,0.359c0.32,0.103,0.649,0.182,0.976,0.27
				c0.347,0.093,0.693,0.193,1.043,0.268c0.313,0.067,0.634,0.113,0.952,0.166c0.377,0.063,0.752,0.13,1.13,0.172
				c0.302,0.034,0.609,0.049,0.914,0.07c0.403,0.028,0.805,0.056,1.208,0.061c0.099,0.001,0.195,0.015,0.295,0.015h85.333
				c11.782,0,21.333-9.551,21.333-21.333s-9.551-21.333-21.333-21.333h-38.32L465.509,35.382c7.759-8.867,6.86-22.344-2.007-30.103
				c-8.867-7.759-22.344-6.86-30.103,2.007L321.454,135.223v-28.556c0-11.782-9.551-21.333-21.333-21.333
				c-11.782,0-21.333,9.551-21.333,21.333V192c0,0.219,0.026,0.431,0.033,0.649C278.832,193.033,278.845,193.416,278.878,193.799z"
				/>
		</g>
	</g>
</g>
<g>
</g>
<g>
</g>
<g>
</g>
<g>
</g>
<g>
</g>
<g>
</g>
<g>
</g>
<g>
</g>
<g>
</g>
<g>
</g>
<g>
</g>
<g>
</g>
<g>
</g>
<g>
</g>
<g>
</g>
</svg>
