<svg xmlns="http://www.w3.org/2000/svg" data-svg-id="9de2e0a4e5fdaa2e948b4a8636c3eeb6" viewBox="0 0 100 100" class="ui-icon__svg-wrapper" data-qa-file="UIIcon">
	<circle style="fill:#ffdd2d;" cx="50" cy="50" r="48"></circle>
	<g style="stroke:#3e4757;fill:transparent;stroke-width: 2.27272727px;" stroke-linecap="round" stroke-linejoin="round">
		<path class="ui-icon__svg" d="M42.6 30.6c1.7 1.7 2.5 3.8 2.5 6.2 0 2.3-.8 4.3-2.5 6-1.7 1.8-3.8 2.7-6.2 2.7-2.4-.1-4.5-1-6.1-2.6-1.7-1.8-2.6-3.8-2.6-6.1 0-2.5.9-4.6 2.6-6.4 1.7-1.7 3.7-2.5 6.1-2.4 2.4 0 4.5.9 6.2 2.6zm26.6 26.7c1.7 1.7 2.5 3.7 2.5 6.1 0 2.4-.8 4.5-2.5 6.1-1.8 1.8-3.8 2.6-6.2 2.6-2.4 0-4.5-.8-6.1-2.5-1.7-1.8-2.6-3.8-2.6-6.2 0-2.4.9-4.5 2.6-6.2 1.7-1.7 3.7-2.5 6.1-2.5 2.4-.1 4.5.8 6.2 2.6zm-38.7 12L69 30.7"></path>
	</g>
</svg>