<?xml version="1.0" ?><svg style="enable-background:new 0 0 48 48;" version="1.1" viewBox="0 0 48 48" xml:space="preserve" xmlns="http://www.w3.org/2000/svg" xmlns:xlink="http://www.w3.org/1999/xlink"><g id="Padding__x26__Artboard"/><g id="Icons"><path d="M23.99976,14.22266c-5.3916,0-9.77783,4.38574-9.77783,9.77734s4.38623,9.77734,9.77783,9.77734   S33.77808,29.3916,33.77808,24S29.39136,14.22266,23.99976,14.22266z M28.09497,25.22461h-2.87012v2.87012   c0,0.67773-0.55176,1.22949-1.22998,1.22949c-0.67285,0-1.22021-0.55176-1.22021-1.22949v-2.87012h-2.86963   c-0.67822,0-1.23047-0.54688-1.23047-1.21973c0-0.67773,0.55225-1.22949,1.23047-1.22949h2.86963v-2.87012   c0-0.67285,0.54736-1.21973,1.22021-1.21973c0.67822,0,1.22998,0.54688,1.22998,1.21973v2.87012h2.87012   c0.67822,0,1.22998,0.55176,1.22998,1.22949C29.32495,24.67773,28.77319,25.22461,28.09497,25.22461z" style="fill:#fff;"/></g></svg>