<?xml version="1.0" encoding="iso-8859-1"?>
<!-- Generator: Adobe Illustrator 19.0.0, SVG Export Plug-In . SVG Version: 6.00 Build 0)  -->
<svg version="1.1" id="Layer_1" xmlns="http://www.w3.org/2000/svg" xmlns:xlink="http://www.w3.org/1999/xlink" x="0px" y="0px"
	 viewBox="0 0 512.457 512.457" style="enable-background:new 0 0 512.457 512.457;" xml:space="preserve">
<g transform="translate(-1)">
	<g>
		<g>
			<path opacity="0.75" d="M506.847,376.188c-2.506-4.739-5.667-9.463-9.428-14.215c-8.571-10.83-20.227-21.791-34.287-32.906
				c-9.809-7.755-20.237-15.145-30.657-21.961c-6.267-4.1-11.191-7.129-14.123-8.847c-24.749-14.092-53.262-12.224-67.987,11.507
				c-0.684,0.812-1.553,1.841-2.567,3.034c-2.772,3.26-5.585,6.516-8.252,9.535c-0.576,0.651-0.576,0.651-1.151,1.298
				c-4.427,4.973-8.479,9.158-8.33,9.057c-16.299,11.031-26.909,10.163-41.279-4.208L184.976,224.674
				c-14.37-14.37-15.239-24.98-4.201-41.289c-0.107,0.158,4.078-3.894,9.051-8.321c0.647-0.575,0.647-0.575,1.298-1.151
				c3.019-2.667,6.275-5.48,9.535-8.252c1.193-1.014,2.221-1.884,3.034-2.567c23.731-14.725,25.602-43.232,11.64-67.756
				c-1.851-3.163-4.88-8.086-8.98-14.354c-6.816-10.42-14.206-20.848-21.961-30.657c-11.114-14.06-22.076-25.716-32.906-34.287
				c-4.752-3.761-9.477-6.922-14.222-9.432c-22.077-11.67-49.146-7.606-66.816,10.03L47.514,39.593
				c-76.079,76.079-55.111,166.746,35.804,257.661l66.43,66.451l66.458,66.437c90.913,90.913,181.581,111.881,257.666,35.795
				l22.919-22.94C514.45,425.372,518.531,398.258,506.847,376.188z M466.629,412.82l-22.934,22.955
				c-55.66,55.66-120.958,40.559-197.322-35.804l-66.456-66.434l-66.427-66.448c-76.366-76.366-91.467-141.664-35.8-197.331
				l22.919-22.94c4.408-4.4,11.174-5.415,16.709-2.489c2.276,1.204,4.866,2.937,7.688,5.17c7.823,6.191,16.675,15.605,25.913,27.291
				c6.887,8.712,13.561,18.13,19.727,27.554c3.689,5.64,6.357,9.977,7.74,12.337c3.849,6.764,3.612,9.72,2.477,10.358l-3.217,2.217
				c-0.944,0.787-2.561,2.147-4.631,3.907c-3.449,2.934-6.901,5.915-10.144,8.78c-0.708,0.627-0.708,0.627-1.418,1.257
				c-8.44,7.514-13.205,12.127-16.009,16.265c-22.372,33.057-19.645,66.377,9.36,95.382l103.808,103.808
				c29.005,29.005,62.325,31.733,95.373,9.367c4.147-2.81,8.76-7.575,16.274-16.015c0.63-0.709,0.63-0.709,1.257-1.418
				c2.865-3.243,5.847-6.695,8.78-10.144c1.76-2.069,3.12-3.686,3.907-4.631l2.217-3.217c0.637-1.135,3.594-1.371,10.589,2.611
				c2.129,1.25,6.466,3.918,12.106,7.607c9.425,6.165,18.842,12.839,27.555,19.727c11.686,9.238,21.099,18.09,27.29,25.913
				c2.233,2.821,3.966,5.412,5.173,7.693C472.054,401.659,471.037,408.42,466.629,412.82z"/>
			<path opacity="0.25" d="M272.539,100.418l27.582-27.582V192c0,11.782,9.551,21.333,21.333,21.333H492.12c11.782,0,21.333-9.551,21.333-21.333
				s-9.551-21.333-21.333-21.333H342.787v-97.83l27.582,27.582c8.331,8.331,21.839,8.331,30.17,0s8.331-21.839,0-30.17l-64-64
				c-0.497-0.497-1.02-0.967-1.564-1.413c-0.246-0.202-0.506-0.378-0.759-0.567c-0.304-0.228-0.601-0.463-0.918-0.675
				c-0.304-0.203-0.619-0.379-0.931-0.565c-0.286-0.171-0.565-0.35-0.859-0.508c-0.318-0.17-0.644-0.314-0.969-0.467
				c-0.307-0.145-0.609-0.298-0.923-0.429c-0.315-0.13-0.637-0.236-0.957-0.35c-0.337-0.121-0.669-0.25-1.014-0.355
				c-0.32-0.097-0.645-0.168-0.968-0.249c-0.351-0.089-0.698-0.187-1.056-0.258c-0.375-0.074-0.753-0.118-1.13-0.172
				c-0.311-0.044-0.618-0.104-0.933-0.135c-1.4-0.138-2.811-0.138-4.211,0c-0.315,0.031-0.621,0.09-0.932,0.135
				c-0.378,0.054-0.756,0.098-1.131,0.173c-0.357,0.071-0.704,0.169-1.055,0.258c-0.324,0.081-0.649,0.152-0.97,0.249
				c-0.344,0.104-0.677,0.233-1.013,0.354c-0.32,0.115-0.642,0.22-0.957,0.35c-0.315,0.13-0.616,0.284-0.923,0.429
				c-0.324,0.153-0.651,0.297-0.969,0.467c-0.294,0.158-0.573,0.337-0.859,0.508c-0.312,0.186-0.627,0.362-0.931,0.565
				c-0.316,0.211-0.612,0.446-0.916,0.673c-0.254,0.19-0.514,0.366-0.761,0.569c-0.54,0.443-1.059,0.91-1.552,1.403
				c-0.004,0.004-0.008,0.006-0.011,0.01l-64,64c-8.331,8.331-8.331,21.839,0,30.17S264.208,108.75,272.539,100.418z"/>
		</g>
	</g>
</g>
<g>
</g>
<g>
</g>
<g>
</g>
<g>
</g>
<g>
</g>
<g>
</g>
<g>
</g>
<g>
</g>
<g>
</g>
<g>
</g>
<g>
</g>
<g>
</g>
<g>
</g>
<g>
</g>
<g>
</g>
</svg>
