<?xml version="1.0" encoding="UTF-8"?>
<!DOCTYPE svg PUBLIC "-//W3C//DTD SVG 1.1//EN" "http://www.w3.org/Graphics/SVG/1.1/DTD/svg11.dtd">
<!-- Creator: CorelDRAW 2017 -->
<svg xmlns="http://www.w3.org/2000/svg" xml:space="preserve" width="136.541mm" height="136.464mm" version="1.1" style="shape-rendering:geometricPrecision; text-rendering:geometricPrecision; image-rendering:optimizeQuality; fill-rule:evenodd; clip-rule:evenodd"
viewBox="0 0 176.4038 176.3042"
 xmlns:xlink="http://www.w3.org/1999/xlink">
 <defs>
  <style type="text/css">
   <![CDATA[
    .fil2 {fill:black;fill-opacity:0.250980}
    .fil0 {fill:black;fill-opacity:0.501961}
    .fil1 {fill:black;fill-opacity:0.749020}
   ]]>
  </style>
 </defs>
 <g id="Слой_x0020_1">
  <metadata id="CorelCorpID_0Corel-Layer"/>
  <g id="_3159538047040">
   <path class="fil0" d="M99.489 103.8271l0.9656 -2.0707c1.7986,-3.857 0.1231,-8.4544 -3.7283,-10.2503l-21.9783 -10.2488c-3.854,-1.7971 -8.4515,-0.1214 -10.2488,3.7328l-0.9656 2.0707c-1.7974,3.8543 -0.1218,8.4515 3.7296,10.2476l21.9783 10.2486c3.8501,1.7988 8.4502,0.1243 10.2475,-3.73z"/>
   <path class="fil1" d="M71.6082 74.0299l10.7959 -23.1518 -5.2288 -2.4382c-7.5127,-3.5032 -16.4758,-0.2459 -19.9804,7.2699l-5.8103 12.4601 14.7976 6.9004c1.7152,-0.693 3.5523,-1.052 5.4259,-1.0404z"/>
   <polygon class="fil1" points="55.5106,124.0205 73.2203,132.2786 82.7867,111.7638 65.0768,103.5055 "/>
   <path class="fil1" d="M120.3033 68.5507l-8.3364 -3.8873 -10.3455 22.1861c5.5551,3.8886 7.7218,11.3154 4.7586,17.6698l-0.9656 2.0707c-0.2557,0.5483 -0.5935,1.0252 -0.9086,1.524l11.4468 5.3377 11.6233 -24.9263c3.503,-7.5131 0.2402,-16.4716 -7.2726,-19.9748l0.0001 0.0001z"/>
   <polygon class="fil1" points="78.0887,75.6018 95.7984,83.8599 106.0389,61.8991 88.3291,53.6409 "/>
   <path class="fil2" d="M161.6028 26.2657l-44.7868 -20.8845c-16.24,-7.5729 -28.486,-6.6059 -49.2967,-0.5008 -24.59,5.4454 -29.1193,21.4242 -39.9732,44.7002l-25.1391 53.9112c-5.9802,12.8244 -0.4336,28.0703 12.3937,34.0517l77.9604 36.3537c12.8272,5.9815 28.0716,0.4307 34.0517,-12.3939l47.1839 -101.1861c5.9802,-12.8244 0.4336,-28.07 -12.3939,-34.0516l0.0001 0zm-48.2144 108.153c-5.0271,10.7804 -17.8891,15.4618 -28.6696,10.4348l-43.1248 -20.1094c-10.7805,-5.0271 -15.4619,-17.8891 -10.4349,-28.6696l20.1121 -43.1305c5.0271,-10.7805 17.8878,-15.4591 28.6682,-10.4321l43.1278 20.1108c10.7804,5.027 15.4632,17.8862 10.4361,28.6668l-20.1123 43.1308 -0.0027 -0.0014 0.0001 -0.0001z"/>
   <path class="fil1" d="M88.8167 114.3009l-9.6713 20.7401 8.3364 3.8875c7.5127,3.5031 16.4771,0.2426 19.9816,-7.2728l5.726 -12.2796 -13.7517 -6.4125c-3.176,1.7759 -6.9681,2.3123 -10.6211,1.3372z"/>
   <path class="fil1" d="M57.6059 84.2967l0.9656 -2.0707c0.4614,-0.9895 1.0425,-1.8798 1.6853,-2.7093l-11.6337 -5.4249 -11.5392 24.7456c-3.5031,7.5127 -0.2426,16.4771 7.2728,19.9816l5.2289 2.4383 10.1216 -21.7059c-3.4994,-4.1201 -4.5301,-10.0467 -2.1015,-15.2547l0.0001 0z"/>
  </g>
 </g>
</svg>
