<?xml version="1.0" encoding="UTF-8"?>
<!DOCTYPE svg PUBLIC "-//W3C//DTD SVG 1.1//EN" "http://www.w3.org/Graphics/SVG/1.1/DTD/svg11.dtd">
<!-- Creator: CorelDRAW 2017 -->
<svg xmlns="http://www.w3.org/2000/svg" xml:space="preserve" width="50mm" height="50mm" version="1.1" style="shape-rendering:geometricPrecision; text-rendering:geometricPrecision; image-rendering:optimizeQuality; fill-rule:evenodd; clip-rule:evenodd"
viewBox="0 0 50 50"
 xmlns:xlink="http://www.w3.org/1999/xlink">
 <defs>
  <style type="text/css">
   <![CDATA[
    .fil0 {fill:#FEFEFE;fill-rule:nonzero}
    .fil2 {fill:#2B2A29;fill-rule:nonzero}
    .fil1 {fill:#FFE503;fill-rule:nonzero}
   ]]>
  </style>
 </defs>
 <g id="Слой_x0020_1">
  <metadata id="CorelCorpID_0Corel-Layer"/>
  <path class="fil0" d="M22.3039 15.902l-0.0124 0.0028 0.0106 -0.0138 0.0018 0.011zm16.6137 8.2355l0.3704 -1.185 -1.2248 0.0389c-0.1038,0 -0.8559,-0.0217 -1.5854,-0.5508 0.0547,0.0048 0.1086,0.0127 0.1647,0.0127 0.7511,0 1.4785,-0.452 1.7692,-1.0992l0.5267 -1.1691c-0.6608,0.0089 -1.2647,-0.0747 -1.2647,-0.0747 -0.005,-0.0004 -0.4812,-0.0621 -1.0319,-0.6248 -0.3947,-0.4029 -0.8833,-0.6163 -1.4125,-0.6163 -0.2318,0 -0.4385,0.042 -0.617,0.0984 0.0282,-0.0945 0.054,-0.1908 0.0695,-0.2896 0.1683,-1.0943 -0.5352,-1.9283 -0.5355,-1.9276l-0.9215 -1.1409 -0.5711 1.3402c-0.0022,0.0043 -0.1464,0.3186 -0.404,0.4717 -0.0779,-0.3941 -0.2695,-0.8368 -0.678,-1.2601 -0.7708,-0.7977 -1.7089,-0.9173 -2.1996,-0.9173 -0.2275,0 -0.3898,0.0251 -0.4293,0.0314l-1.1116 0.2188c0.0642,-0.2484 0.2011,-0.6813 0.4505,-1.0707l0.6138 -0.9557 -1.5441 0.1757 -0.4918 -1.0446 -0.9525 0.4911 -0.8805 -0.87 -0.8781 0.87 -0.9546 -0.4911 -0.4907 1.0446 -1.5434 -0.1764 0.6142 0.9567c0.2501,0.3891 0.3863,0.8209 0.4498,1.0686l-1.0608 -0.2092 -0.0367 -0.0056c-0.0529,-0.0085 -0.2145,-0.0336 -0.4427,-0.0336 -0.4908,0 -1.4288,0.1196 -2.1978,0.9169 -0.4093,0.423 -0.6012,0.8664 -0.6791,1.2605 -0.2562,-0.1517 -0.3994,-0.4611 -0.3997,-0.4611l-0.5722 -1.348 -0.9356 1.148c-0.1147,0.1478 -0.6781,0.932 -0.5249,1.9187 0.0155,0.0985 0.0416,0.1941 0.0691,0.2886 -0.1778,-0.0568 -0.3845,-0.0984 -0.616,-0.0984 -0.5295,0 -1.0181,0.2134 -1.4139,0.6163 -0.5486,0.5602 -1.022,0.6237 -1.0178,0.6237 0,0 -0.5009,0.09 -1.2759,0.0758l0.5242 1.1691c0.2914,0.6472 1.0192,1.0992 1.7688,1.0992 0.0568,0 0.1108,-0.0079 0.1662,-0.0127 -0.7285,0.5291 -1.4806,0.5508 -1.5713,0.5512l-1.2474 -0.0393 0.3781 1.1847c0.1902,0.6106 0.8255,1.6221 2.0419,1.731 -0.1323,0.5545 -0.4254,1.1765 -1.0699,1.4442l-0.9293 0.3826 0.5066 0.8827c0.2858,0.4758 0.9578,1.0325 1.9135,1.0325 0.2067,-0.0004 0.4064,-0.0215 0.5987,-0.0624 0.049,0.2173 0.1107,0.4353 0.1834,0.6515 0.2843,0.8474 0.0392,1.4383 0.0367,1.4446l-0.459 0.9611 1.0238 0.2698c0.013,0.0039 0.3224,0.0893 0.7094,0.0893 0.1757,0 0.344,-0.0183 0.501,-0.0561 0.1192,-0.0275 0.2339,-0.0646 0.3436,-0.1094 0.1326,0.2379 0.2935,0.4547 0.4815,0.6491 0.6562,0.6735 1.5861,1.0146 2.764,1.0146l0.0039 0 0.8407 -0.0109 -1.7371 0.7225 1.319 0.6374c0.4795,0.2335 1.0474,0.5098 1.626,0.7211l-0.1648 0.4505 0.4548 0.2075c0.0405,0.0183 0.9151,0.4091 2.3678,0.4924 0,0 0.351,0.0162 0.544,0.0162 0.1933,0 0.5397,-0.0172 0.5397,-0.0172 1.444,-0.0854 2.3114,-0.4731 2.352,-0.4914l0.4558 -0.2078 -0.1665 -0.4513c0.5951,-0.2176 1.1843,-0.5048 1.6439,-0.7291l1.2944 -0.6291 -1.7315 -0.7217 0.8442 0.0109c1.1794,0 2.11,-0.3415 2.7651,-1.0156 0.187,-0.1927 0.3475,-0.4093 0.4809,-0.6481 0.1104,0.0448 0.2254,0.0819 0.3446,0.1101 0.157,0.0371 0.3249,0.0554 0.5003,0.0554 0.381,0 0.6935,-0.0843 0.702,-0.0872l1.0287 -0.2719 -0.4484 -0.9434c-0.0106,-0.024 -0.2558,-0.6149 0.0289,-1.463 0.0724,-0.2162 0.1334,-0.4339 0.1828,-0.6508 0.1929,0.0409 0.3947,0.062 0.6029,0.0624 1.2178,0 1.8016,-0.8566 1.9148,-1.0425l0.5017 -0.8732 -0.9292 -0.3816c-0.6456,-0.2682 -0.9384,-0.8897 -1.0696,-1.4439 1.2005,-0.1045 1.8446,-1.1168 2.0415,-1.7315z"/>
  <path class="fil0" d="M25.027 15.8491c-0.9839,0.001 -1.722,0.3231 -1.8821,0.7027l1.8821 0.7429 1.8824 -0.7429c-0.1591,-0.3796 -0.8971,-0.7017 -1.8824,-0.7027z"/>
  <path class="fil0" d="M25.0467 35.5122l-0.0381 0c-0.5958,0.0039 -1.4174,-0.1182 -1.8126,-0.2336l-0.4759 1.2877c0.3137,0.1115 1.3769,0.3256 2.3086,0.3256 0.9299,0 1.9932,-0.2141 2.3065,-0.3256l-0.4752 -1.2877c-0.3969,0.1154 -1.2174,0.2375 -1.8133,0.2336z"/>
  <path class="fil0" d="M28.6482 34.2309c-0.3542,0.2004 -1.1451,0.5016 -1.6051,0.6414l0.3863 1.064c0.7115,-0.1948 1.2993,-0.4216 1.7836,-0.6651l-0.8011 -0.2663 0.2363 -0.774z"/>
  <path class="fil0" d="M21.4071 34.2309l0.2374 0.774 -0.8022 0.2663c0.484,0.2435 1.0742,0.4703 1.7833,0.6651l0.3866 -1.064c-0.4589,-0.1398 -1.2509,-0.441 -1.6051,-0.6414z"/>
  <path class="fil0" d="M25.027 14.6179c0.7418,0 1.4689,0.1774 2.0284,0.4889 0.0508,-0.1711 0.1228,-0.3792 0.2195,-0.5976l-0.2117 0.0254 -0.2219 0.0233 -0.0938 -0.2022 -0.283 -0.5972 -0.5157 0.2685 -0.2008 0.1019 -0.1605 -0.158 -0.5605 -0.5546 -0.5596 0.5546 -0.1601 0.158 -0.2007 -0.1019 -0.5183 -0.2685 -0.2794 0.5972 -0.0956 0.2022 -0.2215 -0.0233 -0.211 -0.0254c0.0967,0.2184 0.1679,0.4265 0.2194,0.5976 0.5617,-0.3115 1.288,-0.4889 2.0268,-0.4889z"/>
  <path class="fil0" d="M36.3511 21.5249c0.0963,0.0332 0.1941,0.048 0.2914,0.048 0.4198,0 0.8248,-0.2717 0.9645,-0.5818 0,0 -0.769,-0.0465 -1.5967,-0.8865 -0.2631,-0.272 -0.5418,-0.3535 -0.781,-0.3535 -0.3715,0 -0.6502,0.1958 -0.6502,0.1958 0.9994,0.5324 1.203,1.3857 1.772,1.578z"/>
  <path class="fil0" d="M13.4125 21.5725c0.0973,0 0.195,-0.0144 0.2892,-0.0476 0.5705,-0.1923 0.7765,-1.046 1.7745,-1.5776 0,0 -0.2794,-0.1962 -0.6491,-0.1962 -0.2402,0 -0.5186,0.0815 -0.7832,0.3539 -0.8265,0.8396 -1.5952,0.8865 -1.5952,0.8865 0.1383,0.3097 0.5447,0.581 0.9638,0.581z"/>
  <path class="fil0" d="M36.0499 27.6533c-0.7733,-0.3812 -1.2616,-1.3931 -1.3794,-1.7573 -0.1284,2.0064 -1.1077,3.3985 -2.2525,4.7391 -0.5944,0.6949 -0.8015,1.3704 -0.8015,1.3704 0,0 0.1146,-0.7655 0.6279,-1.3885 1.0686,-1.2831 2.0839,-2.881 2.159,-4.7283 0.0519,-1.2896 -0.279,-2.3348 -0.7965,-3.1966 0.2892,0.8974 0.248,1.996 -0.7345,3.022 0,0 1.9565,-2.3443 -0.7786,-4.7477 -1.0943,-0.9147 -2.2927,-1.4795 -2.909,-1.8796 2.2278,0.7271 3.3158,-0.0733 3.3158,-0.0733 -0.7116,0.6166 -1.6327,0.6064 -2.2038,0.5171 0.1552,0.0755 0.316,0.1546 0.4893,0.2477 1.8785,1.0202 3.5665,2.6992 3.8548,5.0241l0 -0.0179c0.4367,2.2831 1.409,2.8688 1.409,2.8688zm0.5718 -2.6599c0.0176,0.0011 0.0321,0.0011 0.0501,0.0011 1.0467,0 1.4016,-1.1214 1.4016,-1.1214l-0.0205 0c-0.1922,0 -1.7487,-0.0454 -2.8494,-1.444 -0.7242,-0.9197 -1.3179,-1.7283 -2.4902,-2.0465l-0.1154 -0.0205 -0.025 -0.1174c-0.0325,-0.1789 0.0906,-0.3472 0.3686,-0.5281 1.6182,-1.0594 0.5193,-2.4109 0.5193,-2.4109 0,0 -0.4621,1.0805 -1.4958,1.0805 -0.0247,0 -0.0511,-0.001 -0.0765,-0.001 -0.1175,-0.0064 -0.2311,-0.011 -0.345,-0.035l-0.1905 -0.037c0,0 0.2949,-0.8019 -0.4167,-1.5378 -0.5358,-0.5556 -1.1878,-0.6501 -1.5642,-0.6501 -0.1894,0 -0.3097,0.0243 -0.3097,0.0243 0.357,0.4671 0.6156,1.2425 0.2032,1.7209 -0.357,0.4113 -1.228,0.4307 -1.228,1.0435 0,0.2596 0.2427,0.5623 0.678,0.8343 1.3092,0.8244 2.6084,1.9188 3.1496,3.3849 0.6752,1.8286 -0.0857,3.0425 -1.1716,3.7387 0,0 0.3408,0.3138 0.8343,0.3538 0.1006,0.0097 0.199,0.0143 0.2904,0.0143 1.0424,0 1.5818,-0.4889 1.5818,-0.4889 0,0 -0.0889,0.6756 -0.6311,1.3027 -0.5009,0.5789 -1.1578,0.9203 -2.1604,0.9345 0,0 -0.0314,0.4652 0.4124,0.8678 0.284,0.254 0.9398,0.3365 0.9398,0.3365 0,0 -1.228,0.2491 -1.3638,2.0631 -0.0738,0.9828 -0.3249,1.3242 -0.3249,1.3242l0.0222 0c2.8501,0 2.777,-2.4443 2.777,-2.4443 0,0 0.198,0.7238 0.9935,0.9127 0.0959,0.025 0.1986,0.0348 0.296,0.0348 0.2557,0 0.4783,-0.0602 0.4783,-0.0602 0,0 -0.4163,-0.8781 -0.0032,-2.1065 0.3426,-1.0196 0.2872,-1.7745 0.2872,-1.7745 0,0 0.3838,0.5807 1.336,0.5857l0.0099 0c0.7926,0 1.138,-0.601 1.138,-0.601 -1.9,-0.7889 -1.7127,-3.3346 -1.7127,-3.3346 0,0 0.2469,0.1842 0.7274,0.2014z"/>
  <path class="fil0" d="M17.6366 30.6351c-1.1444,-1.3406 -2.1234,-2.7327 -2.2528,-4.7392 -0.1182,0.3643 -0.6054,1.3762 -1.378,1.7574 0,0 0.9716,-0.5858 1.408,-2.8688l0 0.0178c0.2889,-2.3247 1.9762,-4.0038 3.8555,-5.0237 0.1721,-0.0938 0.3344,-0.1725 0.4889,-0.2476 -0.5711,0.0889 -1.4926,0.0991 -2.2031,-0.5172 0,0 1.088,0.7998 3.3147,0.073 -0.6163,0.4004 -1.8136,0.9649 -2.9076,1.8796 -2.7365,2.4034 -0.7793,4.7478 -0.7793,4.7478 -0.9842,-1.0261 -1.0234,-2.1245 -0.7341,-3.0223 -0.5186,0.8619 -0.8498,1.9072 -0.7962,3.1968 0.0748,1.8473 1.0894,3.4452 2.1558,4.7287 0.5158,0.6226 0.6318,1.3881 0.6318,1.3881 0,0 -0.2095,-0.6755 -0.8036,-1.3704zm0.4579 -0.4425c0,0 0.6562,-0.0822 0.9409,-0.3365 0.4431,-0.4028 0.4113,-0.8678 0.4113,-0.8678 -1.0026,-0.0142 -1.6587,-0.3556 -2.1625,-0.9343 -0.5391,-0.6274 -0.6287,-1.3031 -0.6287,-1.3031 0,0 0.5391,0.489 1.5801,0.489 0.0939,0 0.1909,-0.0046 0.2918,-0.0142 0.4942,-0.04 0.8357,-0.3535 0.8357,-0.3535 -1.0869,-0.6962 -1.8478,-1.9102 -1.1733,-3.739 0.5408,-1.4658 1.8397,-2.5605 3.1496,-3.3852 0.4349,-0.2717 0.6773,-0.5744 0.6773,-0.834 0,-0.6128 -0.8699,-0.6322 -1.2263,-1.0435 -0.4127,-0.4784 -0.1541,-1.2538 0.2022,-1.7209 0,0 -0.1185,-0.0243 -0.3094,-0.0243 -0.3761,0 -1.028,0.0945 -1.5639,0.6501 -0.7126,0.7359 -0.4169,1.5378 -0.4169,1.5378l-0.1905 0.037c-0.114,0.024 -0.2286,0.0286 -0.3451,0.035 -0.0268,0 -0.0504,0.001 -0.0755,0.001 -1.0364,0 -1.4961,-1.0802 -1.4961,-1.0802 0,0 -1.0985,1.3512 0.5193,2.4106 0.278,0.1809 0.4008,0.3492 0.3683,0.5281l-0.025 0.1171 -0.1179 0.0208c-1.1705,0.3182 -1.7649,1.1271 -2.4895,2.0465 -1.1,1.3986 -2.655,1.444 -2.8484,1.444l-0.0215 0c0,0 0.3553,1.1214 1.4027,1.1214 0.0166,0 0.0324,0 0.0501,-0.0011 0.4815,-0.0174 0.7285,-0.2014 0.7285,-0.2014 0,0 0.1859,2.5456 -1.7131,3.3345 0,0 0.3457,0.6014 1.1384,0.6014l0.0092 0c0.9528,-0.0057 1.3359,-0.5862 1.3359,-0.5862 0,0 -0.0554,0.7555 0.2865,1.7747 0.4131,1.2287 -0.0014,2.1068 -0.0014,2.1068 0,0 0.2215,0.0599 0.4769,0.0599 0.0995,0 0.2011,-0.0098 0.296,-0.0348 0.7945,-0.1889 0.9934,-0.9127 0.9934,-0.9127 0,0 -0.073,2.4443 2.7774,2.4443l0.0205 0c0,0 -0.2491,-0.3414 -0.3224,-1.3242 -0.1355,-1.814 -1.3646,-2.0631 -1.3646,-2.0631z"/>
  <path class="fil0" d="M24.3838 21.1852l1.3434 0 0 0.461c-0.1577,-0.1933 -0.4656,-0.1541 -0.4656,-0.1541l0 0.6646c0,0 0.0116,0.327 0.1262,0.4685l-0.6649 0c0.1164,-0.1415 0.127,-0.4685 0.127,-0.4685l0 -0.6646c0,0 -0.307,-0.0392 -0.4661,0.1541l0 -0.461zm-1.464 0.0691c0.0466,0.0501 0.0924,0.1044 0.1369,0.1595 0.0106,0.0127 0.0205,0.024 0.031,0.0391 0.041,0.054 0.0819,0.1119 0.1217,0.1708 0.0092,0.0116 0.0177,0.0257 0.0272,0.0391 0.0473,0.0723 0.0928,0.1469 0.1376,0.2238 0.4113,0.7097 1.0689,1.1339 1.6528,1.135 0.5842,-0.0011 1.2414,-0.4253 1.6538,-1.135 0.0455,-0.0791 0.0917,-0.1553 0.1393,-0.2269 0.0071,-0.0103 0.0145,-0.0209 0.0212,-0.0311 0.0406,-0.0614 0.0829,-0.121 0.1273,-0.1781 0.0096,-0.0127 0.0184,-0.024 0.0272,-0.0346 0.0459,-0.0572 0.0931,-0.1122 0.1415,-0.1634 0.0081,-0.0081 0.0151,-0.0158 0.0229,-0.0225 0.2092,-0.2142 0.459,-0.3779 0.7856,-0.4682l-0.1453 -0.085 -0.0081 0 -0.5786 -0.3358 -0.5944 -0.3405 -1.5882 0.8647 -0.0042 -0.0035 -0.0032 0.0035 -1.5886 -0.8647 -0.5941 0.3405 -0.5796 0.3358 -0.0067 0 -0.1467 0.085c0.3274,0.0903 0.5757,0.2519 0.7863,0.4668 0.0088,0.0081 0.0155,0.0176 0.0254,0.0257z"/>
  <path class="fil0" d="M24.5207 18.2553l0 0.4333 -0.0832 -0.0378c-0.0039,-0.0032 -0.1263,-0.0307 -0.3391,-0.1997 -0.352,-0.2727 -0.3591,-0.5245 -0.3591,-0.5245l0.7814 0.3287zm0.3687 2.0359l0 -2.6994 -1.7181 -0.5825 0.4534 2.6152 1.2647 0.6667z"/>
  <path class="fil0" d="M25.5342 18.2553l0.7815 -0.3287c0,0 -0.0067,0.2518 -0.3595,0.5245 -0.2124,0.169 -0.3352,0.1965 -0.339,0.1997l-0.083 0.0378 0 -0.4333zm0.8958 1.3692l0.4519 -2.6152 -1.717 0.5825 0 2.6994 1.2651 -0.6667z"/>
  <path class="fil0" d="M22.4601 26.5477c0.1669,0.0608 0.3701,0.0734 0.4738,0.0734 0.0039,-0.0126 0.0099,-0.0286 0.0148,-0.0481 0.0092,-0.0304 0.0177,-0.0612 0.0244,-0.0946 0.0289,-0.1498 0.0391,-0.3188 0.0416,-0.4281 -0.0702,-0.0442 -0.17,-0.1216 -0.2254,-0.2382 -0.0639,-0.1341 -0.1549,-0.1967 -0.2879,-0.1967 -0.1728,0 -0.358,0.104 -0.4378,0.1527 -0.0631,0.3732 0.2117,0.7116 0.3965,0.7796z"/>
  <path class="fil0" d="M26.2599 25.116c-0.3189,0.3473 -0.9437,0.9512 -0.9737,0.9815l-0.0377 0.038 -1.9738 -0.0314c-0.001,0.1957 -0.0332,0.362 -0.0638,0.484 -0.005,0.0201 -0.0106,0.0412 -0.0159,0.0625l2.3474 0.422c0.2444,-0.1708 0.9165,-0.6616 1.1775,-0.854 -0.1894,-0.2771 -0.2077,-0.6061 -0.1651,-0.8376 -0.1245,-0.0792 -0.2194,-0.1696 -0.2949,-0.265z"/>
  <path class="fil0" d="M26.5273 22.7424c-0.4544,0.4509 -0.8904,0.6181 -1.2802,0.6567 -0.0709,0.0073 -0.1422,0.0119 -0.2149,0.0119l-0.0095 0c-0.073,0 -0.1446,-0.0046 -0.2152,-0.0119 -0.0681,-0.0059 -0.1393,-0.0169 -0.2109,-0.033 -0.0258,0.1016 -0.0579,0.3132 0.0345,0.5148 0.0826,0.1821 0.2502,0.3175 0.4946,0.4079l0.0819 0.0321 0.0014 0.0885c0,0.0262 0.0197,0.6007 0.6452,0.7601 0.102,-0.1052 0.1948,-0.2005 0.2635,-0.28 -0.1273,-0.301 -0.0606,-0.6083 0.1249,-0.7588 -0.0081,0.0319 -0.0892,0.7855 0.5144,1.0656l0.0998 0.0472 -0.03 0.106c-0.0095,0.0317 -0.2113,0.7612 0.5204,1.0324l0.1294 0.0491 -0.0571 0.1255c-0.0131,0.028 -0.2995,0.6894 0.3761,1.0655l1.4647 0 0 -1.1629c-0.5211,-0.0637 -0.7415,-0.4825 -0.7983,-0.7788 -0.2424,-0.0416 -0.4297,-0.1462 -0.5585,-0.3165 -0.3069,-0.4047 -0.0427,-0.7753 -0.0392,-0.7954 -0.0007,0.0032 0,0.3977 0.2431,0.6413 0.121,0.1172 0.2639,0.2084 0.4798,0.2288l0.1069 0.0095 0.0092 0.109c0.0017,0.0231 0.0603,0.5574 0.557,0.6411l-0.0014 -2.3758c0,-0.368 0.1076,-0.7381 0.2367,-1.0799l-2.9683 0z"/>
  <polygon class="fil0" points="22.585,23.8311 22.5448,25.3435 22.717,25.37 23.1375,23.9184 22.9244,23.4721 "/>
  <path class="fil0" d="M23.4955 29.4316c-0.0486,-0.0013 -0.0846,-0.0425 -0.0818,-0.092 0.0042,-0.0469 0.0441,-0.0839 0.0924,-0.0797 0.0491,0.0018 0.084,0.0451 0.0822,0.0914 -0.0046,0.0479 -0.0455,0.0846 -0.0928,0.0803zm3.7254 1.3392c0.013,0 0.0275,0.0018 0.0416,0.0054 0.2618,0.0747 0.3277,1.0177 0.7863,1.1016 0.0456,0.0096 0.0868,0.0124 0.1232,0.0124 0.1326,0 0.2116,-0.0565 0.297,-0.1574 0,0 -0.2311,-0.3625 -0.4032,-0.6074 -0.2297,-0.3207 -0.4075,-0.7076 -0.835,-0.7076 -0.0099,0 -0.0223,0 -0.0328,0.0013 -0.1408,0.0071 -0.2276,0.0758 -0.2276,0.0758 -0.1729,-0.109 -0.3344,-0.1456 -0.4798,-0.1456 -0.2674,0 -0.4755,0.1227 -0.5799,0.1227l-0.0036 0 -0.9539 -0.0942c-0.1488,-0.0145 -0.267,-0.1647 -0.3094,-0.2233 -0.0105,-0.0162 -0.0165,-0.0253 -0.0165,-0.0253 0,-0.0262 0,-0.0527 -0.0018,-0.0762 -0.0321,-0.7801 -0.6357,-1.1137 -0.8509,-1.1191 0,0 0.0254,-0.1484 -0.0328,-0.2049l-0.2106 0.2553 -0.6901 -0.3464 0.4925 0.5755 -0.417 0.4681c-0.0525,0.0532 -0.0458,0.1252 -0.0239,0.1558l0.1799 0.1592 0.2286 -0.1386c0.0113,-0.0086 0.0324,-0.0109 0.0575,-0.0109 0.0631,0 0.158,0.0161 0.243,0.0161 0.0935,0 0.174,-0.0197 0.1838,-0.1072 -0.0289,0.2892 -0.2974,0.7917 -0.121,1.1867l0.1306 0.2981 -0.8432 -0.1214 -0.3947 0.6665c-0.1217,0.222 -0.1408,0.4617 -0.0237,0.5926l0.1475 0.1846c0,0 0.2071,-0.2194 0.2536,-0.3641l-0.0673 -0.0737c-0.0561,-0.0622 -0.0537,-0.1174 -0.0187,-0.1842l0.2473 -0.4106 0.9955 0.2345 0.0526 -0.0895c0.0677,-0.1126 0.1647,-0.1457 0.2712,-0.1457 0.0445,0 0.0893,0.0052 0.1359,0.0127 0.1852,0.0363 0.4889,0.0853 0.793,0.0853 0.3337,0 0.665,-0.0595 0.8414,-0.2574 0.3609,0.5344 1.0911,0.6194 1.0336,0.891l-0.1922 0.9158c0.127,-0.0056 0.2497,-0.0137 0.3665,-0.03l0.1827 -0.9525c0.0205,-0.104 0.0395,-0.2434 0.0395,-0.2434 -0.0705,-0.0716 -0.2413,-0.2225 -0.3372,-0.4064 -0.1291,-0.2476 -0.0593,-0.3771 -0.1789,-0.6992 0,0 0.0367,-0.0748 0.1214,-0.0748z"/>
  <path class="fil0" d="M22.1363 31.6373c0,0 0.3305,-0.1359 0.3595,-0.2322l-0.0441 -0.1103c-0.0311,-0.072 -0.0268,-0.1497 0.0335,-0.1916l0.3559 -0.2467 0.5952 0.1147c0,0 -0.1076,-0.1351 -0.0974,-0.315l-0.568 -0.1203 -0.5351 0.3263c-0.23,0.1714 -0.2466,0.4522 -0.1708,0.6187l0.0713 0.1564z"/>
  <path class="fil0" d="M26.3453 33.1891c0.1065,-0.0042 0.2247,-0.006 0.3531,-0.006 0,0 0.3066,-0.8956 0.3239,-0.9239 -0.1718,-0.0759 -0.5281,-0.265 -0.6657,-0.3514 0.091,0.1362 0.3118,0.2911 0.2681,0.411l-0.2794 0.8703z"/>
  <path class="fil1" d="M29.2603 27.8783l-8.4649 0 0 3.184c0,1.3024 0.9423,2.1173 2.3329,2.1173 1.1617,0 1.4683,0.0455 1.9001,0.4742 0.2981,-0.2971 0.544,-0.4079 1.0502,-0.4491l0.0116 -0.0495 0.2671 -0.8247c-0.0148,-0.0184 -0.4512,-0.514 -0.4512,-0.514 -0.1729,0.0574 -0.3186,0.0669 -0.562,0.0669 -0.2508,0 -0.5334,-0.0292 -0.8403,-0.0866 -0.0307,-0.0072 -0.0596,-0.0104 -0.0882,-0.0104 -0.0378,0 -0.0402,0.0032 -0.0505,0.0219l-0.0529 0.0871 -0.0966 0.1606 -0.1831 -0.0423 -0.8125 -0.1912 -0.1115 0.1837 0.017 0.0199 0.0988 0.109 -0.0441 0.1418c-0.0597,0.1854 -0.2537,0.4025 -0.3126,0.462l-0.2032 0.2178 -0.1849 -0.2339 -0.1389 -0.1743c-0.1464,-0.1637 -0.18,-0.4134 -0.0978,-0.6759 -0.0017,0.0013 -0.0049,0.0029 -0.0081,0.0031l-0.2289 0.095 -0.1034 -0.2241 -0.0723 -0.1588c-0.1245,-0.2793 -0.0787,-0.6874 0.2572,-0.9344l0.654 -0.369 0.622 0.1221c0.0148,-0.0597 0.0373,-0.2734 0.055,-0.3279 -0.012,-0.0013 -0.0229,-0.0041 -0.0356,-0.0041l-0.3581 0.1341 -0.3464 -0.2386c0,0 -0.1352,-0.1305 -0.0124,-0.2607l0.3348 -0.5073 -0.8488 -1.065 1.3042 0.5355 0.0868 -0.1072 0.1761 -0.211 0.2 0.1902c0.0561,0.0543 0.0885,0.1214 0.1044,0.1883 0.3591,0.14 1.0037,0.5532 1.0601,1.2242l-0.2014 0.0804 0 0.005c0.0465,0.0547 0.0846,0.0771 0.0963,0.0794l0.931 0.0913c0.0236,-0.0038 0.0529,-0.0145 0.086,-0.0239 0.1157,-0.0396 0.289,-0.0968 0.4953,-0.0968 0.1676,0 0.3295,0.0384 0.4858,0.1115 0.0572,-0.0218 0.1281,-0.0378 0.2096,-0.043l0.0448 -0.0011c0.4981,0 0.7464,0.3722 0.9451,0.6696 0.0331,0.0515 0.0659,0.0999 0.1005,0.1479 0.1739,0.2458 0.4015,0.6046 0.4106,0.6201l0.1023 0.1605 -0.1252 0.1461c-0.0967,0.1117 -0.2424,0.2434 -0.4921,0.2434 -0.0515,0 -0.1076,-0.0057 -0.1687,-0.0173 -0.0529,-0.0099 -0.1012,-0.0258 -0.1478,-0.0452 -0.007,0.0491 -0.0176,0.1076 -0.0264,0.1581l-0.1634 0.8516c0.9765,-0.2399 1.5964,-0.9769 1.5964,-2.0323l-0.0018 -3.184z"/>
  <path class="fil1" d="M20.7954 27.622l6.5839 0c-0.3288,-0.3397 -0.3242,-0.7698 -0.2406,-1.0491 -0.0956,-0.0459 -0.1746,-0.1009 -0.2452,-0.1616 -0.2575,0.1897 -1.0425,0.7615 -1.2478,0.905l-0.0441 0.0294 -2.5837 -0.467 -0.0526 0c-0.0621,0 -0.1527,-0.0025 -0.2519,-0.0143 -0.0278,0.1168 -0.1284,0.1963 -0.2437,0.1963 -0.0131,0 -0.0279,-0.0011 -0.0413,-0.0037 -0.067,-0.0118 -0.1259,-0.0459 -0.1651,-0.1025 -0.0406,-0.0557 -0.0564,-0.1217 -0.0455,-0.1898l0.0099 -0.0558c-0.2664,-0.1875 -0.5123,-0.6072 -0.4033,-1.0491l0.0103 -0.0467 0.0377 -0.0269c0.0057,-0.0041 0.0501,-0.0346 0.1171,-0.0723l-0.188 -0.029c-0.0702,-0.0124 -0.1171,-0.078 -0.1065,-0.1473 0.0123,-0.0701 0.0783,-0.1203 0.1474,-0.1068l0.4474 0.0707 0.0405 -1.575 0.6657 -0.704 0.4152 0.8745 -0.4381 1.5152 0.3951 0.0623c0.0695,0.0107 0.1171,0.076 0.1065,0.1476 -0.0102,0.0633 -0.0645,0.1062 -0.1263,0.1062 -0.007,0 -0.0137,0 -0.0208,-0.0008l-0.3214 -0.0517c0.0046,0.0096 0.0106,0.0153 0.0149,0.0253 0.0338,0.071 0.11,0.1212 0.1545,0.1432l1.9695 0.0313c0.0836,-0.0811 0.29,-0.2835 0.5031,-0.4977 -0.4851,-0.1842 -0.6611,-0.6016 -0.6904,-0.8789 -0.2709,-0.1155 -0.4582,-0.2885 -0.5616,-0.513 -0.1263,-0.2785 -0.0815,-0.5574 -0.0476,-0.6928 -0.2629,-0.0958 -0.5391,-0.2707 -0.8213,-0.5508l-2.9669 0c0.1274,0.3418 0.235,0.7119 0.235,1.0799l0 3.7997z"/>
  <path class="fil2" d="M23.5061 29.2599c-0.0483,-0.0047 -0.0882,0.0328 -0.0924,0.0801 -0.0032,0.0491 0.0332,0.0907 0.0818,0.0916 0.0473,0.004 0.0882,-0.0321 0.0928,-0.0803 0.0018,-0.0463 -0.0331,-0.0893 -0.0822,-0.0914z"/>
  <path class="fil2" d="M27.4294 35.9363l-0.3863 -1.0637c0.4597,-0.1401 1.2509,-0.4413 1.6051,-0.6414l-0.2363 0.7737 0.8011 0.2663c-0.4847,0.2431 -1.0721,0.4703 -1.7836,0.6651zm-2.4007 0.9559c-0.9317,0 -1.9949,-0.2144 -2.3086,-0.3259l0.4759 -1.288c0.3952,0.1153 1.2168,0.2378 1.813,0.2339l0.0377 0c0.5959,0.0039 1.4164,-0.1186 1.8133,-0.2339l0.4752 1.288c-0.3133,0.1115 -1.3766,0.3259 -2.3065,0.3259zm-4.1864 -1.621l0.8022 -0.2663 -0.237 -0.7737c0.3538,0.2001 1.1458,0.5013 1.6047,0.6414l-0.387 1.0637c-0.709,-0.1948 -1.2989,-0.422 -1.7829,-0.6651zm8.4067 -0.2363l-0.4875 -0.187 0.1344 -0.5041 0.1485 -0.5489c0,0 -0.864,0.4688 -2.0818,0.8205 -0.3453,0.0988 -0.6067,0.1443 -0.6067,0.1443l0 0.374c0,0 -0.6516,0.1131 -1.3092,0.1131l-0.0377 0c-0.659,0 -1.3092,-0.1131 -1.3092,-0.1131l0 -0.374c0,0 -0.2621,-0.0455 -0.6068,-0.1443 -1.2174,-0.3517 -2.0807,-0.8205 -2.0807,-0.8205l0.1461 0.5489 0.1372 0.5041 -0.4893 0.187 -0.5425 0.2028c0.6219,0.3002 1.4837,0.737 2.2718,0.9528l-0.1859 0.5084c0,0 1.0005,0.4554 2.6663,0.4597l0 0.0011 0.0226 0 0 -0.0011c1.6683,-0.0043 2.6674,-0.4597 2.6674,-0.4597l-0.1867 -0.5084c0.7888,-0.2158 1.6517,-0.6526 2.2709,-0.9528l-0.5412 -0.2028z"/>
  <path class="fil2" d="M22.9918 14.5346l0.2215 0.0233 0.0956 -0.2022 0.2794 -0.5972 0.5183 0.2681 0.2007 0.1027 0.1601 -0.1584 0.5596 -0.555 0.5605 0.555 0.1605 0.1584 0.2008 -0.1027 0.5157 -0.2681 0.283 0.5972 0.0938 0.2022 0.2219 -0.0233 0.2117 -0.0254c-0.0967,0.2184 -0.1687,0.4262 -0.2195,0.598 -0.5595,-0.3119 -1.2866,-0.4893 -2.0284,-0.4893 -0.7388,0 -1.4651,0.1774 -2.0268,0.4893 -0.0515,-0.1718 -0.1227,-0.3796 -0.2194,-0.598l0.211 0.0254zm2.0352 0.3948c0.9927,0 1.7868,0.3291 2.2253,0.6794 0,0 0.1305,-0.7846 0.5754,-1.4767l-0.7994 0.091 -0.4188 -0.8886 -0.8033 0.4141 -0.7792 -0.7701 -0.7772 0.7701 -0.8054 -0.4141 -0.4177 0.8886 -0.799 -0.091c0.4452,0.6921 0.575,1.4767 0.575,1.4767 0.4417,-0.3503 1.2329,-0.6794 2.2243,-0.6794z"/>
  <path class="fil2" d="M37.607 28.1266c0,0 -0.3454,0.6013 -1.1384,0.6013l-0.0095 0c-0.9522,-0.0057 -1.3356,-0.5862 -1.3356,-0.5862 0,0 0.055,0.7551 -0.2879,1.7747 -0.4131,1.2287 0.0035,2.1065 0.0035,2.1065 0,0 -0.2222,0.0602 -0.478,0.0602 -0.0981,0 -0.2004,-0.0098 -0.2967,-0.0348 -0.7948,-0.1889 -0.9931,-0.9127 -0.9931,-0.9127 0,0 0.0731,2.4443 -2.777,2.4443l-0.0222 0c0,0 0.2511,-0.3414 0.3252,-1.3242 0.1355,-1.814 1.3635,-2.0631 1.3635,-2.0631 0,0 -0.6555,-0.0822 -0.9398,-0.3365 -0.4441,-0.4028 -0.4124,-0.8678 -0.4124,-0.8678 1.0026,-0.0142 1.6598,-0.3556 2.1601,-0.9345 0.5425,-0.6271 0.6314,-1.3027 0.6314,-1.3027 0,0 -0.5394,0.4889 -1.5818,0.4889 -0.0917,0 -0.1895,-0.0047 -0.2904,-0.0143 -0.4935,-0.04 -0.8343,-0.3535 -0.8343,-0.3535 1.0859,-0.6962 1.8468,-1.9104 1.172,-3.739 -0.5412,-1.4658 -1.8408,-2.5605 -3.15,-3.3849 -0.4353,-0.272 -0.678,-0.5747 -0.678,-0.8343 0,-0.6128 0.8713,-0.6322 1.228,-1.0435 0.4124,-0.4784 0.1538,-1.2538 -0.2036,-1.7209 0,0 0.1203,-0.0243 0.3101,-0.0243 0.3768,0 1.0287,0.0945 1.5642,0.6501 0.7116,0.7359 0.4167,1.5378 0.4167,1.5378l0.1905 0.037c0.1139,0.024 0.2275,0.0286 0.345,0.035 0.0254,0 0.0515,0.001 0.0769,0.001 1.0336,0 1.4954,-1.0805 1.4954,-1.0805 0,0 1.0989,1.3515 -0.5189,2.4109 -0.2784,0.1809 -0.4015,0.3492 -0.369,0.5281l0.025 0.1174 0.1154 0.0205c1.1723,0.3182 1.766,1.1271 2.4902,2.0465 1.1007,1.3986 2.6572,1.444 2.8494,1.444l0.0208 0c0,0 -0.3552,1.1214 -1.4023,1.1214 -0.0172,0 -0.0321,0 -0.0493,-0.0011 -0.4809,-0.0174 -0.7278,-0.2014 -0.7278,-0.2014 0,0 -0.1873,2.5457 1.7127,3.3346zm-0.9356 -2.789c1.2838,0 1.7135,-1.3057 1.7308,-1.3615l0.1436 -0.4602 -0.4812 0.015 -0.0018 0c-0.1693,0 -1.5861,-0.0378 -2.5901,-1.3139l-0.0945 -0.1183c-0.6566,-0.8342 -1.2785,-1.6279 -2.3908,-1.9899 0.0321,-0.0292 0.0783,-0.0645 0.1414,-0.1058 0.5902,-0.3877 0.9335,-0.8597 1.0199,-1.4069 0.1263,-0.8237 -0.3993,-1.4806 -0.4226,-1.5074l-0.3574 -0.442 -0.2233 0.5242c-0.0148,0.0328 -0.3901,0.8721 -1.18,0.8721l-0.0589 0c-0.054,-0.0028 -0.1062,-0.005 -0.1567,-0.0092 0.0279,-0.3739 -0.0405,-0.9536 -0.5662,-1.4975 -0.6318,-0.6541 -1.4065,-0.7522 -1.8115,-0.7522 -0.2162,0 -0.3602,0.0269 -0.376,0.0283l-0.5398 0.1072 0.333 0.4389c0.2611,0.3383 0.4982,0.9627 0.2173,1.2887 -0.0903,0.104 -0.2748,0.188 -0.4512,0.2727 -0.3633,0.1668 -0.8604,0.4007 -0.8604,0.9941 0,0.3835 0.2985,0.7853 0.8382,1.1264 1.5981,1.0054 2.5841,2.0542 3.0103,3.212 0.659,1.7809 -0.2011,2.7966 -1.0358,3.3321l-0.3743 0.2407 0.3277 0.3011c0.0445,0.0389 0.4449,0.3922 1.0372,0.4429 0.1122,0.0072 0.2194,0.0134 0.32,0.0134 0.3796,0 0.7031,-0.0595 0.9659,-0.14 -0.072,0.1266 -0.1616,0.256 -0.2731,0.3858 -0.4769,0.5528 -1.0643,0.8043 -1.9081,0.818l-0.314 0.005 -0.024 0.3146c-0.0028,0.0635 -0.0265,0.647 0.5256,1.1431 0.0844,0.0769 0.1867,0.14 0.2939,0.1915 -0.3746,0.3372 -0.7553,0.9246 -0.829,1.9304 -0.0621,0.8396 -0.2621,1.1504 -0.265,1.1535l-0.3464 0.5292 0.6265 0.0085c1.0354,0 1.8278,-0.2854 2.3774,-0.8516 0.3246,-0.3349 0.5101,-0.713 0.6198,-1.0477 0.18,0.1534 0.4124,0.2881 0.7162,0.3598 0.1146,0.0267 0.2406,0.0416 0.3771,0.0416 0.2921,0 0.5373,-0.0621 0.5644,-0.0687l0.3997 -0.1063 -0.1767 -0.3732c-0.0127,-0.03 -0.3464,-0.7793 0.0127,-1.8482 0.1542,-0.4625 0.2335,-0.8763 0.272,-1.1987 0.2519,0.1312 0.5891,0.2395 1.0252,0.2408 0.9902,0 1.4273,-0.7397 1.4467,-0.7707l0.1951 -0.3397 -0.3616 -0.1489c-1.1804,-0.4901 -1.4415,-1.806 -1.494,-2.5181 0.1065,0.0208 0.2286,0.0396 0.3662,0.0435l0.0606 0.0015z"/>
  <path class="fil2" d="M35.2293 19.7511c0.2388,0 0.5179,0.0815 0.7814,0.3539 0.8273,0.8396 1.5967,0.8865 1.5967,0.8865 -0.1401,0.3097 -0.5451,0.581 -0.9652,0.581 -0.097,0 -0.1944,-0.0144 -0.2911,-0.0476 -0.569,-0.1923 -0.7726,-1.046 -1.7723,-1.5776 0,0 0.279,-0.1962 0.6505,-0.1962zm-0.8132 0.4999c0.4784,0.2547 0.7578,0.5966 1.0023,0.8996 0.2402,0.296 0.4681,0.5803 0.8255,0.6989 0.1263,0.0434 0.261,0.0643 0.3983,0.0643 0.5355,0 1.0735,-0.3279 1.2774,-0.7815l0.2053 -0.4551 -0.4964 -0.0293c-0.0233,-0.0007 -0.6621,-0.0593 -1.3726,-0.7849 -0.2921,-0.2981 -0.646,-0.4544 -1.0266,-0.4544 -0.4657,0 -0.8103,0.2325 -0.8484,0.2564l-0.4562 0.3214 0.4914 0.2646z"/>
  <path class="fil2" d="M34.6409 24.7846l0 0.0175c-0.2879,-2.3246 -1.976,-4.0036 -3.8545,-5.0235 -0.1736,-0.0934 -0.3344,-0.1725 -0.49,-0.248 0.5715,0.0889 1.493,0.0995 2.2038,-0.5171 0,0 -1.0876,0.8004 -3.3158,0.0733 0.6163,0.4001 1.8151,0.9649 2.9094,1.8796 2.7351,2.4034 0.7786,4.7477 0.7786,4.7477 0.9828,-1.0258 1.0237,-2.1245 0.7345,-3.022 0.5175,0.8615 0.8484,1.9068 0.7969,3.1966 -0.0755,1.8473 -1.0908,3.445 -2.159,4.7283 -0.5137,0.623 -0.6283,1.3885 -0.6283,1.3885 0,0 0.2074,-0.6755 0.8015,-1.3704 1.1448,-1.3406 2.1241,-2.7327 2.2521,-4.7391 0.1182,0.3644 0.6065,1.3761 1.3798,1.7574 0,0 -0.9723,-0.5858 -1.409,-2.8688z"/>
  <path class="fil2" d="M19.761 33.5799c-2.8504,0 -2.7774,-2.4443 -2.7774,-2.4443 0,0 -0.1989,0.7238 -0.9934,0.9127 -0.0949,0.025 -0.1965,0.0348 -0.296,0.0348 -0.2557,0 -0.4769,-0.0602 -0.4769,-0.0602 0,0 0.4145,-0.8778 0.0014,-2.1065 -0.3419,-1.0192 -0.2865,-1.7747 -0.2865,-1.7747 0,0 -0.3831,0.5805 -1.3359,0.5862l-0.0092 0c-0.7927,0 -1.1384,-0.6014 -1.1384,-0.6014 1.899,-0.7889 1.7131,-3.3345 1.7131,-3.3345 0,0 -0.247,0.184 -0.7285,0.2014 -0.0177,0.0011 -0.0335,0.0011 -0.0501,0.0011 -1.0474,0 -1.4027,-1.1214 -1.4027,-1.1214l0.0215 0c0.1934,0 1.7484,-0.0454 2.8484,-1.444 0.7246,-0.9194 1.3187,-1.7283 2.4895,-2.0465l0.1179 -0.0208 0.025 -0.1171c0.0325,-0.1789 -0.0903,-0.3472 -0.3683,-0.5281 -1.6178,-1.0594 -0.5193,-2.4106 -0.5193,-2.4106 0,0 0.4597,1.0802 1.4961,1.0802 0.0251,0 0.0487,-0.001 0.0755,-0.001 0.1161,-0.0064 0.2311,-0.011 0.3451,-0.035l0.1905 -0.037c0,0 -0.296,-0.8019 0.4169,-1.5378 0.5359,-0.5556 1.1875,-0.6501 1.5639,-0.6501 0.1909,0 0.309,0.0243 0.309,0.0243 -0.3559,0.4671 -0.6145,1.2425 -0.2021,1.7209 0.3567,0.4113 1.2266,0.4307 1.2266,1.0431 0,0.26 -0.2424,0.5627 -0.6773,0.8344 -1.3099,0.8247 -2.6088,1.9194 -3.1496,3.3852 -0.6745,1.8288 0.0864,3.0428 1.1733,3.739 0,0 -0.3415,0.3135 -0.8357,0.3535 -0.1009,0.0096 -0.1979,0.0142 -0.2918,0.0142 -1.041,0 -1.5801,-0.489 -1.5801,-0.489 0,0 0.0896,0.6757 0.6287,1.3031 0.5038,0.5787 1.1599,0.9201 2.1625,0.9343 0,0 0.0318,0.465 -0.4113,0.8678 -0.2847,0.2543 -0.9409,0.3365 -0.9409,0.3365 0,0 1.2291,0.2491 1.3646,2.0631 0.0733,0.9828 0.3224,1.3242 0.3224,1.3242l-0.0205 0zm0.3031 -0.1954c-0.0007,-0.0031 -0.2,-0.3139 -0.2635,-1.1535 -0.0745,-1.0058 -0.4551,-1.5932 -0.8305,-1.9304 0.1083,-0.0515 0.2089,-0.1146 0.2939,-0.1915 0.5517,-0.4961 0.5281,-1.0796 0.5246,-1.1431l-0.0216 -0.3146 -0.316 -0.005c-0.8414,-0.0137 -1.4299,-0.2652 -1.9068,-0.818 -0.1104,-0.1298 -0.2,-0.2593 -0.2731,-0.3858 0.2625,0.0805 0.5842,0.14 0.9645,0.14 0.1023,0 0.2085,-0.0062 0.3204,-0.0135 0.5926,-0.0507 0.9937,-0.4036 1.0385,-0.4428l0.3281 -0.3011 -0.3746 -0.2407c-0.8375,-0.5355 -1.6941,-1.5513 -1.0361,-3.3321 0.4261,-1.1578 1.4107,-2.2066 3.0113,-3.212 0.5397,-0.3411 0.8357,-0.7429 0.8357,-1.1268 0,-0.593 -0.4957,-0.8269 -0.859,-0.9937 -0.1771,-0.0847 -0.3613,-0.1687 -0.4512,-0.2727 -0.2812,-0.326 -0.0441,-0.9504 0.2169,-1.2887l0.3352 -0.4389 -0.5422 -0.1072c-0.0159,-0.0014 -0.1581,-0.0283 -0.3754,-0.0283 -0.4053,0 -1.1783,0.0981 -1.8097,0.7522 -0.5264,0.5443 -0.5955,1.1232 -0.5687,1.4975 -0.0505,0.0042 -0.102,0.0064 -0.156,0.0092l-0.0575 0c-0.7923,0 -1.1666,-0.8393 -1.1811,-0.8721l-0.2226 -0.5242 -0.3608 0.442c-0.0202,0.0268 -0.5472,0.6837 -0.4191,1.5071 0.085,0.5475 0.4289,1.0192 1.0195,1.4072 0.0642,0.0413 0.1086,0.0766 0.1411,0.1058 -1.1141,0.362 -1.7357,1.1557 -2.3915,1.9897l-0.0949 0.1185c-1.0026,1.2761 -2.4218,1.3139 -2.5915,1.3139l-0.484 -0.0152 0.1475 0.4604c0.0169,0.0558 0.4448,1.3615 1.7293,1.3615l0.0621 -0.0016c0.1358,-0.0038 0.2575,-0.0226 0.3661,-0.0434 -0.0532,0.712 -0.315,2.028 -1.4957,2.5181l-0.3606 0.1489 0.1951 0.3397c0.0191,0.031 0.4569,0.7707 1.4492,0.7707 0.4336,-0.0013 0.7705,-0.1096 1.0227,-0.2404 0.0385,0.322 0.1175,0.7358 0.2724,1.1983 0.3591,1.0686 0.0247,1.8182 0.0123,1.8482l-0.1778 0.3732 0.4011 0.1063c0.0265,0.0066 0.2727,0.0687 0.5641,0.0687 0.1362,0 0.2625,-0.0149 0.3761,-0.0416 0.3041,-0.0717 0.5387,-0.2064 0.7172,-0.3598 0.109,0.3347 0.2953,0.7128 0.6191,1.0477 0.551,0.5662 1.3427,0.8516 2.3774,0.8516l0.6272 -0.0085 -0.3471 -0.5292z"/>
  <path class="fil2" d="M14.0439 20.1046c0.2646,-0.272 0.543,-0.3538 0.7832,-0.3538 0.3694,0 0.6495,0.1965 0.6495,0.1965 -0.9984,0.532 -1.2044,1.3853 -1.7749,1.5776 -0.0942,0.0335 -0.1919,0.0476 -0.2892,0.0476 -0.4191,0 -0.8255,-0.2713 -0.9638,-0.581 0,0 0.7687,-0.0469 1.5952,-0.8869zm-0.6314 1.809c0.1375,0 0.2719,-0.0204 0.3989,-0.0639 0.3581,-0.1188 0.5857,-0.4028 0.8263,-0.6991 0.2455,-0.3027 0.5217,-0.6449 1.0008,-0.8999l0.4928 -0.2643 -0.4575 -0.3214c-0.0385,-0.0243 -0.3817,-0.2561 -0.8467,-0.2561 -0.3817,0 -0.7355,0.156 -1.028,0.4541 -0.7108,0.7256 -1.348,0.7842 -1.3712,0.7849l-0.4961 0.0289 0.204 0.4555c0.2046,0.4536 0.7422,0.7813 1.2767,0.7813z"/>
  <path class="fil2" d="M15.6526 25.8887c-0.0533,-1.2896 0.2776,-2.3349 0.7959,-3.1968 -0.289,0.8976 -0.2498,1.9962 0.7344,3.0225 0,0 -1.9568,-2.3446 0.7793,-4.748 1.094,-0.9147 2.2917,-1.4795 2.908,-1.8796 -2.2275,0.7271 -3.3151,-0.073 -3.3151,-0.073 0.7109,0.6163 1.632,0.6061 2.2031,0.5168 -0.1541,0.0755 -0.3168,0.1546 -0.4889,0.2477 -1.8793,1.0202 -3.5666,2.6992 -3.8559,5.024l0 -0.0178c-0.436,2.2831 -1.4076,2.8688 -1.4076,2.8688 0.773,-0.3812 1.2594,-1.3931 1.378,-1.7573 0.1294,2.0064 1.1084,3.3985 2.2532,4.7391 0.5937,0.6949 0.8032,1.3704 0.8032,1.3704 0,0 -0.116,-0.7655 -0.6318,-1.3885 -1.0664,-1.2831 -2.0814,-2.881 -2.1558,-4.7283z"/>
  <path class="fil2" d="M24.3838 21.1852l0 0.461c0.1591,-0.1933 0.4661,-0.1541 0.4661,-0.1541l0 0.6646c0,0 -0.0106,0.327 -0.127,0.4685l0.6649 0c-0.1146,-0.1415 -0.1262,-0.4685 -0.1262,-0.4685l0 -0.6646c0,0 0.3079,-0.0392 0.4656,0.1541l0 -0.461 -1.3434 0z"/>
  <path class="fil2" d="M24.0981 18.4511c0.2131,0.1687 0.3355,0.1969 0.3397,0.1997l0.0829 0.0381 0 -0.4339 -0.781 -0.3284c0,0 0.0067,0.2515 0.3584,0.5245z"/>
  <path class="fil2" d="M25.9562 18.4511c0.3528,-0.273 0.3598,-0.5245 0.3598,-0.5245l-0.7818 0.3284 0 0.4339 0.083 -0.0381c0.0042,-0.0028 0.1266,-0.031 0.339,-0.1997z"/>
  <path class="fil2" d="M25.027 17.2951l-1.8821 -0.7437c0.1601,-0.3789 0.8982,-0.7013 1.8821,-0.7023 0.9853,0.001 1.7233,0.3234 1.8824,0.7023l-1.8824 0.7437zm1.4033 2.3297l-1.2654 0.6664 0 -2.6994 1.717 -0.5828 -0.4516 2.6158zm0.7835 0.7162l0.5786 0.3358 0.0081 0 0.1453 0.085c-0.3266,0.0903 -0.576,0.254 -0.7856,0.4682 -0.0081,0.0067 -0.0148,0.0144 -0.0229,0.0225 -0.0484,0.0512 -0.0956,0.1062 -0.1415,0.1634 -0.0085,0.0106 -0.0176,0.0219 -0.0272,0.0346 -0.0444,0.0571 -0.0867,0.1167 -0.1273,0.1781 -0.0067,0.0102 -0.0141,0.0208 -0.0212,0.0311 -0.048,0.0716 -0.0938,0.1478 -0.1397,0.2269 -0.412,0.7097 -1.0692,1.1339 -1.6534,1.135 -0.5842,-0.0011 -1.2418,-0.4253 -1.6528,-1.135 -0.0448,-0.0769 -0.0903,-0.1515 -0.1376,-0.2238 -0.0095,-0.0134 -0.0183,-0.0275 -0.0268,-0.0391 -0.0402,-0.0589 -0.0811,-0.1168 -0.1224,-0.1708 -0.0102,-0.0151 -0.0201,-0.0264 -0.0307,-0.0391 -0.0445,-0.0551 -0.0903,-0.1094 -0.1369,-0.1595 -0.0102,-0.0081 -0.0166,-0.0176 -0.025,-0.0257 -0.211,-0.2149 -0.4593,-0.3765 -0.7864,-0.4668l0.1468 -0.085 0.0063 0 0.5796 -0.3358 0.5945 -0.3405 1.5882 0.8647 0.0032 -0.0035 0.0045 0.0035 1.5879 -0.8647 0.5944 0.3405zm2.2818 2.4012c-0.1295,0.3419 -0.2364,0.7119 -0.2364,1.08l0.0011 2.3757c-0.4967,-0.0833 -0.5553,-0.6178 -0.557,-0.641l-0.0092 -0.1088 -0.1069 -0.0095c-0.2159,-0.0206 -0.3588,-0.1116 -0.4794,-0.229 -0.2435,-0.2434 -0.2442,-0.6379 -0.2435,-0.6413 -0.0035,0.0201 -0.2681,0.3906 0.0392,0.7954 0.1288,0.1703 0.3161,0.2751 0.5581,0.3165 0.0572,0.2966 0.2776,0.7154 0.7987,0.779l0 1.1626 -1.4647 0c-0.6756,-0.3759 -0.3892,-1.0372 -0.3761,-1.0654l0.0571 -0.1256 -0.1294 -0.0488c-0.7313,-0.2712 -0.5299,-1.0008 -0.52,-1.0324l0.0293 -0.1063 -0.0995 -0.0472c-0.6036,-0.28 -0.5221,-1.0337 -0.514,-1.0655 -0.1859,0.1508 -0.253,0.4578 -0.1249,0.759 -0.0691,0.0793 -0.1619,0.1749 -0.2639,0.2801 -0.6255,-0.1595 -0.6449,-0.734 -0.6449,-0.7605l-0.0014 -0.0884 -0.0825 -0.0319c-0.2441,-0.0904 -0.4117,-0.2261 -0.4946,-0.4082 -0.0924,-0.2015 -0.0596,-0.4131 -0.0342,-0.5149 0.0716,0.0165 0.1428,0.0275 0.2109,0.0332 0.0702,0.0073 0.1426,0.0118 0.2149,0.0118l0.0102 0c0.0723,0 0.1436,-0.0045 0.2145,-0.0118 0.3898,-0.0386 0.8258,-0.2059 1.2806,-0.6568l2.9679 0zm-1.8299 10.3527l0.1634 -0.8522c0.0088,-0.0502 0.0194,-0.1087 0.0264,-0.1578 0.0462,0.0194 0.0949,0.035 0.1478,0.0448 0.0611,0.0117 0.1175,0.0177 0.1687,0.0177 0.2494,0 0.3951,-0.1312 0.4917,-0.2434l0.1256 -0.1461 -0.1026 -0.1605c-0.0092,-0.0159 -0.2364,-0.3746 -0.4103,-0.6201 -0.0346,-0.0484 -0.0674,-0.0964 -0.1005,-0.1482 -0.1987,-0.2971 -0.4467,-0.6693 -0.9451,-0.6693l-0.0445 0.0011c-0.0822,0.0052 -0.1524,0.0215 -0.2095,0.043 -0.1567,-0.0731 -0.3182,-0.1111 -0.4862,-0.1111 -0.2063,0 -0.3792,0.0568 -0.4953,0.0959 -0.0331,0.0099 -0.0624,0.0201 -0.086,0.0247l-0.931 -0.0916c-0.012,-0.0025 -0.0498,-0.0247 -0.096,-0.0794l0 -0.0046 0.2015 -0.0808c-0.0568,-0.6713 -0.7014,-1.0842 -1.0605,-1.2238 -0.0155,-0.0673 -0.048,-0.1344 -0.1044,-0.1892l-0.2004 -0.1897 -0.1757 0.211 -0.0868 0.1072 -1.3038 -0.5355 0.848 1.065 -0.3344 0.5073c-0.1224,0.1302 0.0127,0.2607 0.0127,0.2607l0.3457 0.2382 0.3585 -0.1337c0.0123,0 0.0236,0.0028 0.0356,0.0041 -0.0177,0.0545 -0.0399,0.2682 -0.0547,0.3279l-0.6226 -0.1221 -0.6537 0.369c-0.3359,0.247 -0.3817,0.6551 -0.2572,0.9349l0.0727 0.1583 0.103 0.2241 0.2289 -0.0946c0.0032,-0.0011 0.0064,-0.0022 0.0081,-0.0038 -0.0822,0.2628 -0.0483,0.5125 0.0978,0.6762l0.1389 0.1746 0.1849 0.2336 0.2029 -0.2181c0.0596,-0.0592 0.2532,-0.2763 0.3129,-0.4617l0.0437 -0.1418 -0.0988 -0.109 -0.0162 -0.0199 0.1115 -0.1837 0.8121 0.1916 0.1831 0.0419 0.097 -0.1606 0.0529 -0.0871c0.0099,-0.0187 0.0123,-0.0215 0.0497,-0.0215 0.029,0 0.0575,0.0028 0.0886,0.01 0.3069,0.0579 0.5895,0.0864 0.8403,0.0864 0.2434,0 0.3888,-0.0093 0.562,-0.0667 0,0 0.436,0.4952 0.4512,0.5144l-0.2671 0.8241 -0.012 0.0497c-0.5058,0.0409 -0.7517,0.152 -1.0495,0.4494 -0.4321,-0.429 -0.7387,-0.4742 -1.9,-0.4742 -1.3907,0 -2.3333,-0.8152 -2.3333,-2.1176l0 -3.1838 8.4649 0 0.0014 3.1838c0,1.0554 -0.6198,1.7924 -1.596,2.0326zm-5.214 -1.8001l0.0441 0.1101c-0.0293,0.0961 -0.3595,0.2324 -0.3595,0.2324l-0.0713 -0.1564c-0.0758,-0.1665 -0.0592,-0.4473 0.1708,-0.619l0.5351 -0.326 0.568 0.1207c-0.0106,0.1798 0.0974,0.3146 0.0974,0.3146l-0.5952 -0.1143 -0.3559 0.2459c-0.0603,0.0423 -0.0646,0.12 -0.0335,0.192zm5.1244 0.8998l-0.1827 0.9522c-0.1168,0.0166 -0.2395,0.0251 -0.3665,0.0299l0.1922 -0.915c0.0575,-0.272 -0.6727,-0.3566 -1.0336,-0.8914 -0.1764,0.1979 -0.508,0.2571 -0.8414,0.2571 -0.3041,0 -0.6078,-0.0484 -0.793,-0.085 -0.0466,-0.0075 -0.0914,-0.0127 -0.1359,-0.0127 -0.1065,0 -0.2035,0.0335 -0.2709,0.1457l-0.0529 0.0895 -0.9955 -0.2342 -0.2473 0.4099c-0.035,0.0667 -0.0378,0.1224 0.0187,0.1849l0.0673 0.0734c-0.0465,0.1447 -0.2533,0.3641 -0.2533,0.3641l-0.1481 -0.1848c-0.1172,-0.1309 -0.0977,-0.3709 0.024,-0.5924l0.3947 -0.6668 0.8435 0.1217 -0.1309 -0.2985c-0.1764,-0.395 0.0921,-0.8971 0.1207,-1.1863 -0.0095,0.0875 -0.09,0.1072 -0.1835,0.1072 -0.085,0 -0.1799,-0.0161 -0.243,-0.0161 -0.0247,0 -0.0462,0.0023 -0.0575,0.0109l-0.2286 0.1386 -0.1799 -0.1595c-0.0219,-0.0303 -0.0286,-0.1019 0.0243,-0.156l0.417 -0.4676 -0.4929 -0.5755 0.6901 0.3464 0.2106 -0.2553c0.0582,0.0568 0.0328,0.2049 0.0328,0.2049 0.2148,0.0054 0.8191,0.339 0.8512,1.1191 0.0018,0.0235 0.0018,0.0504 0.0018,0.0758 0,0 0.0057,0.0099 0.0159,0.0257 0.0427,0.0589 0.1609,0.2092 0.3101,0.223l0.9535 0.0945 0.0036 0c0.1044,0 0.3129,-0.1227 0.5799,-0.1227 0.1454,0 0.3069,0.0371 0.4798,0.1456 0,0 0.0868,-0.0687 0.2276,-0.0758 0.0105,-0.0013 0.0229,-0.0013 0.0328,-0.0013 0.4275,0 0.6053,0.3869 0.835,0.7076 0.1721,0.2449 0.4032,0.6074 0.4032,0.6074 -0.0854,0.1009 -0.1644,0.1574 -0.297,0.1574 -0.0364,0 -0.0776,-0.0028 -0.1232,-0.012 -0.4586,-0.0846 -0.5249,-1.0276 -0.7863,-1.102 -0.0141,-0.004 -0.0286,-0.0054 -0.0416,-0.0054 -0.0847,0 -0.1214,0.0748 -0.1214,0.0748 0.1196,0.3218 0.0498,0.4516 0.1789,0.6992 0.0959,0.1839 0.2667,0.3348 0.3372,0.4064 0,0 -0.0194,0.1394 -0.0395,0.2434zm-0.8777 0.9885c-0.1284,0 -0.2469,0.0018 -0.3531,0.006l0.2794 -0.8699c0.0437,-0.1203 -0.1771,-0.2752 -0.2681,-0.4114 0.1376,0.0868 0.4939,0.2759 0.6657,0.3514 -0.0173,0.0283 -0.3239,0.9239 -0.3239,0.9239zm-4.1536 -7.8394l0.0399 -1.5124 0.3397 -0.3591 0.2131 0.4463 -0.4205 1.4516 -0.1722 -0.0264zm0.2441 0.4684c0.0558,0.1166 0.1556,0.194 0.2258,0.2382 -0.0025,0.1093 -0.0127,0.2783 -0.0416,0.4281 -0.0067,0.0334 -0.0152,0.0642 -0.0244,0.0946 -0.0049,0.0195 -0.0105,0.0355 -0.0148,0.0481 -0.1037,0 -0.3069,-0.0126 -0.4741,-0.0734 -0.1842,-0.068 -0.4593,-0.4064 -0.3962,-0.7796 0.0798,-0.0487 0.265,-0.1527 0.4382,-0.1527 0.1326,0 0.224,0.0626 0.2871,0.1967zm3.931 0.4064c-0.261,0.1923 -0.9334,0.6835 -1.1775,0.8539l-2.3474 -0.4219c0.0053,-0.021 0.0109,-0.042 0.0162,-0.0626 0.0307,-0.1219 0.0621,-0.2881 0.0639,-0.4838l1.9734 0.0315 0.0377 -0.0383c0.0297,-0.0299 0.6552,-0.634 0.9737,-0.9813 0.0759,0.0952 0.1704,0.1855 0.2949,0.2652 -0.0426,0.2312 -0.0247,0.5602 0.1651,0.8373zm-3.1926 -3.4763c0.2822,0.2804 0.5584,0.455 0.8213,0.5508 -0.0343,0.1355 -0.0791,0.4147 0.0472,0.6932 0.1038,0.2245 0.2911,0.3974 0.562,0.5126 0.0293,0.2777 0.2053,0.6948 0.6904,0.8789 -0.2127,0.2142 -0.4195,0.4166 -0.5031,0.498l-1.9692 -0.0312c-0.0448,-0.0221 -0.121,-0.0725 -0.1552,-0.1435 -0.0035,-0.01 -0.0102,-0.0154 -0.0141,-0.0252l0.321 0.0518c0.0071,0.0008 0.0138,0.0008 0.0205,0.0008 0.0624,0 0.1164,-0.0428 0.1266,-0.1065 0.0106,-0.0712 -0.037,-0.1365 -0.1062,-0.1476l-0.3954 -0.0623 0.4385 -1.5149 -0.4156 -0.8745 -0.6653 0.7039 -0.0409 1.575 -0.4474 -0.0708c-0.0691,-0.0135 -0.1354,0.0369 -0.1474,0.1071 -0.011,0.069 0.0363,0.1349 0.1069,0.1473l0.1873 0.0287c-0.0667,0.038 -0.1111,0.0684 -0.1164,0.0724l-0.0381 0.0268 -0.0106 0.0467c-0.1087,0.4422 0.1376,0.8615 0.4036,1.0493l-0.0096 0.0558c-0.0109,0.0681 0.0046,0.1341 0.0455,0.1898 0.0389,0.0567 0.0974,0.0907 0.1648,0.1026 0.0134,0.0023 0.0282,0.0034 0.0413,0.0034 0.115,0 0.2159,-0.0795 0.2437,-0.1961 0.0992,0.0119 0.1898,0.0142 0.2519,0.0142l0.0526 0 2.5837 0.4669 0.0438 -0.0293c0.2056,-0.1437 0.9906,-0.7154 1.2481,-0.9052 0.0706,0.061 0.1496,0.116 0.2452,0.1619 -0.0833,0.2794 -0.0886,0.7094 0.2406,1.0488l-6.5839 0 0 -3.7996c0,-0.3681 -0.1076,-0.7381 -0.235,-1.08l2.9669 0zm-0.356 -5.7332l1.7181 0.5828 0 2.6994 -1.2647 -0.6664 -0.4534 -2.6158zm4.1921 -0.3256c0,-0.6587 -1.1088,-1.2513 -2.3326,-1.2513l-0.007 0c-1.2238,0 -2.3322,0.5926 -2.3322,1.2513l0.024 0.1619 0.4889 2.8049 -0.4911 0.2851 -1.2696 0.7415 0.0046 0c0,0 -0.2858,0.1468 -0.4184,0.2371 -0.4833,0.3358 -0.5863,0.8258 -0.3055,1.0284 0.0691,-0.3998 0.3852,-0.8171 0.9768,-0.8171 0.4255,0 0.7504,0.2201 1.0121,0.5493 0.0678,0.0832 0.132,0.1723 0.1916,0.2678 0.0734,0.1205 0.1471,0.2265 0.2201,0.3282l-3.2709 0c0.2402,0.4834 0.4688,0.9952 0.4688,1.5517l0 7.2401c0,1.7525 1.3476,2.589 2.8057,2.589 1.1267,0 1.2784,-0.0515 1.9,0.5679 0.6188,-0.6194 0.7705,-0.5679 1.8983,-0.5679 1.4588,0 2.8046,-0.8365 2.8046,-2.589l0 -7.2401c0,-0.5565 0.2282,-1.0683 0.4695,-1.5517l-3.272 0c0.0727,-0.1017 0.1464,-0.2077 0.2202,-0.3282 0.0603,-0.0955 0.1241,-0.1846 0.1901,-0.2678 0.2642,-0.3306 0.5884,-0.5493 1.0143,-0.5493 0.5909,0 0.9066,0.4173 0.9764,0.8171 0.2812,-0.2026 0.1793,-0.6926 -0.3069,-1.0284 -0.1302,-0.0903 -0.4163,-0.2371 -0.4163,-0.2371l0.0043 0 -1.2718 -0.7415 -0.4889 -0.2851 0.4889 -2.8049 0.024 -0.1619z"/>
 </g>
</svg>
