<?xml version="1.0" encoding="iso-8859-1"?>
<!-- Generator: Adobe Illustrator 19.0.0, SVG Export Plug-In . SVG Version: 6.00 Build 0)  -->
<svg version="1.1" id="Layer_1" xmlns="http://www.w3.org/2000/svg" xmlns:xlink="http://www.w3.org/1999/xlink" x="0px" y="0px"
	 viewBox="0 0 511.999 511.999" style="enable-background:new 0 0 511.999 511.999;" xml:space="preserve">
<path style="fill:#E50F0F;" d="M262.155,369.439c0.155,0.013,174.98,0.097,176.102,0.097c35.1,0,63.543-28.792,63.543-64.323
	c0-35.512-28.445-64.31-63.543-64.31c-8.711,0-17.01,1.781-24.579,5.006c-5.031-57.976-53.057-103.443-111.649-103.443
	c-14.323,0-28.286,2.862-40.622,7.695c-4.802,1.877-6.087,3.812-6.125,7.563v204.106
	C255.338,365.771,258.345,369.047,262.155,369.439z"/>
<g>
	<path style="fill:#A80000;" d="M10.199,367.609C4.566,367.609,0,363.043,0,357.41v-97.121c0-5.633,4.566-10.199,10.199-10.199
		s10.199,4.566,10.199,10.199v97.121C20.398,363.043,15.832,367.609,10.199,367.609z"/>
	<path style="fill:#A80000;" d="M49.766,377.977c-5.633,0-10.199-4.566-10.199-10.199V249.115c0-5.633,4.566-10.199,10.199-10.199
		s10.199,4.566,10.199,10.199v118.662C59.965,373.411,55.399,377.977,49.766,377.977z"/>
	<path style="fill:#A80000;" d="M89.975,379.347c-5.633,0-10.199-4.566-10.199-10.199V219.081c0-5.633,4.566-10.199,10.199-10.199
		c5.633,0,10.199,4.566,10.199,10.199v150.067C100.175,374.78,95.608,379.347,89.975,379.347z"/>
	<path style="fill:#A80000;" d="M130.86,379.328c-5.633,0-10.199-4.566-10.199-10.199V189.597c0-5.633,4.566-10.199,10.199-10.199
		c5.633,0,10.199,4.566,10.199,10.199v179.533C141.059,374.762,136.493,379.328,130.86,379.328z"/>
	<path style="fill:#A80000;" d="M172.388,379.383c-5.633,0-10.199-4.566-10.199-10.199v-181.3c0-5.633,4.566-10.199,10.199-10.199
		s10.199,4.566,10.199,10.199v181.299C182.587,374.817,178.021,379.383,172.388,379.383z"/>
	<path style="fill:#A80000;" d="M214.539,379.588c-5.633,0-10.199-4.566-10.199-10.199V170.028c0-5.633,4.566-10.199,10.199-10.199
		c5.633,0,10.199,4.566,10.199,10.199v199.36C224.738,375.022,220.172,379.588,214.539,379.588z"/>
	<path style="fill:#A80000;" d="M438.258,379.734c-1.755,0-175.939-0.041-177.017-0.138c-0.043-0.003-0.085-0.007-0.126-0.012
		c-9.01-0.924-15.902-8.497-16.029-17.614c0-0.048-0.001-0.095-0.001-0.143V157.721c0-0.035,0-0.068,0-0.103
		c0.122-12.077,9.521-15.752,12.61-16.958c14.015-5.491,29.348-8.395,44.335-8.395c30.811,0,60.24,11.621,82.865,32.721
		c19.36,18.056,32.31,41.68,37.216,67.513c5.266-1.193,10.663-1.795,16.146-1.795c40.662,0,73.742,33.424,73.742,74.508
		C512,346.304,478.919,379.734,438.258,379.734z M265.482,359.245c23.935,0.021,171.298,0.092,172.776,0.092
		c29.413,0,53.344-24.28,53.344-54.124c0-29.836-23.93-54.11-53.344-54.11c-7.132,0-14.058,1.41-20.582,4.189
		c-3.008,1.28-6.446,1.043-9.248-0.638c-2.802-1.682-4.628-4.606-4.91-7.863c-4.656-53.661-48.287-94.126-101.487-94.126
		c-12.34,0-24.968,2.369-36.547,6.855v199.726H265.482z"/>
	<path style="fill:#A80000;" d="M394.709,349.832H288.637c-5.633,0-10.199-4.566-10.199-10.199c0-5.633,4.566-10.199,10.199-10.199
		h106.072c5.633,0,10.199,4.566,10.199,10.199C404.908,345.266,400.342,349.832,394.709,349.832z"/>
	<path style="fill:#A80000;" d="M436.526,349.832h-5.1c-5.633,0-10.199-4.566-10.199-10.199c0-5.633,4.566-10.199,10.199-10.199h5.1
		c5.633,0,10.199,4.566,10.199,10.199C446.725,345.266,442.159,349.832,436.526,349.832z"/>
</g>
<g>
</g>
<g>
</g>
<g>
</g>
<g>
</g>
<g>
</g>
<g>
</g>
<g>
</g>
<g>
</g>
<g>
</g>
<g>
</g>
<g>
</g>
<g>
</g>
<g>
</g>
<g>
</g>
<g>
</g>
</svg>
