<?xml version="1.0" encoding="UTF-8"?>
<!DOCTYPE svg PUBLIC "-//W3C//DTD SVG 1.1//EN" "http://www.w3.org/Graphics/SVG/1.1/DTD/svg11.dtd">
<!-- Creator: CorelDRAW 2017 -->
<svg xmlns="http://www.w3.org/2000/svg" xml:space="preserve" width="131.586mm" height="131.586mm" version="1.1" style="shape-rendering:geometricPrecision; text-rendering:geometricPrecision; image-rendering:optimizeQuality; fill-rule:evenodd; clip-rule:evenodd"
viewBox="0 0 93.6669 93.6671"
 xmlns:xlink="http://www.w3.org/1999/xlink">
 <defs>
  <style type="text/css">
   <![CDATA[
    .fil0 {fill:black}
   ]]>
  </style>
 </defs>
 <g id="Слой_x0020_1">
  <metadata id="CorelCorpID_0Corel-Layer"/>
  <path class="fil0" d="M76.9367 82.7093c-19.8137,16.6255 -49.3534,14.0412 -65.979,-5.7724 -16.6255,-19.8137 -14.041,-49.3534 5.7724,-65.979 19.8137,-16.6258 49.3534,-14.0412 65.979,5.7724 16.6255,19.8137 14.0412,49.3532 -5.7724,65.979zm1.3782 -62.2908l0 0c-1.3245,-1.5788 -2.7428,-3.032 -4.2392,-4.3598l13.4057 36.832c1.6687,-11.2283 -1.2956,-23.0924 -9.1665,-32.4721zm7.9717 37.9341l0 0 -23.2439 -13.4197 -11.2924 9.4753 -2.2063 -6.0617 7.9121 -6.6391 -29.0339 -16.7637 0 0 11.4683 31.5033 1.8224 -1.5292 2.2061 6.0616 -1.8225 1.5292 9.1671 25.187c7.8287,-0.8418 15.5009,-3.9376 21.986,-9.3792 6.4678,-5.427 10.8428,-12.4227 13.037,-19.9638zm-36.1303 -2.6069l-1.5016 1.26 -2.2061 -6.0617 1.5015 -1.26 2.2062 6.0617zm-3.0958 2.5977l-1.5472 1.2983 -2.2063 -6.0615 1.5474 -1.2985 2.2061 6.0617zm-1.4492 29.5696l0 0 -33.7508 -19.4871c1.0314,1.6665 2.1945,3.2796 3.491,4.8249 7.8412,9.3449 18.9558,14.322 30.2598,14.6622zm-38.0632 -28.9763l0 0 33.9278 19.5898 -22.524 -61.8838c-11.9139,10.9846 -15.9329,27.5692 -11.4038,42.2939zm14.3429 -44.7636l0 0 57.0333 32.9303 -13.4289 -36.8949c-13.7196,-6.9826 -30.7363,-5.8781 -43.6044,3.9646z"/>
 </g>
</svg>
