<svg id="Layer_2" data-name="Layer 2" xmlns="http://www.w3.org/2000/svg" viewBox="0 0 39.9 49.01"><defs><style>.cls-1{fill:#41a2ef;}</style></defs><title>apple-icon-hover</title><path class="cls-1" d="M33.4,27.5c-1.3-6.8,5.1-10.8,5.1-10.8a12.6,12.6,0,0,0-6.7-4.6c-4.2-.9-6.3.2-8.4,1.1a9.09,9.09,0,0,1-3.1.9c-3.1,0-5.3-3.2-11.1-1.8-4,1-8.2,5.6-9,11.1s0.9,12.6,4,18,6.4,7.5,8.7,7.5,4.6-1.6,7.3-2,4.4,1,7.1,1.8,3.6,0.1,6.7-2.6,5.9-10.2,5.9-10.2-5.2-1.7-6.5-8.4h0Z" transform="translate(0)"/><path class="cls-1" d="M27.4,7.7c3-3,2-7.7,2-7.7a13.78,13.78,0,0,0-7,3.7c-2.8,2.9-2.3,7.5-2.3,7.5a12.9,12.9,0,0,0,7.3-3.5h0Z" transform="translate(0)"/></svg>