<?xml version="1.0" encoding="UTF-8"?>
<!DOCTYPE svg PUBLIC "-//W3C//DTD SVG 1.1//EN" "http://www.w3.org/Graphics/SVG/1.1/DTD/svg11.dtd">
<!-- Creator: CorelDRAW 2017 -->
<svg xmlns="http://www.w3.org/2000/svg" xml:space="preserve" width="12.7mm" height="12.7mm" version="1.1" style="shape-rendering:geometricPrecision; text-rendering:geometricPrecision; image-rendering:optimizeQuality; fill-rule:evenodd; clip-rule:evenodd"
viewBox="0 0 12.7 12.7"
 xmlns:xlink="http://www.w3.org/1999/xlink">
 <defs>
  <style type="text/css">
   <![CDATA[
    .fil0 {fill:none}
    .fil3 {fill:#222222;fill-rule:nonzero}
    .fil1 {fill:black;fill-rule:nonzero;fill-opacity:0.078431}
    .fil2 {fill:black;fill-rule:nonzero;fill-opacity:0.121569}
   ]]>
  </style>
 </defs>
 <g id="Слой_x0020_1">
  <metadata id="CorelCorpID_0Corel-Layer"/>
  <g id="_2191855289728">
   <polygon class="fil0" points="-0,0 12.7,0 12.7,12.7 -0,12.7 "/>
   <path class="fil1" d="M4.7252 3.915c-0.1464,-0.1684 -0.2272,-0.3844 -0.2272,-0.6077 0,-0.5114 0.4147,-0.9261 0.9261,-0.9261 0.268,0 0.5229,0.1162 0.6987,0.3184l2.6458 3.0427c0.1464,0.1684 0.2272,0.3844 0.2272,0.6077 0,0.2232 -0.0808,0.4392 -0.2273,0.6077l-2.6458 3.0427c-0.1757,0.2021 -0.4306,0.3183 -0.6986,0.3183 -0.5114,0 -0.9261,-0.4147 -0.9261,-0.9261 0,-0.2233 0.0808,-0.4393 0.2274,-0.6077l2.1173 -2.4349 -2.1175 -2.435z"/>
   <path class="fil2" d="M4.9247 3.7412c-0.1044,-0.1202 -0.1621,-0.2745 -0.1621,-0.4339 0,-0.3653 0.2962,-0.6615 0.6615,-0.6615 0.1915,0 0.3737,0.0831 0.4993,0.2276l2.6458 3.0427c0.1044,0.1202 0.1621,0.2745 0.1621,0.4339 0,0.1593 -0.0577,0.3136 -0.1622,0.4338l-2.6458 3.0427c-0.1255,0.1445 -0.3077,0.2276 -0.4992,0.2276 -0.3653,0 -0.6615,-0.2962 -0.6615,-0.6615 0,-0.1594 0.0577,-0.3137 0.1622,-0.4339l2.2684 -2.6087 -2.2685 -2.6088z"/>
   <path class="fil3" d="M5.1244 3.5676c-0.0607,-0.0716 -0.0941,-0.1626 -0.0941,-0.2567 0,-0.2192 0.1777,-0.3969 0.3969,-0.3969 0.1132,0 0.2211,0.0484 0.2964,0.133l2.6458 3.0427c0.0627,0.0721 0.0973,0.1646 0.0973,0.2603 0,0.0956 -0.0346,0.1881 -0.0973,0.2603l-2.6458 3.0427c-0.0753,0.0845 -0.1832,0.1329 -0.2964,0.1329 -0.2192,0 -0.3969,-0.1777 -0.3969,-0.3969 0,-0.0941 0.0334,-0.1851 0.0942,-0.2568l2.4193 -2.7822 -2.4194 -2.7824z"/>
  </g>
 </g>
</svg>
