<?xml version="1.0" encoding="UTF-8"?>
<!DOCTYPE svg PUBLIC "-//W3C//DTD SVG 1.1//EN" "http://www.w3.org/Graphics/SVG/1.1/DTD/svg11.dtd">
<!-- Creator: CorelDRAW 2017 -->
<svg xmlns="http://www.w3.org/2000/svg" xml:space="preserve" width="207.249mm" height="22.4549mm" version="1.1" style="shape-rendering:geometricPrecision; text-rendering:geometricPrecision; image-rendering:optimizeQuality; fill-rule:evenodd; clip-rule:evenodd"
viewBox="0 0 207.2706 22.4573"
 xmlns:xlink="http://www.w3.org/1999/xlink">
 <defs>
  <style type="text/css">
   <![CDATA[
    .fil0 {fill:#fff}
    .fil1 {fill:#fff;fill-opacity:0.5}
   ]]>
  </style>
 </defs>
 <g id="Слой_x0020_1">
  <metadata id="CorelCorpID_0Corel-Layer"/>
  <g id="_2338092632528">
   <path class="fil0" d="M-0 0c36.9697,14.2732 78.4156,22.2714 122.1907,22.2714 29.653,0 58.2318,-3.68 85.0799,-10.4844l0 10.6703 -207.2706 0 0 -22.4573z"/>
   <path class="fil1" d="M207.2706 9.4654c-53.0238,-9.8387 -64.1827,11.35 -137.5419,12.9919l137.5419 0 0 -12.9919z"/>
   <path class="fil1" d="M1.9576 2.3813c13.26,0.0619 36.4651,2.7938 65.5737,9.659 53.8531,12.7013 115.2105,9.3715 122.618,8.3345 9.6511,-1.351 12.5247,1.5588 9.4863,2.0825l-122.1622 0c-63.3388,-1.1138 -75.5158,-20.076 -75.5158,-20.076z"/>
  </g>
 </g>
</svg>
