<?xml version="1.0" encoding="UTF-8"?>
<!DOCTYPE svg PUBLIC "-//W3C//DTD SVG 1.1//EN" "http://www.w3.org/Graphics/SVG/1.1/DTD/svg11.dtd">
<!-- Creator: CorelDRAW 2017 -->
<svg xmlns="http://www.w3.org/2000/svg" xml:space="preserve" width="152.069mm" height="94.138mm" version="1.1" style="shape-rendering:geometricPrecision; text-rendering:geometricPrecision; image-rendering:optimizeQuality; fill-rule:evenodd; clip-rule:evenodd"
viewBox="0 0 138.8456 85.9521"
 xmlns:xlink="http://www.w3.org/1999/xlink">
 <defs>
  <style type="text/css">
   <![CDATA[
    .fil0 {fill:#007cd8}
   ]]>
  </style>
 </defs>
 <g id="Слой_x0020_1">
  <metadata id="CorelCorpID_0Corel-Layer"/>
  <g id="_2557665215040">
   <path class="fil0" d="M99.1754 85.9521c16.4036,0 29.7526,-13.349 29.7526,-29.7526 0,-16.4036 -13.349,-29.7526 -29.7526,-29.7526l-66.1169 -0.0001c-1.8248,0 -3.3059,1.481 -3.3059,3.3059 0,1.8248 1.481,3.3059 3.3059,3.3059l66.1169 0c12.7606,0 23.1409,10.3804 23.1409,23.1409 0,12.7605 -10.3804,23.1409 -23.1409,23.1409 -1.8248,0 -3.3059,1.481 -3.3059,3.3059 0,1.8248 1.481,3.3059 3.3059,3.3059z"/>
   <path class="fil0" d="M99.1754 72.7286c9.1142,0 16.5292,-7.415 16.5292,-16.5292 0,-9.1142 -7.415,-16.5292 -16.5292,-16.5292 -1.8248,0 -3.3059,1.481 -3.3059,3.3059 0,1.8248 1.481,3.3059 3.3059,3.3059 5.4679,0 9.9176,4.4496 9.9176,9.9176 0,5.4679 -4.4496,9.9176 -9.9176,9.9176 -5.4679,0 -9.9176,-4.4496 -9.9176,-9.9176 0,-1.8248 -1.481,-3.3059 -3.3059,-3.3059 -1.8248,0 -3.3059,1.481 -3.3059,3.3059 0.0001,9.1141 7.4151,16.5291 16.5293,16.5291z"/>
   <path class="fil0" d="M79.3404 39.6702l-19.835 0c-1.8248,0 -3.3059,1.481 -3.3059,3.3059 0,1.8248 1.481,3.3059 3.3059,3.3059l19.835 0c1.8248,0 3.3059,-1.481 3.3059,-3.3059 0,-1.8248 -1.481,-3.3059 -3.3059,-3.3059z"/>
   <path class="fil0" d="M3.3059 6.6117l102.4813 0c1.8248,0 3.3059,-1.481 3.3059,-3.3059 0,-1.8248 -1.481,-3.3059 -3.3059,-3.3059l-102.4813 0c-1.8248,0 -3.3059,1.481 -3.3059,3.3059 0,1.8248 1.481,3.3059 3.3059,3.3059z"/>
   <path class="fil0" d="M13.2234 16.5293c0,1.8248 1.481,3.3059 3.3059,3.3059l119.0104 0c1.8248,0 3.3059,-1.481 3.3059,-3.3059 0,-1.8248 -1.481,-3.3059 -3.3059,-3.3059l-119.0104 0c-1.8248,0 -3.3059,1.481 -3.3059,3.3059z"/>
  </g>
 </g>
</svg>
