<?xml version="1.0" encoding="UTF-8"?>
<!DOCTYPE svg PUBLIC "-//W3C//DTD SVG 1.1//EN" "http://www.w3.org/Graphics/SVG/1.1/DTD/svg11.dtd">
<!-- Creator: CorelDRAW 2017 -->
<svg xmlns="http://www.w3.org/2000/svg" xml:space="preserve" width="135.466mm" height="135.467mm" version="1.1" style="shape-rendering:geometricPrecision; text-rendering:geometricPrecision; image-rendering:optimizeQuality; fill-rule:evenodd; clip-rule:evenodd"
viewBox="0 0 135.4658 135.4666"
 xmlns:xlink="http://www.w3.org/1999/xlink">
 <defs>
  <style type="text/css">
   <![CDATA[
    .fil0 {fill:#006DF0}
    .fil1 {fill:#ffffff}
   ]]>
  </style>
 </defs>
 <g id="Слой_x0020_1">
  <metadata id="CorelCorpID_0Corel-Layer"/>
  <g id="_2476525282464">
   <path id="Дочерний_x0020_Кривая_x0020_-_x0020_Слой_x0020_1_x0020__x0020_" class="fil0" d="M67.7318 0c-37.4068,0 -67.7318,30.3258 -67.7318,67.7326 0,37.4059 30.325,67.734 67.7318,67.734 37.4068,0 67.734,-30.3281 67.734,-67.734 0,-37.4068 -30.3272,-67.7326 -67.734,-67.7326z"/>
   <path id="Дочерний_x0020_Кривая_x0020_-_x0020_Слой_x0020_1_x0020__x0020__0" class="fil1" d="M67.7331 23.7909l40.0818 24.9938 -80.1636 0 40.0818 -24.9938zm40.5813 64.9058l-0.0041 0c0,4.009 -3.249,7.2575 -7.2575,7.2575l-66.6394 0c-4.009,0 -7.2575,-3.249 -7.2575,-7.2575l0 -38.3216c0,-0.424 0.0433,-0.8363 0.1138,-1.2413l38.2959 23.8799c0.047,0.0294 0.0971,0.0492 0.1454,0.0763 0.0506,0.028 0.1021,0.0551 0.1535,0.0808 0.2705,0.1395 0.5491,0.252 0.834,0.3256 0.0294,0.0081 0.0587,0.0117 0.0881,0.0185 0.3125,0.0736 0.629,0.1197 0.9451,0.1197l0.0023 -0.0001c0.0023,0 0.0045,0 0.0045,0 0.3161,0 0.6326,-0.0447 0.9451,-0.1197 0.0294,-0.0072 0.0587,-0.0104 0.0881,-0.0185 0.2845,-0.0736 0.5622,-0.186 0.834,-0.3256 0.0515,-0.0257 0.103,-0.0528 0.1535,-0.0808 0.0479,-0.0271 0.0984,-0.047 0.1454,-0.0763l38.2959 -23.8799c0.0704,0.405 0.1138,0.8164 0.1138,1.2413l0.0001 38.3217z"/>
  </g>
  <g id="_2476525283392">
  </g>
  <g id="_2476525283744">
  </g>
  <g id="_2476525283968">
  </g>
  <g id="_2476525282592">
  </g>
  <g id="_2476525284320">
  </g>
  <g id="_2476525285600">
  </g>
  <g id="_2476525284512">
  </g>
  <g id="_2476525284704">
  </g>
  <g id="_2476525285152">
  </g>
  <g id="_2476525285440">
  </g>
  <g id="_2476525285888">
  </g>
  <g id="_2476525286944">
  </g>
  <g id="_2476525287232">
  </g>
  <g id="_2476525287008">
  </g>
  <g id="_2476525287776">
  </g>
 </g>
</svg>
