<svg id="Layer_2" data-name="Layer 2" xmlns="http://www.w3.org/2000/svg" viewBox="0 0 39.9 43.07"><defs><style>.cls-1{fill:#41a2ef;}</style></defs><title>google-icon-hover</title><path class="cls-1" d="M29.5,28.06c5-2.8,8.9-4.9,9.2-5.1,1-.6,2.1-2,0-3.2-0.7-.4-4.4-2.4-9.3-5.1l-6.5,6.7Z" transform="translate(0 0.01)"/><path class="cls-1" d="M22.9,21.36L1.7,43a2.83,2.83,0,0,0,1.7-.4c1.4-.8,16.1-8.9,26.1-14.5Z" transform="translate(0 0.01)"/><path class="cls-1" d="M22.9,21.36l6.6-6.7S4.9,1.06,3.4.26A2.82,2.82,0,0,0,1.6.06Z" transform="translate(0 0.01)"/><path class="cls-1" d="M22.9,21.36L1.6,0.06c-0.9.2-1.6,1-1.6,2.5,0,2.5.2,35.8,0.2,37.9,0,1.4.6,2.5,1.6,2.6Z" transform="translate(0 0.01)"/></svg>