<?xml version="1.0" encoding="UTF-8"?>
<!DOCTYPE svg PUBLIC "-//W3C//DTD SVG 1.1//EN" "http://www.w3.org/Graphics/SVG/1.1/DTD/svg11.dtd">
<!-- Creator: CorelDRAW 2017 -->
<svg xmlns="http://www.w3.org/2000/svg" xml:space="preserve" width="217.052mm" height="332.625mm" version="1.1" style="shape-rendering:geometricPrecision; text-rendering:geometricPrecision; image-rendering:optimizeQuality; fill-rule:evenodd; clip-rule:evenodd"
viewBox="0 0 216.7925 332.2276"
 xmlns:xlink="http://www.w3.org/1999/xlink">
 <defs>
  <style type="text/css">
   <![CDATA[
    .fil1 {fill:#fff}
    .fil3 {fill:#fff;fill-rule:nonzero;fill-opacity:0.5}
    .fil0 {fill:#fff;fill-opacity:0.75}
    .fil2 {fill:#fff;fill-rule:nonzero;fill-opacity:0.75}
   ]]>
  </style>
 </defs>
 <g id="Слой_x0020_1">
  <metadata id="CorelCorpID_0Corel-Layer"/>
  <path class="fil0" d="M106.2384 0l-13.1599 23.0821c-16.2633,28.4898 -30.2766,50.2284 -42.9681,71.4238 4.1885,0.4802 7.0746,1.0803 10.0602,2.0795 5.5619,1.8595 10.6725,5.0557 14.0611,9.8438 1.0434,1.4728 1.8746,3.0448 2.5504,4.6881 9.1271,-15.2612 19.1399,-31.1244 30.4746,-50.1269 11.5837,17.7035 22.9391,33.9849 33.163,49.9701 2.4841,-5.3791 6.7001,-9.9459 11.9827,-12.5322 3.9957,-1.9571 8.3755,-3.0747 13.669,-3.7463 0.4394,-0.0552 0.8988,-0.0909 1.3738,-0.1363 -15.0604,-23.5998 -31.8389,-46.4244 -47.3616,-71.8561l-13.8451 -22.6896zm-66.6782 112.6272c-1.2304,2.1899 -2.4401,4.4058 -3.6472,6.6289 2.8297,0.8312 5.9815,3.0292 7.4516,5.3928l0.0166 0 0 0.0191c0.4735,0.7639 1.3351,2.629 1.6078,4.1184 0.2752,1.489 0.2368,2.3301 0.2368,3.1764 0,1.722 -0.9539,5.7533 -1.6875,7.2181 -1.2156,2.4253 -2.278,3.6733 -3.7068,5.3735 -2.3963,2.8505 -8.261,11.2503 -12.0791,17.5709 -11.2537,18.6252 -17.022,36.4633 -18.2193,55.6765 -0.197,3.16 0.0274,13.7487 0.2353,15.5711 0.8203,7.2507 2.2818,13.8849 4.3134,19.8271 3.8609,11.2835 11.438,24.6043 19.984,34.8681 17.7581,21.3229 39.8945,32.7276 66.5608,34.4771 1.5402,0.1003 3.5634,0.2092 4.1568,0.2353l0.0179 0c1.4271,0.0592 10.9202,-0.1251 13.2574,-0.3136 10.8033,-0.8771 20.3514,-3.1384 28.2392,-6.4924 5.3887,-2.2904 13.7529,-7.2632 20.5139,-12.3932 3.9915,-3.031 6.1733,-4.933 9.884,-8.6493 16.547,-16.5731 26.6949,-36.0862 29.7107,-56.3827 0.6952,-4.674 0.8425,-6.7882 0.9415,-12.5499 0.1995,-11.6936 -1.1149,-21.7538 -4.2363,-32.6134 -4.1899,-14.583 -12.7303,-31.2317 -21.435,-42.0269 -3.3952,-4.2132 -5.4435,-6.8984 -7.0002,-9.983 -1.562,-3.094 -2.5476,-6.1166 -2.7664,-9.7655l0 -0.0191c-0.0496,-0.8397 -0.2628,-1.3351 0.0797,-3.5112 0.3414,-2.1762 2.7212,-5.5401 3.2153,-6.001l0.0222 0c2.0451,-1.9051 4.6535,-2.8079 6.8255,-3.1177 -1.0476,-1.8952 -2.1199,-3.7755 -3.1974,-5.6485 -4.8297,-0.0881 -9.4875,-0.0772 -10.4138,0.0398 -4.2378,0.5367 -5.7202,0.9785 -7.7656,1.9806 -3.0172,1.4767 -3.335,1.8569 -3.8251,5.7465 -0.2491,1.9944 0.2191,8.2416 1.236,11.7666 1.2593,4.3576 2.3756,6.5006 8.7871,16.2771 6.4277,9.8029 9.7117,15.801 14.0213,25.6504 7.1916,16.4399 10.5651,27.9905 11.57,40.674 0.4419,5.5563 0.2392,12.1013 -0.5479,17.5325 -2.0204,13.9399 -8.8321,27.6861 -19.004,39.4583 -2.9246,3.3858 -7.0912,7.5069 -10.4728,10.2169 -13.2587,10.6271 -28.1377,16.9959 -44.8112,19.1608 -5.7656,0.7445 -13.8343,0.7104 -19.5918,0 -13.5931,-1.6779 -25.7713,-6.1454 -36.7317,-13.5714 -12.3794,-8.3875 -22.4103,-20.1998 -29.1424,-34.1426 -3.6926,-7.6514 -6.0795,-14.9738 -7.2162,-22.4353 -0.764,-5.0168 -0.8658,-11.6112 -0.4515,-16.7876 1.1368,-14.1369 5.7161,-28.9415 13.9041,-46.3614 3.5003,-7.4421 5.8304,-11.5974 10.2764,-18.3552 4.0754,-6.1952 5.2702,-8.1937 7.0415,-11.7863l0 -0.0191c3.167,-6.4266 4.3728,-11.31 4.3921,-15.4734 0.011,-3.1849 -0.5891,-4.6289 -1.2554,-5.5703 -0.666,-0.9416 -1.7438,-1.9105 -4.6479,-2.8824 -2.5891,-0.8671 -3.668,-1.0556 -10.0602,-1.588 -1.1342,-0.0952 -2.8093,-0.1639 -4.5887,-0.2163l0.0025 0zm145.5728 12.6682c-0.1941,0.5838 -0.0577,0.5658 -0.0384,0.4309 0.0053,-0.0658 0.0275,-0.304 0.0384,-0.4309z"/>
  <path class="fil1" d="M104.3844 332.1921c-0.8023,-0.0357 -2.772,-0.1502 -4.3756,-0.2548 -29.0761,-1.9077 -53.956,-14.7753 -73.169,-37.8452 -9.3209,-11.1911 -17.3441,-25.2044 -21.667,-37.8451 -2.2795,-6.663 -3.8721,-13.9621 -4.7597,-21.8158 -0.2565,-2.2691 -0.4117,-7.1408 -0.413,-11.4248 -0.0007,-2.244 0.0409,-4.3268 0.1321,-5.7899 1.2939,-20.7588 7.6487,-40.2441 19.5558,-59.9513 4.0658,-6.7307 9.7598,-14.9918 12.9396,-18.7739 1.0926,-1.2994 2.0905,-2.7061 2.4992,-3.5236 0.636,-1.2692 0.6801,-1.4685 0.6801,-3.0087 0,-1.4151 -0.062,-1.7481 -0.4281,-2.34 -0.9289,-1.4947 -2.6124,-1.7509 -6.1056,-0.9264 -2.6883,0.6332 -4.6508,0.6663 -5.7382,0.0966 -0.4309,-0.2259 -0.8506,-0.592 -0.9331,-0.8136 -0.2726,-0.7255 -0.4199,-9.1792 -0.2106,-12.0753 0.6001,-8.2818 2.2997,-11.5644 6.4855,-12.5181 1.6419,-0.3732 11.1721,-0.3249 16.0501,0.0814 6.5834,0.5489 9.0069,0.9538 12.2662,2.0437 8.4637,2.8326 12.3614,8.3381 12.3258,17.4156 -0.0236,5.9598 -1.7575,12.3117 -5.354,19.6055 -1.9228,3.9034 -3.4823,6.5239 -7.6197,12.8142 -4.3248,6.5735 -6.2093,9.9389 -9.6169,17.1882 -7.8911,16.7852 -12.0312,30.4623 -13.0471,43.1044 -0.3164,3.9517 -0.1321,11.354 0.3662,14.6214 0.9813,6.4404 3.0282,12.7538 6.4058,19.7485 6.0436,12.5196 15.0149,23.0504 25.9437,30.4556 9.7778,6.6247 20.2812,10.4977 32.5901,12.0157 3.8114,0.4707 13.6277,0.4735 17.2352,0.007 15.11,-1.9616 28.0605,-7.5041 40.1245,-17.1731 2.3799,-1.908 6.9676,-6.3841 9.2536,-9.0306 9.1352,-10.5735 15.103,-22.8742 16.8098,-34.6536 0.6413,-4.4252 0.8355,-10.8226 0.4708,-15.4307 -0.9183,-11.552 -3.821,-21.6628 -10.8118,-37.6429 -4.1856,-9.5701 -6.9714,-14.6669 -13.2612,-24.2577 -6.5214,-9.9456 -8.4305,-13.5586 -9.953,-18.8317 -1.4218,-4.9192 -2.0645,-11.417 -1.5427,-15.5671 0.783,-6.2241 3.6804,-10.3984 9.0358,-13.0206 3.0197,-1.4795 5.9379,-2.26 10.7029,-2.8643 4.1279,-0.5229 16.492,-0.3922 22.6484,0.241l1.0708 0.1085 0.6814 1.4852c1.7438,3.7963 2.7995,8.816 3.0363,14.4342 0.1199,2.834 -0.1596,7.1574 -0.5049,7.8016 -0.1019,0.1914 -0.5687,0.5187 -1.0367,0.7265 -1.1603,0.5162 -3.0045,0.4764 -5.7272,-0.1237 -3.1093,-0.6857 -4.8312,-0.6001 -5.7822,0.2876 -0.4031,0.3746 -0.4211,0.4873 -0.3263,2.0686 0.1089,1.8252 0.7805,4.143 1.7703,6.1018 0.9013,1.7865 2.6729,4.2667 5.9336,8.3132 9.7188,12.0544 18.5798,29.3984 23.159,45.3356 3.3612,11.6968 4.8107,22.8482 4.5986,35.3639 -0.1033,5.9446 -0.3249,8.8391 -1.057,13.7693 -3.3379,22.468 -14.5442,43.8243 -32.3506,61.6596 -3.9047,3.9104 -6.6289,6.2942 -10.8585,9.504 -7.3459,5.5758 -15.9924,10.7797 -22.5248,13.556 -8.9974,3.8265 -19.5033,6.2528 -31.1475,7.1972 -3.2579,0.2642 -11.7244,0.4706 -14.4494,0.3523l0 -0.0013z"/>
  <path class="fil2" d="M162.2479 227.2064c-7.7188,12.2099 -15.7926,20.2013 -28.241,26.5836 -12.817,6.571 -9.5246,25.5486 5.3048,19.4662 12.0861,-4.9563 25.1589,-20.8809 29.317,-29.1145 11.409,-22.5938 2.3012,-30.6701 -6.3808,-16.9353z"/>
  <path class="fil3" d="M143.2538 222.7332c-3.1011,4.9066 -6.3452,8.118 -11.3472,10.682 -5.149,2.6398 -3.8276,10.2652 2.1307,7.8205 4.8576,-1.9915 10.1098,-8.3903 11.7807,-11.6978 4.5834,-9.0784 0.9235,-12.3227 -2.5641,-6.8048z"/>
 </g>
</svg>
