<?xml version="1.0" encoding="UTF-8"?>
<!DOCTYPE svg PUBLIC "-//W3C//DTD SVG 1.1//EN" "http://www.w3.org/Graphics/SVG/1.1/DTD/svg11.dtd">
<!-- Creator: CorelDRAW 2017 -->
<svg xmlns="http://www.w3.org/2000/svg" xml:space="preserve" width="204.173mm" height="204.186mm" version="1.1" style="shape-rendering:geometricPrecision; text-rendering:geometricPrecision; image-rendering:optimizeQuality; fill-rule:evenodd; clip-rule:evenodd"
viewBox="0 0 204.1726 204.1856"
 xmlns:xlink="http://www.w3.org/1999/xlink">
 <defs>
  <style type="text/css">
   <![CDATA[
    .fil0 {fill:#222}
    .fil1 {fill:#222;fill-opacity:0.5}
   ]]>
  </style>
 </defs>
 <g id="Слой_x0020_1">
  <metadata id="CorelCorpID_0Corel-Layer"/>
  <g id="_2786359205168">
   <path class="fil0" d="M102.0863 62.7178c-8.5427,0.0205 -16.8427,2.8448 -23.625,8.0391l-6.93 5.25 6.93 5.25c11.5254,8.5288 13.9547,24.7862 5.426,36.3115 -1.5299,2.0676 -3.3584,3.8961 -5.426,5.426l-6.93 5.25 6.93 5.25c6.7905,5.1708 15.0896,7.9718 23.625,7.9734 21.7461,0 39.375,-17.6289 39.375,-39.375 0,-21.7461 -17.6289,-39.375 -39.375,-39.375zm0 65.625c-3.0007,0.0008 -5.978,-0.5303 -8.7938,-1.5684 11.7251,-14.3657 11.7251,-34.9974 0,-49.3631 2.8157,-1.0381 5.793,-1.5693 8.7938,-1.5684 14.4974,0 26.25,11.7526 26.25,26.25 0,14.4973 -11.7526,26.2499 -26.25,26.2499z"/>
   <path class="fil1" d="M174.2738 72.1875l0 -42.2822 -42.2887 0 -29.8988 -29.9053 -29.8988 29.9053 -42.2887 0 0 42.2822 -29.8988 29.9053 29.8988 29.9053 0 42.2822 42.2887 0 29.8988 29.9053 29.8988 -29.9053 42.2887 0 0 -42.2822 29.8988 -29.9053 -29.8988 -29.9053zm-13.125 54.3769l0 34.5909 -34.5975 0 -24.465 24.4716 -24.465 -24.4716 -34.5975 0 0 -34.5909 -24.465 -24.4716 24.465 -24.4716 0 -34.5909 34.5975 0 24.465 -24.4716 24.465 24.4716 34.5975 0 0 34.5909 24.465 24.4716 -24.465 24.4716z"/>
  </g>
 </g>
</svg>
