<svg xmlns="http://www.w3.org/2000/svg" xmlns:xlink="http://www.w3.org/1999/xlink" xmlns:fi="http://pattern.flaticon.com/" x="0" y="0" width="700" height="350" viewBox="0 0 700 350"><rect x="0px" y="0px" width="100%" height="100%" opacity="0" fill="#ffffff"/><defs><path d="M192.008,32.2L192,8c0-4.416-3.584-8-8-8c-4.416,0-8,3.584-8,8v24.2C78.24,36.408,0,117.224,0,216c0,4.416,3.584,8,8,8    c18.176,0,27.632-10.312,35.216-18.6c6.864-7.48,12.28-13.4,23.416-13.4c11.144,0,16.56,5.912,23.424,13.4    c6.216,6.784,13.76,14.824,26.224,17.56c1.128,0.608,2.36,1.04,3.72,1.04c0.488,0,0.904-0.192,1.368-0.272    c1.288,0.112,2.528,0.272,3.92,0.272c18.184,0,27.64-10.312,35.232-18.592c4.984-5.44,9.232-10.008,15.44-12.128V328    c0,0.312,0.016,0.624,0.056,0.928C176.504,350.552,194.256,368,216,368c22.056,0,40-17.944,40-40c0-4.416-3.576-8-8-8    s-8,3.584-8,8c0,13.232-10.768,24-24,24s-24-10.768-24-24c0-0.28-0.008-0.56-0.04-0.832V193.28    c6.2,2.12,10.448,6.688,15.424,12.12c7.592,8.288,17.04,18.6,35.224,18.6c1.416,0,2.688-0.168,4-0.288    c0.464,0.096,0.896,0.288,1.392,0.288c1.392,0,2.632-0.448,3.776-1.072c12.376-2.768,19.888-10.768,26.08-17.512    C284.72,197.92,290.152,192,301.312,192c11.16,0,16.576,5.92,23.448,13.408C332.36,213.696,341.816,224,360,224    c4.424,0,8-3.584,8-8C368,117.232,289.768,36.416,192.008,32.2z M112.144,204.208c-3.68-2.416-6.8-5.8-10.288-9.608    c-7.592-8.288-17.04-18.6-35.224-18.6c-18.184,0-27.624,10.312-35.216,18.592c-4.92,5.368-9.096,9.928-15.168,12.08    C20.656,126.448,81.664,61.24,159.88,49.92C140.552,71.304,114.312,116.32,112.144,204.208z M219.176,194.6    c-7.592-8.288-17.032-18.6-35.216-18.6s-27.64,10.312-35.24,18.592c-6.224,6.8-11.32,12.248-20.528,13.208    C130.208,97.744,171.44,58.776,184,49.52c12.616,9.304,53.8,48.296,55.808,158.288C230.536,206.88,225.424,201.416,219.176,194.6z     M336.552,194.6c-7.6-8.288-17.048-18.6-35.24-18.6c-18.2,0-27.656,10.312-35.256,18.592c-3.456,3.776-6.56,7.144-10.2,9.56    C253.68,116.304,227.448,71.304,208.12,49.92c78.208,11.32,139.216,76.536,143.624,156.752    C345.664,204.528,341.48,199.968,336.552,194.6z" transform="matrix(0.11338394708947713 -0.11338394708947713 0.11338394708947713 0.11338394708947713 -5.725291456043976 9.000001072883606)" id="L1_0" fill="#ffffff"/><path d="M331.314,192.002h28.688c4.416,0,8-3.584,8-8c0-4.416-3.584-8-8-8h-28.68l34.336-34.336c3.128-3.136,3.128-8.192,0-11.32    s-8.184-3.128-11.312,0l-45.656,45.656H203.322l72-72h68.68c4.416,0,8-3.584,8-8s-3.584-8-8-8h-52.688l26.344-26.344    c3.128-3.128,3.128-8.184,0-11.312s-8.184-3.128-11.312,0L280.002,76.69V24.002c0-4.416-3.584-8-8-8c-4.416,0-8,3.584-8,8V92.69    l-72,72V59.322l45.664-45.664c3.128-3.128,3.128-8.184,0-11.312s-8.184-3.128-11.312,0L192.002,36.69V8.002c0-4.416-3.584-8-8-8    c-4.416,0-8,3.584-8,8v28.68L141.666,2.346c-3.128-3.128-8.184-3.128-11.312,0s-3.128,8.184,0,11.312l45.648,45.656V164.69l-72-72    V24.002c0-4.416-3.584-8-8-8s-8,3.584-8,8V76.69L61.658,50.346c-3.128-3.128-8.184-3.128-11.312,0s-3.128,8.184,0,11.312    L76.69,88.002H24.002c-4.416,0-8,3.584-8,8s3.584,8,8,8H92.69l72,72H59.314l-45.656-45.656c-3.128-3.128-8.184-3.128-11.312,0    s-3.128,8.184,0,11.312l34.336,34.344H8.002c-4.416,0-8,3.584-8,8s3.584,8,8,8H36.69L2.346,226.346    c-3.128,3.128-3.128,8.184,0,11.312c1.56,1.56,3.608,2.344,5.656,2.344s4.096-0.784,5.656-2.344l45.664-45.656h105.376l-72,72    H24.002c-4.416,0-8,3.584-8,8c0,4.416,3.584,8,8,8H76.69l-26.344,26.344c-3.128,3.128-3.128,8.184,0,11.312    c1.56,1.56,3.608,2.344,5.656,2.344c2.048,0,4.096-0.784,5.656-2.344l26.344-26.344v52.688c0,4.416,3.584,8,8,8s8-3.584,8-8    v-68.688l72-72V308.69l-45.656,45.656c-3.128,3.128-3.128,8.184,0,11.312c3.128,3.128,8.184,3.128,11.312,0l34.344-34.336v28.68    c0,4.416,3.584,8,8,8s8-3.584,8-8v-28.688l34.344,34.344c1.56,1.56,3.608,2.344,5.656,2.344c2.048,0,4.096-0.784,5.656-2.344    c3.128-3.128,3.128-8.184,0-11.312l-45.656-45.664V203.314l72,72v68.688c0,4.416,3.584,8,8,8c4.416,0,8-3.584,8-8v-52.688    l26.344,26.344c1.56,1.56,3.608,2.344,5.656,2.344c2.048,0,4.096-0.784,5.656-2.344c3.128-3.128,3.128-8.184,0-11.312    l-26.344-26.344h52.688c4.416,0,8-3.584,8-8c0-4.416-3.584-8-8-8h-68.688l-72-72H308.69l45.664,45.664    c1.552,1.552,3.6,2.336,5.648,2.336c2.048,0,4.096-0.784,5.656-2.344c3.128-3.128,3.128-8.184,0-11.312L331.314,192.002z" transform="matrix(0.16304171085357666 0 0 0.16304171085357666 9 142)" id="L1_1" fill="#ffffff"/><g transform="matrix(0.16304348409175873 0 0 0.16304348409175873 177 -21)" id="L1_2"><path d="M184,0c-4.416,0-8,3.584-8,8v48c0,4.416,3.576,8,8,8c4.416,0,8-3.584,8-8V8C192,3.584,188.416,0,184,0z" fill="#ffffff"/><path d="M184,304c-4.416,0-8,3.584-8,8v48c0,4.416,3.584,8,8,8s8-3.584,8-8v-48C192,307.584,188.416,304,184,304z" fill="#ffffff"/><path d="M360,176h-48c-4.424,0-8,3.584-8,8c0,4.416,3.584,8,8,8h48c4.416,0,8-3.584,8-8C368,179.584,364.416,176,360,176z" fill="#ffffff"/><path d="M56,176H8c-4.416,0-8,3.584-8,8s3.576,8,8,8h48c4.416,0,8-3.584,8-8C64,179.584,60.416,176,56,176z" fill="#ffffff"/><path d="M317.656,306.344l-40-40c-3.128-3.128-8.184-3.128-11.312,0s-3.128,8.184,0,11.312l40,40    c1.56,1.56,3.608,2.344,5.656,2.344c2.048,0,4.096-0.784,5.656-2.344C320.784,314.528,320.784,309.472,317.656,306.344z" fill="#ffffff"/><path d="M101.656,90.344l-40-40c-3.128-3.128-8.184-3.128-11.312,0s-3.128,8.184,0,11.312l40,40C91.904,103.216,93.952,104,96,104    c2.048,0,4.096-0.784,5.656-2.344C104.784,98.528,104.784,93.472,101.656,90.344z" fill="#ffffff"/><path d="M101.656,266.344c-3.128-3.128-8.184-3.128-11.312,0l-40,40c-3.128,3.128-3.128,8.184,0,11.312    C51.904,319.216,53.952,320,56,320c2.048,0,4.096-0.784,5.656-2.344l40-40C104.784,274.528,104.784,269.472,101.656,266.344z" fill="#ffffff"/><path d="M317.656,50.344c-3.128-3.128-8.184-3.128-11.312,0l-40,40c-3.128,3.128-3.128,8.184,0,11.312    c1.56,1.56,3.608,2.344,5.656,2.344c2.048,0,4.096-0.784,5.656-2.344l40-40C320.784,58.528,320.784,53.472,317.656,50.344z" fill="#ffffff"/><path d="M184,96c-48.52,0-88,39.48-88,88s39.48,88,88,88s88-39.48,88-88C272,135.48,232.52,96,184,96z M184,256    c-39.696,0-72-32.304-72-72s32.304-72,72-72s72,32.304,72,72S223.696,256,184,256z" fill="#ffffff"/></g><path d="M301.536,160.28C290.36,104.96,241.056,64,184,64c-57.064,0-106.36,40.96-117.528,96.28C29.352,163.12,0,194.168,0,232    c0,39.696,32.304,72,72,72h224c39.704,0,72-32.304,72-72C368,194.168,338.656,163.128,301.536,160.28z M296,288H72    c-30.88,0-56-25.12-56-56s25.12-56,55.6-56.072c0.088,0.016,0.184,0.016,0.28,0.024c0.04,0.008,0.072,0.032,0.112,0.04    c0.064,0.008,0.12-0.016,0.184-0.008c0.32,0.04,0.632,0.096,0.952,0.096c4.168,0,8.456,0.544,12.752,1.624    c0.312,0.136,0.64,0.248,0.976,0.336c14.08,3.84,26.352,13.312,33.664,25.968c2.2,3.816,7.088,5.136,10.928,2.92    c3.824-2.208,5.136-7.104,2.92-10.928c-9.208-15.936-24.528-27.936-42.168-33.072c-0.368-0.168-0.752-0.304-1.152-0.408    c-2.8-0.752-5.6-1.32-8.4-1.72C93.328,114.184,135.448,80,184,80c48.544,0,90.672,34.184,101.36,80.792    c-2.8,0.408-5.6,0.968-8.4,1.72c-0.392,0.104-0.768,0.24-1.136,0.4c-17.64,5.136-32.968,17.144-42.184,33.08    c-2.208,3.832-0.896,8.72,2.928,10.928c3.808,2.216,8.712,0.896,10.928-2.92c7.312-12.656,19.576-22.12,33.656-25.968    c0.328-0.096,0.656-0.2,0.968-0.336c4.296-1.08,8.584-1.624,12.768-1.624c0.528,0,0.616,0.024,1.12-0.08c30.872,0,56,25.12,56,56    S326.872,288,296,288z" transform="matrix(0.11610422059620364 -0.11610422059620364 0.11610422059620364 0.11610422059620364 82.27364789348067 76.0000010728836)" id="L1_3" fill="#ffffff"/><g transform="matrix(0.11839883200639437 -0.11839883200639437 0.11839883200639437 0.11839883200639437 250.43136270943782 256.9992007322429)" id="L1_4"><path d="M344.856,163.234c5.664-6.52,10.304-14.224,14.504-24.056c1.008-2.376,0.816-5.096-0.528-7.304    c-1.344-2.208-3.672-3.624-6.248-3.816c-8.712-0.64-15.608-3.224-23.328-6.936C304.192,109.29,288,83.746,288,56.034    c0-8.32,2.392-17.72,7.304-28.744c1.064-2.376,0.896-5.128-0.44-7.36c-1.336-2.24-3.672-3.68-6.28-3.872    c-1.672-0.128-4.128-0.096-6.312-0.056L280,16.034c-27.696,0-53.368,13.04-69.944,34.936c-8.528-1.912-17.264-2.936-26.056-2.936    c-57.064,0-106.36,40.96-117.528,96.28C29.352,147.154,0,178.202,0,216.034c0,39.696,32.304,72,72,72h32c4.416,0,8-3.584,8-8    c0-4.416-3.584-8-8-8H72c-30.88,0-56-25.12-56-56s25.12-56,55.6-56.072c0.088,0.016,0.184,0.016,0.28,0.024    c0.04,0.008,0.072,0.032,0.112,0.04c0.368,0.056,0.736,0.08,1.104,0.08c0.008,0,0.024,0,0.032,0c4.168,0,8.456,0.544,12.752,1.624    c0.312,0.136,0.64,0.248,0.976,0.336c14.08,3.84,26.352,13.312,33.664,25.968c2.2,3.816,7.096,5.128,10.928,2.92    c3.824-2.208,5.136-7.104,2.92-10.928C125.16,164.09,109.84,152.09,92.2,146.954c-0.368-0.168-0.752-0.304-1.152-0.408    c-2.8-0.752-5.6-1.32-8.4-1.72c10.68-46.608,52.8-80.792,101.352-80.792c5.696,0,11.36,0.52,16.944,1.456    C195.088,77.426,192,90.546,192,104.034c0,33.872,19.792,65.096,50.376,79.528c11.688,5.624,24.344,8.472,37.624,8.472    c19.304,0,37.888-6.336,53.064-17.88C345,184.722,352,199.962,352,216.034c0,30.88-25.12,56-56,56h-32c-4.416,0-8,3.584-8,8    c0,4.416,3.584,8,8,8h32c39.696,0,72-32.304,72-72C368,195.898,359.472,176.77,344.856,163.234z M327.712,157.906    c-13.104,11.688-30.048,18.128-47.712,18.128c-10.856,0-21.184-2.32-30.744-6.912C224.192,157.29,208,131.746,208,104.034    c0-14.184,4.128-27.896,11.96-39.664c12.672-19.192,33.512-31.056,56.296-32.232C273.4,40.698,272,48.594,272,56.034    c0,33.872,19.792,65.096,50.368,79.528c5.296,2.544,11.04,5.016,17.728,6.664C336.536,148.586,332.544,153.602,327.712,157.906z" fill="#ffffff"/><path d="M216,272.034h-44.688l50.344-50.344c3.128-3.128,3.128-8.184,0-11.312s-8.184-3.128-11.312,0l-64,64    c-2.288,2.288-2.976,5.728-1.736,8.72c1.24,2.984,4.16,4.936,7.392,4.936h44.688l-50.344,50.344    c-3.128,3.128-3.128,8.184,0,11.312c1.56,1.56,3.608,2.344,5.656,2.344c2.048,0,4.096-0.784,5.656-2.344l64-64    c2.288-2.288,2.976-5.728,1.736-8.72C222.152,273.986,219.232,272.034,216,272.034z" fill="#ffffff"/></g><g transform="matrix(0.11646090937515134 -0.11646090937515134 0.11646090937515134 0.11646090937515134 253.14126828343495 83.99953652620933)" id="L1_5"><path d="M301.528,112.284c-11.176-55.32-60.472-96.28-117.528-96.28c-57.064,0-106.36,40.96-117.528,96.28    C29.352,115.124,0,146.172,0,184.004c0,39.696,32.304,72,72,72h16c4.416,0,8-3.584,8-8c0-4.416-3.584-8-8-8H72    c-30.88,0-56-25.12-56-56s25.12-56,55.6-56.072c0.088,0.016,0.184,0.016,0.28,0.024c0.04,0.008,0.072,0.032,0.112,0.04    c0.064,0.008,0.12-0.016,0.176-0.008c0.32,0.04,0.632,0.096,0.952,0.096c4.168,0,8.456,0.544,12.752,1.624    c0.312,0.136,0.64,0.248,0.976,0.336c14.08,3.84,26.352,13.312,33.664,25.968c2.208,3.824,7.096,5.136,10.928,2.92    c3.824-2.208,5.136-7.104,2.92-10.928c-9.208-15.936-24.528-27.936-42.168-33.072c-0.368-0.168-0.752-0.304-1.152-0.408    c-2.8-0.752-5.6-1.32-8.4-1.72c10.688-46.616,52.808-80.8,101.36-80.8c48.544,0,90.664,34.184,101.36,80.792    c-2.8,0.408-5.608,0.968-8.4,1.72c-0.392,0.104-0.776,0.24-1.136,0.4c-17.648,5.136-32.976,17.144-42.184,33.08    c-2.208,3.832-0.904,8.72,2.92,10.928c3.816,2.216,8.72,0.904,10.928-2.92c7.312-12.656,19.584-22.12,33.664-25.968    c0.336-0.096,0.656-0.2,0.968-0.336c4.304-1.08,8.592-1.624,12.768-1.624c0.52,0.008,0.608,0.024,1.12-0.08    c30.88,0,56,25.12,56,56s-25.12,56-56,56h-16c-4.416,0-8,3.584-8,8c0,4.416,3.584,8,8,8h16c39.696,0,72-32.304,72-72    C368,146.172,338.648,115.124,301.528,112.284z" fill="#ffffff"/><path d="M202.816,208.508c-4.128-1.52-8.744,0.544-10.304,4.68l-48,128c-1.552,4.144,0.544,8.752,4.68,10.312    c0.928,0.336,1.872,0.504,2.808,0.504c3.24,0,6.288-1.984,7.496-5.192l48-128C209.048,214.676,206.952,210.068,202.816,208.508z" fill="#ffffff"/><path d="M250.536,208.412c-4.208-1.416-8.728,0.872-10.12,5.056l-32,96c-1.4,4.192,0.864,8.72,5.056,10.12    c0.84,0.288,1.696,0.416,2.528,0.416c3.352,0,6.472-2.12,7.592-5.472l32-96C256.992,214.34,254.728,209.812,250.536,208.412z" fill="#ffffff"/><path d="M155.08,208.62c-4.088-1.72-8.768,0.232-10.464,4.304l-40,96c-1.696,4.08,0.224,8.76,4.304,10.464    c1.008,0.424,2.056,0.616,3.08,0.616c3.136,0,6.112-1.856,7.384-4.928l40-96C161.08,215.004,159.16,210.324,155.08,208.62z" fill="#ffffff"/></g><g transform="matrix(0.11105501760788641 -0.11105501760788641 0.11105501760788641 0.11105501760788641 163.1317545931814 179.0000010728836)" id="L1_6"><path d="M296,48c-39.704,0-72,32.304-72,72c0,4.416,3.576,8,8,8s8-3.584,8-8c0-30.88,25.128-56,56-56s56,25.12,56,56    s-25.128,56-56,56H8c-4.416,0-8,3.584-8,8s3.584,8,8,8h288c39.704,0,72-32.304,72-72S335.704,48,296,48z" fill="#ffffff"/><path d="M144,32c-30.88,0-56,25.12-56,56c0,4.416,3.584,8,8,8s8-3.584,8-8c0-22.056,17.944-40,40-40c22.056,0,40,17.944,40,40    c0,22.056-17.944,40-40,40H8c-4.416,0-8,3.584-8,8s3.584,8,8,8h136c30.88,0,56-25.12,56-56S174.88,32,144,32z" fill="#ffffff"/><path d="M280,224H8c-4.416,0-8,3.584-8,8c0,4.416,3.584,8,8,8h272c22.056,0,40,17.944,40,40c0,22.056-17.944,40-40,40    c-22.056,0-40-17.944-40-40c0-4.416-3.576-8-8-8s-8,3.584-8,8c0,30.88,25.128,56,56,56s56-25.12,56-56S310.872,224,280,224z" fill="#ffffff"/></g><g transform="matrix(0.12473229161568705 -0.12473229161568705 0.12473229161568705 0.12473229161568705 76.09851775831078 256.0000010728836)" id="L1_7"><path d="M360,208h-33c0.592-5.256,1-10.584,1-16c0-79.4-64.6-144-144-144S40,112.6,40,192c0,5.416,0.408,10.744,1,16H8    c-4.416,0-8,3.584-8,8c0,4.416,3.584,8,8,8h42.16h267.68H360c4.416,0,8-3.584,8-8C368,211.584,364.416,208,360,208z M311,208H57    c-0.664-5.216-1-10.576-1-16c0-70.576,57.424-128,128-128s128,57.424,128,128C312,197.424,311.664,202.784,311,208z" fill="#ffffff"/><path d="M328,256H40c-4.416,0-8,3.584-8,8c0,4.416,3.584,8,8,8h288c4.416,0,8-3.584,8-8C336,259.584,332.416,256,328,256z" fill="#ffffff"/><path d="M296,304H72c-4.416,0-8,3.584-8,8c0,4.416,3.584,8,8,8h224c4.416,0,8-3.584,8-8C304,307.584,300.416,304,296,304z" fill="#ffffff"/></g></defs><g fi:class="KUsePattern"><pattern id="pattern_L1_0" width="350" height="350" patternUnits="userSpaceOnUse"><use xlink:href="#L1_0" x="-350" y="-350"/><use xlink:href="#L1_0" x="0" y="-350"/><use xlink:href="#L1_0" x="350" y="-350"/><use xlink:href="#L1_0" x="-350" y="0"/><use xlink:href="#L1_0" x="0" y="0"/><use xlink:href="#L1_0" x="350" y="0"/><use xlink:href="#L1_0" x="-350" y="350"/><use xlink:href="#L1_0" x="0" y="350"/><use xlink:href="#L1_0" x="350" y="350"/></pattern><rect x="0" y="0" width="100%" height="100%" fill="url(#pattern_L1_0)"/></g><g fi:class="KUsePattern"><pattern id="pattern_L1_1" width="350" height="350" patternUnits="userSpaceOnUse"><use xlink:href="#L1_1" x="-350" y="-350"/><use xlink:href="#L1_1" x="0" y="-350"/><use xlink:href="#L1_1" x="350" y="-350"/><use xlink:href="#L1_1" x="-350" y="0"/><use xlink:href="#L1_1" x="0" y="0"/><use xlink:href="#L1_1" x="350" y="0"/><use xlink:href="#L1_1" x="-350" y="350"/><use xlink:href="#L1_1" x="0" y="350"/><use xlink:href="#L1_1" x="350" y="350"/></pattern><rect x="0" y="0" width="100%" height="100%" fill="url(#pattern_L1_1)"/></g><g fi:class="KUsePattern"><pattern id="pattern_L1_2" width="350" height="350" patternUnits="userSpaceOnUse"><use xlink:href="#L1_2" x="-350" y="-350"/><use xlink:href="#L1_2" x="0" y="-350"/><use xlink:href="#L1_2" x="350" y="-350"/><use xlink:href="#L1_2" x="-350" y="0"/><use xlink:href="#L1_2" x="0" y="0"/><use xlink:href="#L1_2" x="350" y="0"/><use xlink:href="#L1_2" x="-350" y="350"/><use xlink:href="#L1_2" x="0" y="350"/><use xlink:href="#L1_2" x="350" y="350"/></pattern><rect x="0" y="0" width="100%" height="100%" fill="url(#pattern_L1_2)"/></g><g fi:class="KUsePattern"><pattern id="pattern_L1_3" width="350" height="350" patternUnits="userSpaceOnUse"><use xlink:href="#L1_3" x="-350" y="-350"/><use xlink:href="#L1_3" x="0" y="-350"/><use xlink:href="#L1_3" x="350" y="-350"/><use xlink:href="#L1_3" x="-350" y="0"/><use xlink:href="#L1_3" x="0" y="0"/><use xlink:href="#L1_3" x="350" y="0"/><use xlink:href="#L1_3" x="-350" y="350"/><use xlink:href="#L1_3" x="0" y="350"/><use xlink:href="#L1_3" x="350" y="350"/></pattern><rect x="0" y="0" width="100%" height="100%" fill="url(#pattern_L1_3)"/></g><g fi:class="KUsePattern"><pattern id="pattern_L1_4" width="350" height="350" patternUnits="userSpaceOnUse"><use xlink:href="#L1_4" x="-350" y="-350"/><use xlink:href="#L1_4" x="0" y="-350"/><use xlink:href="#L1_4" x="350" y="-350"/><use xlink:href="#L1_4" x="-350" y="0"/><use xlink:href="#L1_4" x="0" y="0"/><use xlink:href="#L1_4" x="350" y="0"/><use xlink:href="#L1_4" x="-350" y="350"/><use xlink:href="#L1_4" x="0" y="350"/><use xlink:href="#L1_4" x="350" y="350"/></pattern><rect x="0" y="0" width="100%" height="100%" fill="url(#pattern_L1_4)"/></g><g fi:class="KUsePattern"><pattern id="pattern_L1_5" width="350" height="350" patternUnits="userSpaceOnUse"><use xlink:href="#L1_5" x="-350" y="-350"/><use xlink:href="#L1_5" x="0" y="-350"/><use xlink:href="#L1_5" x="350" y="-350"/><use xlink:href="#L1_5" x="-350" y="0"/><use xlink:href="#L1_5" x="0" y="0"/><use xlink:href="#L1_5" x="350" y="0"/><use xlink:href="#L1_5" x="-350" y="350"/><use xlink:href="#L1_5" x="0" y="350"/><use xlink:href="#L1_5" x="350" y="350"/></pattern><rect x="0" y="0" width="100%" height="100%" fill="url(#pattern_L1_5)"/></g><g fi:class="KUsePattern"><pattern id="pattern_L1_6" width="350" height="350" patternUnits="userSpaceOnUse"><use xlink:href="#L1_6" x="-350" y="-350"/><use xlink:href="#L1_6" x="0" y="-350"/><use xlink:href="#L1_6" x="350" y="-350"/><use xlink:href="#L1_6" x="-350" y="0"/><use xlink:href="#L1_6" x="0" y="0"/><use xlink:href="#L1_6" x="350" y="0"/><use xlink:href="#L1_6" x="-350" y="350"/><use xlink:href="#L1_6" x="0" y="350"/><use xlink:href="#L1_6" x="350" y="350"/></pattern><rect x="0" y="0" width="100%" height="100%" fill="url(#pattern_L1_6)"/></g><g fi:class="KUsePattern"><pattern id="pattern_L1_7" width="350" height="350" patternUnits="userSpaceOnUse"><use xlink:href="#L1_7" x="-350" y="-350"/><use xlink:href="#L1_7" x="0" y="-350"/><use xlink:href="#L1_7" x="350" y="-350"/><use xlink:href="#L1_7" x="-350" y="0"/><use xlink:href="#L1_7" x="0" y="0"/><use xlink:href="#L1_7" x="350" y="0"/><use xlink:href="#L1_7" x="-350" y="350"/><use xlink:href="#L1_7" x="0" y="350"/><use xlink:href="#L1_7" x="350" y="350"/></pattern><rect x="0" y="0" width="100%" height="100%" fill="url(#pattern_L1_7)"/></g></svg>