<?xml version="1.0" encoding="UTF-8"?>
<!DOCTYPE svg PUBLIC "-//W3C//DTD SVG 1.1//EN" "http://www.w3.org/Graphics/SVG/1.1/DTD/svg11.dtd">
<!-- Creator: CorelDRAW 2017 -->
<svg xmlns="http://www.w3.org/2000/svg" xml:space="preserve" width="30.8342mm" height="30.8342mm" version="1.1" style="shape-rendering:geometricPrecision; text-rendering:geometricPrecision; image-rendering:optimizeQuality; fill-rule:evenodd; clip-rule:evenodd"
viewBox="0 0 12.378 12.378"
 xmlns:xlink="http://www.w3.org/1999/xlink">
 <defs>
  <style type="text/css">
   <![CDATA[
    .fil0 {fill:#fff}
   ]]>
  </style>
 </defs>
 <g id="Слой_x0020_1">
  <metadata id="CorelCorpID_0Corel-Layer"/>
  <path class="fil0" d="M10.1671 10.9299c-2.6184,2.197 -6.522,1.8555 -8.719,-0.7628 -2.197,-2.6183 -1.8555,-6.522 0.7629,-8.719 2.6183,-2.1971 6.5219,-1.8555 8.719,0.7628 2.197,2.6183 1.8555,6.5219 -0.7628,8.719zm0.1821 -8.2316l0 0c-0.175,-0.2086 -0.3625,-0.4007 -0.5602,-0.5761l1.7716 4.8673c0.2205,-1.4838 -0.1713,-3.0516 -1.2113,-4.2912zm1.0534 5.0129l0 0 -3.0716 -1.7734 -1.4923 1.2522 -0.2916 -0.801 1.0456 -0.8774 -3.8369 -2.2153 0 0 1.5155 4.1631 0.2409 -0.2021 0.2916 0.8011 -0.2409 0.2021 1.2114 3.3283c1.0346,-0.1112 2.0485,-0.5203 2.9054,-1.2394 0.8547,-0.7172 1.4329,-1.6416 1.7228,-2.6382zm-4.7745 -0.3445l-0.1985 0.1666 -0.2916 -0.8011 0.1985 -0.1666 0.2916 0.8011zm-0.4091 0.3433l-0.2045 0.1716 -0.2916 -0.8011 0.2045 -0.1716 0.2916 0.8011zm-0.1916 3.9075l0 0 -4.4601 -2.5751c0.1363,0.2202 0.29,0.4334 0.4614,0.6376 1.0362,1.2349 2.505,1.8926 3.9988,1.9376zm-5.03 -3.8292l0 0 4.4835 2.5888 -2.9765 -8.1778c-1.5744,1.4516 -2.1055,3.6432 -1.507,5.589zm1.8953 -5.9155l0 0 7.5369 4.3517 -1.7746 -4.8756c-1.813,-0.9227 -4.0618,-0.7768 -5.7623,0.5239z"/>
 </g>
</svg>
