<?xml version="1.0" encoding="UTF-8"?>
<!DOCTYPE svg PUBLIC "-//W3C//DTD SVG 1.1//EN" "http://www.w3.org/Graphics/SVG/1.1/DTD/svg11.dtd">
<!-- Creator: CorelDRAW 2017 -->
<svg xmlns="http://www.w3.org/2000/svg" xml:space="preserve" width="204.173mm" height="204.186mm" version="1.1" style="shape-rendering:geometricPrecision; text-rendering:geometricPrecision; image-rendering:optimizeQuality; fill-rule:evenodd; clip-rule:evenodd"
viewBox="0 0 204.1726 204.1856"
 xmlns:xlink="http://www.w3.org/1999/xlink">
 <defs>
  <style type="text/css">
   <![CDATA[
    .fil1 {fill:#fff}
    .fil0 {fill:#fff;fill-opacity:0.5}
   ]]>
  </style>
 </defs>
 <g id="Слой_x0020_1">
  <metadata id="CorelCorpID_0Corel-Layer"/>
  <g id="_2786325904912">
   <path class="fil0" d="M174.2738 72.1875l0 -42.2822 -42.2887 0 -29.8988 -29.9053 -29.8988 29.9053 -42.2887 0 0 42.2822 -29.8988 29.9053 29.8988 29.9053 0 42.2822 42.2887 0 29.8988 29.9053 29.8988 -29.9053 42.2887 0 0 -42.2822 29.8988 -29.9053 -29.8988 -29.9053zm-13.125 54.3769l0 34.5909 -34.5975 0 -24.465 24.4716 -24.465 -24.4716 -34.5975 0 0 -34.5909 -24.465 -24.4716 24.465 -24.4716 0 -34.5909 34.5975 0 24.465 -24.4716 24.465 24.4716 34.5975 0 0 34.5909 24.465 24.4716 -24.465 24.4716z"/>
   <path class="fil1" d="M102.0863 49.5928c-28.9948,0 -52.5,23.5052 -52.5,52.5 0,28.9948 23.5052,52.5 52.5,52.5 28.9948,0 52.5,-23.5052 52.5,-52.5 -0.0324,-28.9816 -23.5184,-52.4676 -52.5,-52.5zm0 91.875c-21.7461,0 -39.375,-17.6289 -39.375,-39.375 0,-21.7461 17.6289,-39.375 39.375,-39.375 21.7461,0 39.375,17.6289 39.375,39.375 -0.0217,21.7371 -17.6379,39.3533 -39.375,39.375z"/>
  </g>
 </g>
</svg>
