<?xml version="1.0" encoding="iso-8859-1"?>
<!-- Generator: Adobe Illustrator 19.0.0, SVG Export Plug-In . SVG Version: 6.00 Build 0)  -->
<svg version="1.1" id="Layer_1" xmlns="http://www.w3.org/2000/svg" xmlns:xlink="http://www.w3.org/1999/xlink" x="0px" y="0px"
	 viewBox="0 0 511.991 511.991" style="enable-background:new 0 0 511.991 511.991;" xml:space="preserve">
<path style="fill:#434A54;" d="M255.992,0.003c-5.875,0-10.656,4.781-10.656,10.672v42.67h21.328v-42.67
	C266.664,4.784,261.898,0.003,255.992,0.003z"/>
<path style="fill:#DA4453;" d="M255.992,42.673C114.621,42.673,0,157.279,0,298.681v2.313c18.281-23.25,46.654-38.171,78.513-38.171
	c38.639,0,50.811,21.952,67.419,54.076c16.593-32.124,71.436-54.076,110.059-54.076c38.662,0,93.473,21.952,110.098,54.076
	c16.594-32.124,28.75-54.076,67.404-54.076c31.842,0,60.217,14.921,78.498,38.171v-2.313
	C511.992,157.279,397.371,42.673,255.992,42.673z"/>
<path style="fill:#434A54;" d="M341.34,447.989c-5.904,0-10.686,4.78-10.686,10.687c0,17.624-14.344,31.999-32,31.999
	c-17.625,0-31.99-14.375-31.99-31.999V252.152h-21.328v206.524c0,29.437,23.875,53.312,53.318,53.312
	c29.469,0,53.342-23.875,53.342-53.312C351.996,452.769,347.215,447.989,341.34,447.989z"/>
<path style="fill:#ED5564;" d="M255.992,262.823c38.662,0,93.473,21.952,110.098,54.045c0-162.37-67.186-241.789-92.965-273.632
	c-5.664-0.375-11.383-0.563-17.133-0.563s-11.453,0.188-17.109,0.563c-25.796,31.843-92.95,111.263-92.95,273.664
	C162.526,284.775,217.369,262.823,255.992,262.823z"/>
<g>
</g>
<g>
</g>
<g>
</g>
<g>
</g>
<g>
</g>
<g>
</g>
<g>
</g>
<g>
</g>
<g>
</g>
<g>
</g>
<g>
</g>
<g>
</g>
<g>
</g>
<g>
</g>
<g>
</g>
</svg>
