<?xml version="1.0" encoding="UTF-8"?>
<!DOCTYPE svg PUBLIC "-//W3C//DTD SVG 1.1//EN" "http://www.w3.org/Graphics/SVG/1.1/DTD/svg11.dtd">
<!-- Creator: CorelDRAW 2017 -->
<svg xmlns="http://www.w3.org/2000/svg" xml:space="preserve" width="210mm" height="17.7945mm" version="1.1" style="shape-rendering:geometricPrecision; text-rendering:geometricPrecision; image-rendering:optimizeQuality; fill-rule:evenodd; clip-rule:evenodd"
viewBox="0 0 209.9998 17.7945"
 xmlns:xlink="http://www.w3.org/1999/xlink">
 <defs>
  <style type="text/css">
   <![CDATA[
    .fil0 {fill:#33a3ff}
   ]]>
  </style>
 </defs>
 <g id="Слой_x0020_1">
  <metadata id="CorelCorpID_0Corel-Layer"/>
  <g id="_2557661809296">
   <path class="fil0" d="M181.4466 17.7945c-7.5618,0 -11.4135,-3.5252 -14.8119,-6.6354 -3.0684,-2.8088 -5.4924,-5.0274 -10.672,-5.0274 -5.1797,0 -7.6037,2.2186 -10.6726,5.0274 -3.3979,3.1103 -7.2496,6.6354 -14.8119,6.6354 -7.5623,0 -11.4135,-3.5252 -14.8119,-6.6354 -3.0684,-2.8088 -5.4919,-5.0274 -10.6715,-5.0274 -5.1792,0 -7.6027,2.2186 -10.671,5.0274 -3.3979,3.1103 -7.2496,6.6354 -14.8119,6.6354 -7.5613,0 -11.4119,-3.5252 -14.8098,-6.6354 -3.0678,-2.8088 -5.4914,-5.0274 -10.67,-5.0274 -5.1792,0 -7.6027,2.2186 -10.671,5.0274 -3.3979,3.1103 -7.2496,6.6354 -14.8114,6.6354 -7.5623,0 -11.414,-3.5252 -14.8124,-6.6354 -3.0684,-2.8088 -5.4919,-5.0275 -10.6716,-5.0275 -1.6928,0 -3.0658,-1.3725 -3.0658,-3.0658 0,-1.6928 1.373,-3.0658 3.0658,-3.0658 7.5618,0 11.4135,3.5252 14.8119,6.6354 3.0684,2.8088 5.4924,5.0274 10.672,5.0274 5.1792,0 7.6027,-2.2186 10.671,-5.0269 3.3979,-3.1108 7.2496,-6.6359 14.8114,-6.6359 7.5613,0 11.4124,3.5257 14.8104,6.6359 3.0678,2.8088 5.4908,5.0269 10.6695,5.0269 5.1797,0 7.6032,-2.2186 10.6715,-5.0269 3.3979,-3.1108 7.2496,-6.6359 14.8114,-6.6359 7.5623,0 11.4135,3.5252 14.8119,6.6359 3.0684,2.8083 5.4924,5.0269 10.6715,5.0269 5.1802,0 7.6037,-2.2186 10.672,-5.0269 3.3984,-3.1108 7.2501,-6.6359 14.8124,-6.6359 7.5623,0 11.414,3.5252 14.8124,6.6359 3.0684,2.8083 5.4919,5.0269 10.6715,5.0269 5.1807,0 7.6047,-2.2186 10.6741,-5.0274 3.3984,-3.1103 7.2506,-6.6354 14.8134,-6.6354 1.6928,0 3.0658,1.373 3.0658,3.0658 0,1.6933 -1.373,3.0658 -3.0658,3.0658 -5.1807,0 -7.6047,2.2186 -10.6741,5.0274 -3.3983,3.1103 -7.25,6.6355 -14.8133,6.6355z"/>
  </g>
 </g>
</svg>
