<?xml version="1.0" encoding="UTF-8"?>
<!DOCTYPE svg PUBLIC "-//W3C//DTD SVG 1.1//EN" "http://www.w3.org/Graphics/SVG/1.1/DTD/svg11.dtd">
<!-- Creator: CorelDRAW 2017 -->
<svg xmlns="http://www.w3.org/2000/svg" xml:space="preserve" width="180.622mm" height="180.622mm" version="1.1" style="shape-rendering:geometricPrecision; text-rendering:geometricPrecision; image-rendering:optimizeQuality; fill-rule:evenodd; clip-rule:evenodd"
viewBox="0 0 115.5983 115.5983"
 xmlns:xlink="http://www.w3.org/1999/xlink">
 <defs>
  <style type="text/css">
   <![CDATA[
    .fil0 {fill:#fff}
   ]]>
  </style>
 </defs>
 <g id="Слой_x0020_1">
  <metadata id="CorelCorpID_0Corel-Layer"/>
  <g id="Stavrapid2016.ai">
   <path class="fil0" d="M57.7991 115.5983c-31.9216,0 -57.7991,-25.8776 -57.7991,-57.7991 0,-31.9216 25.8775,-57.7991 57.7991,-57.7991 31.9216,0 57.7991,25.8776 57.7991,57.7991 0,31.9216 -25.8776,57.7991 -57.7991,57.7991zm50.7191 -57.7982l0 0c0,-2.5431 -0.1881,-5.0423 -0.5494,-7.485l-16.545 45.4572c10.4853,-9.292 17.0945,-22.8602 17.0945,-37.9722zm-22.5575 42.1883l0 0 -11.3288 -31.1272 -18.1931 0 2.7229 -7.4813 12.7473 0 -14.1512 -38.882 0 0 -14.1495 38.882 2.9362 0 -2.7229 7.4813 -2.9362 0 -11.3139 31.0845c8.0692,5.415 17.7788,8.5745 28.2265,8.5745 10.4203,0 20.1062,-3.143 28.1626,-8.5318zm-32.0901 -31.1272l-2.4193 0 2.7229 -7.4813 2.4193 0 -2.7229 7.4813zm-4.9876 0l-2.4932 0 2.7229 -7.4813 2.4932 0 -2.7229 7.4813zm-24.8281 26.806l0 0 -16.45 -45.1982c-0.3466,2.3938 -0.5269,4.8413 -0.5269,7.3311 0,15.0552 6.5599,28.578 16.9769,37.8671zm-12.9989 -57.5908l0 0 16.5352 45.436 27.7984 -76.3753c-19.9777,0.934 -36.934,13.4249 -44.3336,30.9393zm49.0714 -30.9428l0 0 27.7969 76.3788 16.5735 -45.535c-7.4315,-17.4855 -24.3961,-29.9408 -44.3704,-30.8438z"/>
  </g>
 </g>
</svg>
