<?xml version="1.0" encoding="UTF-8"?>
<!DOCTYPE svg PUBLIC "-//W3C//DTD SVG 1.1//EN" "http://www.w3.org/Graphics/SVG/1.1/DTD/svg11.dtd">
<!-- Creator: CorelDRAW 2017 -->
<svg xmlns="http://www.w3.org/2000/svg" xml:space="preserve" width="171.505mm" height="94.8942mm" version="1.1" style="shape-rendering:geometricPrecision; text-rendering:geometricPrecision; image-rendering:optimizeQuality; fill-rule:evenodd; clip-rule:evenodd"
viewBox="0 0 350.3293 193.8378"
 xmlns:xlink="http://www.w3.org/1999/xlink">
 <defs>
  <style type="text/css">
   <![CDATA[
    .fil0 {fill:white}
   ]]>
  </style>
 </defs>
 <g id="Слой_x0020_1">
  <metadata id="CorelCorpID_0Corel-Layer"/>
  <path class="fil0" d="M308.458 33.8369l-23.417 27.6701 -12.3239 0.0061 13.7182 -17.5096 1.5626 -12.9826 -34.8437 10.3045 -66.0376 131.8 32.5755 -42.9092 0.5993 10.5866 -42.8855 51.7035 -0.5462 1.09 0.106 0.2416 -0.1416 -0.1706 -0.0854 0.1706 -0.1648 -0.3285 -0.2725 0.3285 0.2041 -0.4649 -0.114 -0.2271 -43.4234 -52.3382 0.6087 -10.5857 33.1438 43.6493 -66.4857 -132.5082 -34.9644 -10.3296 1.5541 12.982 14.2468 18.0562 -12.3486 -0.0059 -23.9393 -28.2163 -13.8279 -33.835 59.4963 21.0824 -2.4224 -21.0935 46.6502 18.4274 41.7055 134.43 0.9586 0 41.3364 -134.43 46.6669 -18.4274 -2.4377 21.061 59.3873 -21.0643 -13.8387 33.8369zm-59.5008 -13.7053l0 0 -21.6562 7.3336 -50.144 133.6572 -0.4921 0 -50.6146 -133.6572 -21.6495 -7.3336 -0.6396 5.6813 7.762 2.7505 36.7034 93.7238 28.6228 59.2716 27.0119 -56.2031 37.9414 -96.8049 7.7863 -2.7617 -0.6318 -5.6574zm-200.0694 96.9918l0 0c-2.7176,-1.1063 -6.6863,-1.8292 -11.9092,-2.1693 -10.5036,-0.7627 -18.1167,-3.2086 -22.813,-7.3064 -4.6469,-4.0506 -5.9658,-10.4505 -4.0318,-19.0718 2.0553,-9.4941 7.948,-16.5267 17.6174,-21.236 8.4507,-4.0586 17.3025,-5.4507 26.6542,-4.2065 9.6138,1.3228 16.3126,5.0252 20.1187,11.181 2.5372,4.0392 3.3961,8.7839 2.547,14.2615l-21.3096 0c0.4408,-2.5936 -0.45,-4.5646 -2.6598,-5.9252 -2.2036,-1.3537 -4.7727,-2.0106 -7.7121,-1.9726 -2.9421,0.0398 -5.8259,0.7347 -8.6577,2.0888 -2.845,1.3612 -4.5934,3.2154 -5.2403,5.5724 -0.8332,2.8489 -0.1724,4.862 1.9934,6.0212 2.1724,1.1649 5.6218,1.9896 10.3478,2.4735 4.308,0.4843 7.7638,0.9298 10.3615,1.3341 2.6001,0.4065 5.5424,1.198 8.8366,2.3775 3.3026,1.185 5.792,2.6201 7.4645,4.3066 1.6801,1.696 3.0134,4.088 4.0004,7.1871 0.995,3.1275 1.1988,6.8801 0.5997,11.2784 -0.5587,4.1009 -1.9448,7.9354 -4.1691,11.4947 -2.2455,3.5951 -5.0262,6.5862 -8.3415,8.9588 -3.3363,2.3893 -7.0658,4.4201 -11.1845,6.0908 -4.1389,1.6781 -8.4046,2.682 -12.7873,3.0115 -4.3883,0.3274 -8.6901,0.3033 -12.9003,-0.0703 -4.2077,-0.3754 -8.0655,-1.4274 -11.5668,-3.1504 -3.4879,-1.7154 -6.4263,-3.7924 -8.8152,-6.2248 -2.3764,-2.4153 -3.9781,-5.4942 -4.808,-9.2188 -0.8246,-3.6864 -0.6716,-7.7105 0.4426,-12.061l22.7068 0c-0.4453,2.1689 0.1638,4.0224 1.8347,5.554 1.6774,1.5398 3.8935,2.5098 6.6489,2.9075 2.7562,0.3983 5.5994,0.4647 8.5257,0.1992 2.9225,-0.2653 5.5026,-1.1039 7.7321,-2.5137 2.2208,-1.4025 3.4958,-3.1065 3.8296,-5.1079 0.4898,-2.9355 -0.6324,-4.9527 -3.3557,-6.0639zm59.8262 -17.6563l0 0 -1.103 11.6974 -22.0554 -27.369 11.6298 0.088 11.5286 15.5836zm-31.5705 -26.2874l0 0c-1.9201,-3.0814 -4.4769,-6.0994 -7.8353,-7.9493l0.1898 -1.216 38.7305 0 24.1844 48.4036 -2.3319 38.5616 -24.1291 0 6.3061 -68.8524 -32.5441 0c-0.3403,-2.8452 -1.0812,-6.5944 -2.5705,-8.9475zm178.5 -9.1653l0 0c4.357,0 8.435,0.6624 12.2444,1.9912 3.8241,1.3341 7.096,3.1206 9.8199,5.3667 2.7396,2.2608 5.1845,4.8985 7.3326,7.9199 2.165,3.0493 3.7075,6.2608 4.6156,9.6386 0.917,3.4119 1.4628,6.8566 1.6321,10.3325 0.1712,3.5118 -0.3685,6.8908 -1.6243,10.1347 -1.2691,3.273 -2.9968,6.1928 -5.1837,8.7504 -2.2042,2.5756 -5.1729,4.6489 -8.9081,6.2116 -3.751,1.5692 -8.0093,2.3562 -12.7634,2.3562l-17.0351 0 2.2224 24.2635 -24.4018 0 -2.3675 -39.374 23.7659 -47.5912 10.6509 0zm-13.9543 18.1128l0 0 2.2008 24.0267 16.4405 0c2.3963,0 4.3294,-0.8473 5.7904,-2.5378 1.4542,-1.6807 2.2382,-3.722 2.3605,-6.116 0.1199,-2.3762 -0.1371,-4.7182 -0.765,-7.0264 -0.6257,-2.2917 -1.8521,-4.2565 -3.6778,-5.8982 -1.8174,-1.6341 -3.965,-2.4483 -6.4495,-2.4483 -1.5741,0 -3.2509,0 -5.0307,0 -1.7818,0 -3.7693,0 -5.9624,0 -2.1953,0 -3.8314,0 -4.9067,0zm14.2965 2.3313l0 0c2.4925,0 4.6454,0.8197 6.4651,2.4645 0.5438,0.4915 1.0273,1.015 1.4644,1.5639l-12.5481 15.191 -5.1437 0 -0.5748 -6.0435 9.8729 -13.1759c0.1518,0 0.3144,0 0.4643,0zm31.7352 36.1774l0 0c2.384,-2.7948 4.2624,-5.983 5.6361,-9.5542 0.5389,-1.4029 0.9492,-2.8295 1.2415,-4.2778 1.7916,11.1375 3.542,22.019 3.542,22.019l11.2564 0c4.6783,0 8.5345,-1.2072 11.5552,-3.6139 2.9999,-2.3893 4.8961,-5.3886 5.6974,-8.9806 0.7915,-3.5575 0.7744,-7.3316 -0.0427,-11.3146 -0.8085,-3.9403 -2.2998,-7.5957 -4.4616,-10.9741 -2.1438,-3.3471 -5.072,-6.0919 -8.7837,-8.2512 -3.6907,-2.1444 -7.7223,-3.2127 -12.1128,-3.2127l-10.521 0c-0.739,-1.3996 -1.5845,-2.7713 -2.5478,-4.1121 -2.3528,-3.2705 -5.0254,-6.1239 -8.0161,-8.568 -2.9621,-2.4189 -6.5147,-4.3429 -10.6611,-5.7814l28.5004 0c8.7939,0 16.802,1.9185 24.0843,5.784 7.3628,3.9109 13.2241,8.8603 17.575,14.8942 4.4261,6.1382 7.5217,12.8682 9.2554,20.2212 1.7692,7.5042 1.884,14.6488 0.2956,21.4084 -1.6176,6.8834 -5.4942,12.7183 -11.6633,17.4487 -6.2475,4.7915 -14.3533,7.2086 -24.258,7.2086l-35.989 0 -2.8879 -22.3203c1.2315,-0.3456 2.4238,-0.7507 3.5677,-1.2293 4.0884,-1.7101 7.3336,-3.9781 9.738,-6.7941z"/>
 </g>
</svg>
