<?xml version="1.0" encoding="UTF-8"?>
<!DOCTYPE svg PUBLIC "-//W3C//DTD SVG 1.1//EN" "http://www.w3.org/Graphics/SVG/1.1/DTD/svg11.dtd">
<!-- Creator: CorelDRAW 2017 -->
<svg xmlns="http://www.w3.org/2000/svg" xml:space="preserve" width="17.6151mm" height="6.448mm" version="1.1" style="shape-rendering:geometricPrecision; text-rendering:geometricPrecision; image-rendering:optimizeQuality; fill-rule:evenodd; clip-rule:evenodd"
viewBox="0 0 93.3152 34.158"
 xmlns:xlink="http://www.w3.org/1999/xlink">
 <defs>
  <style type="text/css">
   <![CDATA[
    .fil0 {fill:#1D1D1B}
   ]]>
  </style>
 </defs>
 <g id="Слой_x0020_1">
  <metadata id="CorelCorpID_0Corel-Layer"/>
  <g id="_2439613942800">
   <path class="fil0" d="M78.5041 10.5123l-29.7155 0 0 19.2271 40.7756 0 0 -3.8889 3.7511 0 0 -11.4494 -3.7511 0 0 -3.8889 -11.06 0zm-25.9469 3.8889l33.2177 0 0 3.8926 3.7893 0 0 3.6674 -3.7893 0 0 3.8889 -33.2177 0 0 -11.4489z"/>
   <g>
    <path class="fil0" d="M56.3263 21.9595l25.681 0 0 -3.6674 -25.681 0 0 3.6674zm0 0l0 0 0 0z"/>
   </g>
  </g>
  <g>
   <path class="fil0" d="M21.3355 29.4697c1.1061,-2.8543 1.7116,-6.6753 1.8599,-10.5176l6.1503 0c-0.6532,4.7915 -3.7824,8.7731 -8.0108,10.5176l0.0005 0zm-17.5807 -10.5176l6.1509 0c0.1489,3.8422 0.757,7.6633 1.8599,10.5176 -4.2215,-1.7445 -7.3571,-5.726 -8.0108,-10.5176zm8.0108 -14.2608c-1.1029,2.8506 -1.7116,6.6753 -1.8599,10.5176l-6.1509 0.0005c0.6532,-4.7915 3.7893,-8.7731 8.0108,-10.5176l0 -0.0005zm1.7699 10.5181c0.2903,-7.2496 2.209,-11.1172 3.0148,-11.4595 0.8126,0.3427 2.7277,4.2099 3.0185,11.4595l-6.0333 0zm3.0148 15.2021c-0.8057,-0.3427 -2.7245,-4.2099 -3.0148,-11.4595l6.0333 0c-0.2903,7.2496 -2.2059,11.1172 -3.0185,11.4595zm12.796 -15.2021l-6.1509 0c-0.1489,-3.8422 -0.7538,-7.667 -1.8599,-10.5176 4.2284,1.7445 7.3571,5.726 8.0108,10.5176zm-12.796 -15.2095c-9.1238,0 -16.5503,7.6633 -16.5503,17.079 0,9.4189 7.4265,17.079 16.5503,17.079 9.1275,0 16.5503,-7.6601 16.5503,-17.079 0,-9.4152 -7.4228,-17.079 -16.5503,-17.079z"/>
  </g>
 </g>
</svg>
