<?xml version="1.0" encoding="UTF-8"?>
<!DOCTYPE svg PUBLIC "-//W3C//DTD SVG 1.1//EN" "http://www.w3.org/Graphics/SVG/1.1/DTD/svg11.dtd">
<!-- Creator: CorelDRAW 2017 -->
<svg xmlns="http://www.w3.org/2000/svg" xml:space="preserve" width="17.8508mm" height="4.8204mm" version="1.1" style="shape-rendering:geometricPrecision; text-rendering:geometricPrecision; image-rendering:optimizeQuality; fill-rule:evenodd; clip-rule:evenodd"
viewBox="0 0 8.249 2.2275"
 xmlns:xlink="http://www.w3.org/1999/xlink">
 <defs>
  <style type="text/css">
   <![CDATA[
    .fil0 {fill:#1D1D1B}
   ]]>
  </style>
 </defs>
 <g id="Слой_x0020_1">
  <metadata id="CorelCorpID_0Corel-Layer"/>
  <g id="_2439613912720">
   <g>
    <path class="fil0" d="M2.6308 2.2274l0.3287 0 0 -2.2274 -0.3287 0 0 2.2274zm0 0l0 0 0 0z"/>
   </g>
   <g>
    <path class="fil0" d="M1.9733 2.2274l0.3287 0 0 -1.7304 -0.3287 0 0 1.7304zm0 0l0 0 0 0z"/>
   </g>
   <g>
    <path class="fil0" d="M1.3152 2.2274l0.329 0 0 -1.2082 -0.329 0 0 1.2082zm0 0l0 0 0 0z"/>
   </g>
   <g>
    <path class="fil0" d="M0.6575 2.2274l0.329 0 0 -0.7678 -0.329 0 0 0.7678zm0 0l0 0 0 0z"/>
   </g>
   <g>
    <path class="fil0" d="M-0 2.2274l0.329 0 0 -0.3439 -0.329 0 0 0.3439zm0 0l0 0 0 0z"/>
   </g>
  </g>
  <g>
   <g>
    <path class="fil0" d="M5.0454 0.5447l-0.3308 0 0 1.6828 1.1276 0 0 -0.2972 -0.7968 0 0 -1.3856zm0 0l0 0 0 0z"/>
   </g>
   <g>
    <path class="fil0" d="M5.6176 0.8394l0.4759 0 0 1.388 0.3308 0 0 -1.388 0.4756 0 0 -0.2947 -1.2823 0 0 0.2947zm0 0l0 0 0 0z"/>
   </g>
   <g>
    <path class="fil0" d="M7.4021 1.4934l0.5736 0 0 -0.2976 -0.5736 0 0 -0.3567 0.8191 -0 0 -0.2944 -1.15 0 0 1.6825 1.1777 0 0 -0.2972 -0.8469 0 0 -0.4366zm0 0l0 0 0 0z"/>
   </g>
  </g>
 </g>
</svg>
