<?xml version="1.0" encoding="UTF-8"?>
<!DOCTYPE svg PUBLIC "-//W3C//DTD SVG 1.1//EN" "http://www.w3.org/Graphics/SVG/1.1/DTD/svg11.dtd">
<!-- Creator: CorelDRAW 2017 -->
<svg xmlns="http://www.w3.org/2000/svg" xml:space="preserve" width="28.5277mm" height="25.479mm" version="1.1" style="shape-rendering:geometricPrecision; text-rendering:geometricPrecision; image-rendering:optimizeQuality; fill-rule:evenodd; clip-rule:evenodd"
viewBox="0 0 28.5761 25.5222"
 xmlns:xlink="http://www.w3.org/1999/xlink">
 <defs>
  <style type="text/css">
   <![CDATA[
    .fil2 {fill:#2B2A29;fill-rule:nonzero}
    .fil0 {fill:#FEFEFE;fill-rule:nonzero}
    .fil1 {fill:#FFE503;fill-rule:nonzero}
   ]]>
  </style>
 </defs>
 <g id="Слой_x0020_1">
  <metadata id="CorelCorpID_0Corel-Layer"/>
  <path class="fil0" d="M11.5632 3.6882l-0.0124 0.0028 0.0106 -0.0138 0.0018 0.011zm16.6419 8.2495l0.371 -1.187 -1.2269 0.039c-0.104,0 -0.8574,-0.0217 -1.5881,-0.5517 0.0548,0.0048 0.1088,0.0127 0.165,0.0127 0.7524,0 1.481,-0.4528 1.7722,-1.1011l0.5276 -1.1711c-0.6619,0.0089 -1.2668,-0.0748 -1.2668,-0.0748 -0.005,-0.0004 -0.482,-0.0622 -1.0337,-0.6259 -0.3954,-0.4036 -0.8848,-0.6173 -1.4149,-0.6173 -0.2322,0 -0.4392,0.0421 -0.618,0.0986 0.0282,-0.0947 0.0541,-0.1911 0.0696,-0.2901 0.1686,-1.0962 -0.5361,-1.9316 -0.5364,-1.9309l-0.9231 -1.1428 -0.5721 1.3425c-0.0022,0.0043 -0.1466,0.3191 -0.4047,0.4725 -0.078,-0.3948 -0.27,-0.8382 -0.6791,-1.2622 -0.7721,-0.7991 -1.7118,-0.9189 -2.2033,-0.9189 -0.2279,0 -0.3905,0.0251 -0.43,0.0315l-1.1135 0.2192c0.0643,-0.2488 0.2014,-0.6825 0.4513,-1.0725l0.6148 -0.9573 -1.5467 0.176 -0.4926 -1.0464 -0.9541 0.4919 -0.882 -0.8715 -0.8796 0.8715 -0.9562 -0.4919 -0.4915 1.0464 -1.546 -0.1767 0.6152 0.9583c0.2505,0.3898 0.387,0.8223 0.4506,1.0704l-1.0626 -0.2096 -0.0368 -0.0056c-0.053,-0.0085 -0.2149,-0.0337 -0.4435,-0.0337 -0.4916,0 -1.4312,0.1198 -2.2015,0.9185 -0.41,0.4237 -0.6022,0.8679 -0.6803,1.2626 -0.2566,-0.152 -0.4001,-0.4619 -0.4004,-0.4619l-0.5732 -1.3503 -0.9372 1.1499c-0.1149,0.1481 -0.6793,0.9336 -0.5258,1.922 0.0155,0.0987 0.0417,0.1944 0.0692,0.2891 -0.1781,-0.0569 -0.3852,-0.0986 -0.617,-0.0986 -0.5304,0 -1.0198,0.2138 -1.4163,0.6173 -0.5495,0.5612 -1.0237,0.6248 -1.0195,0.6248 0,0 -0.5017,0.0902 -1.2781,0.0759l0.5251 1.1711c0.2919,0.6483 1.0209,1.1011 1.7718,1.1011 0.0569,0 0.111,-0.0079 0.1665,-0.0127 -0.7297,0.53 -1.4831,0.5517 -1.574,0.5521l-1.2495 -0.0394 0.3787 1.1867c0.1905,0.6116 0.8269,1.6249 2.0454,1.7339 -0.1325,0.5554 -0.4261,1.1785 -1.0717,1.4466l-0.9309 0.3832 0.5075 0.8842c0.2863,0.4766 0.9594,1.0343 1.9167,1.0343 0.2071,-0.0004 0.4071,-0.0215 0.5997,-0.0625 0.0491,0.2177 0.1109,0.436 0.1837,0.6526 0.2848,0.8488 0.0393,1.4407 0.0368,1.447l-0.4598 0.9627 1.0255 0.2703c0.013,0.0039 0.3229,0.0895 0.7106,0.0895 0.176,0 0.3446,-0.0183 0.5018,-0.0562 0.1194,-0.0275 0.2343,-0.0647 0.3442,-0.1096 0.1328,0.2383 0.294,0.4555 0.4823,0.6502 0.6573,0.6746 1.5888,1.0163 2.7687,1.0163l0.0039 0 0.8421 -0.0109 -1.74 0.7237 1.3212 0.6385c0.4803,0.2339 1.0492,0.5107 1.6288,0.7223l-0.1651 0.4513 0.4556 0.2079c0.0406,0.0183 0.9167,0.4098 2.3718,0.4932 0,0 0.3516,0.0162 0.5449,0.0162 0.1936,0 0.5406,-0.0172 0.5406,-0.0172 1.4464,-0.0855 2.3153,-0.4739 2.356,-0.4922l0.4566 -0.2082 -0.1668 -0.4521c0.5961,-0.218 1.1863,-0.5057 1.6467,-0.7303l1.2966 -0.6302 -1.7344 -0.7229 0.8456 0.0109c1.1814,0 2.1136,-0.3421 2.7698,-1.0173 0.1873,-0.193 0.3481,-0.41 0.4817,-0.6492 0.1106,0.0449 0.2258,0.082 0.3452,0.1103 0.1573,0.0372 0.3255,0.0555 0.5011,0.0555 0.3816,0 0.6947,-0.0844 0.7032,-0.0873l1.0304 -0.2724 -0.4492 -0.945c-0.0106,-0.024 -0.2562,-0.6159 0.0289,-1.4655 0.0725,-0.2166 0.1336,-0.4346 0.1831,-0.6519 0.1932,0.041 0.3954,0.0621 0.6039,0.0625 1.2199,0 1.8047,-0.8581 1.918,-1.0443l0.5026 -0.8747 -0.9308 -0.3822c-0.6467,-0.2687 -0.94,-0.8912 -1.0714,-1.4463 1.2025,-0.1047 1.8477,-1.1187 2.045,-1.7344z"/>
  <path class="fil0" d="M14.2909 3.6353c-0.9856,0.001 -1.7249,0.3236 -1.8853,0.7039l1.8853 0.7442 1.8856 -0.7442c-0.1594,-0.3802 -0.8986,-0.7029 -1.8856,-0.7039z"/>
  <path class="fil0" d="M14.3106 23.3317l-0.0382 0c-0.5968,0.0039 -1.4198,-0.1184 -1.8157,-0.234l-0.4767 1.2899c0.3142,0.1117 1.3792,0.3262 2.3125,0.3262 0.9315,0 1.9966,-0.2145 2.3104,-0.3262l-0.476 -1.2899c-0.3976,0.1156 -1.2195,0.2379 -1.8164,0.234z"/>
  <path class="fil0" d="M17.9182 22.0482c-0.3548,0.2007 -1.147,0.5025 -1.6078,0.6425l0.387 1.0658c0.7127,-0.1951 1.3015,-0.4223 1.7866,-0.6662l-0.8025 -0.2668 0.2367 -0.7753z"/>
  <path class="fil0" d="M10.6649 22.0482l0.2378 0.7753 -0.8036 0.2668c0.4848,0.2439 1.076,0.4711 1.7863,0.6662l0.3873 -1.0658c-0.4597,-0.14 -1.253,-0.4417 -1.6078,-0.6425z"/>
  <path class="fil0" d="M14.2909 2.402c0.7431,0 1.4714,0.1777 2.0318,0.4897 0.0509,-0.1714 0.123,-0.3798 0.2199,-0.5986l-0.2121 0.0254 -0.2223 0.0233 -0.094 -0.2025 -0.2835 -0.5982 -0.5166 0.269 -0.2011 0.1021 -0.1608 -0.1583 -0.5615 -0.5555 -0.5605 0.5555 -0.1604 0.1583 -0.201 -0.1021 -0.5192 -0.269 -0.2799 0.5982 -0.0958 0.2025 -0.2219 -0.0233 -0.2114 -0.0254c0.0969,0.2188 0.1682,0.4272 0.2198,0.5986 0.5627,-0.312 1.2902,-0.4897 2.0302,-0.4897z"/>
  <path class="fil0" d="M25.6342 9.3207c0.0965,0.0333 0.1944,0.0481 0.2919,0.0481 0.4205,0 0.8262,-0.2722 0.9661,-0.5828 0,0 -0.7703,-0.0466 -1.5994,-0.888 -0.2635,-0.2725 -0.5427,-0.3541 -0.7823,-0.3541 -0.3721,0 -0.6513,0.1961 -0.6513,0.1961 1.0011,0.5333 1.205,1.3881 1.775,1.5807z"/>
  <path class="fil0" d="M2.6567 9.3684c0.0975,0 0.1953,-0.0144 0.2897,-0.0477 0.5715,-0.1926 0.7778,-1.0478 1.7775,-1.5803 0,0 -0.2799,-0.1965 -0.6502,-0.1965 -0.2406,0 -0.5195,0.0816 -0.7845,0.3545 -0.8279,0.841 -1.5979,0.888 -1.5979,0.888 0.1385,0.3102 0.5456,0.582 0.9654,0.582z"/>
  <path class="fil0" d="M25.3325 15.4595c-0.7746,-0.3818 -1.2637,-1.3955 -1.3817,-1.7603 -0.1286,2.0098 -1.1096,3.4043 -2.2563,4.7471 -0.5954,0.6961 -0.8029,1.3727 -0.8029,1.3727 0,0 0.1148,-0.7668 0.629,-1.3909 1.0704,-1.2853 2.0874,-2.8859 2.1627,-4.7363 0.052,-1.2918 -0.2795,-2.3388 -0.7979,-3.202 0.2897,0.8989 0.2484,1.9994 -0.7357,3.0271 0,0 1.9598,-2.3483 -0.7799,-4.7558 -1.0962,-0.9163 -2.2966,-1.482 -2.9139,-1.8828 2.2316,0.7283 3.3214,-0.0734 3.3214,-0.0734 -0.7128,0.6176 -1.6355,0.6074 -2.2075,0.518 0.1555,0.0756 0.3165,0.1549 0.4901,0.2481 1.8817,1.0219 3.5725,2.7038 3.8613,5.0326l0 -0.0179c0.4374,2.287 1.4114,2.8737 1.4114,2.8737zm0.5728 -2.6644c0.0176,0.0011 0.0322,0.0011 0.0502,0.0011 1.0485,0 1.404,-1.1233 1.404,-1.1233l-0.0205 0c-0.1925,0 -1.7517,-0.0455 -2.8542,-1.4464 -0.7254,-0.9213 -1.3201,-1.7312 -2.4944,-2.05l-0.1156 -0.0205 -0.025 -0.1176c-0.0326,-0.1792 0.0908,-0.3478 0.3692,-0.529 1.6209,-1.0612 0.5202,-2.415 0.5202,-2.415 0,0 -0.4629,1.0823 -1.4983,1.0823 -0.0247,0 -0.0512,-0.001 -0.0766,-0.001 -0.1177,-0.0064 -0.2315,-0.011 -0.3456,-0.0351l-0.1908 -0.0371c0,0 0.2954,-0.8033 -0.4174,-1.5404 -0.5367,-0.5565 -1.1898,-0.6512 -1.5669,-0.6512 -0.1897,0 -0.3102,0.0243 -0.3102,0.0243 0.3576,0.4679 0.6166,1.2446 0.2035,1.7238 -0.3576,0.412 -1.2301,0.4314 -1.2301,1.0453 0,0.26 0.2431,0.5633 0.6791,0.8357 1.3114,0.8258 2.6128,1.9221 3.1549,3.3906 0.6763,1.8317 -0.0858,3.0477 -1.1736,3.745 0,0 0.3414,0.3143 0.8357,0.3544 0.1008,0.0097 0.1993,0.0143 0.2909,0.0143 1.0442,0 1.5845,-0.4897 1.5845,-0.4897 0,0 -0.0891,0.6767 -0.6322,1.3049 -0.5017,0.5799 -1.1598,0.9219 -2.1641,0.9361 0,0 -0.0315,0.466 0.4131,0.8693 0.2845,0.2544 0.9414,0.3371 0.9414,0.3371 0,0 -1.2301,0.2495 -1.3661,2.0666 -0.0739,0.9845 -0.3255,1.3264 -0.3255,1.3264l0.0222 0c2.8549,0 2.7817,-2.4484 2.7817,-2.4484 0,0 0.1983,0.725 0.9952,0.9142 0.0961,0.025 0.1989,0.0349 0.2965,0.0349 0.2561,0 0.4791,-0.0603 0.4791,-0.0603 0,0 -0.417,-0.8796 -0.0032,-2.1101 0.3432,-1.0213 0.2877,-1.7775 0.2877,-1.7775 0,0 0.3845,0.5817 1.3383,0.5867l0.0099 0c0.7939,0 1.1399,-0.602 1.1399,-0.602 -1.9032,-0.7902 -1.7156,-3.3403 -1.7156,-3.3403 0,0 0.2473,0.1845 0.7286,0.2017z"/>
  <path class="fil0" d="M6.888 18.4463c-1.1463,-1.3429 -2.127,-2.7373 -2.2566,-4.7472 -0.1184,0.3649 -0.6064,1.3785 -1.3803,1.7604 0,0 0.9732,-0.5868 1.4104,-2.8737l0 0.0178c0.2894,-2.3286 1.9796,-4.0106 3.862,-5.0322 0.1724,-0.094 0.335,-0.1728 0.4897,-0.248 -0.5721,0.0891 -1.4951,0.0993 -2.2068,-0.5181 0,0 1.0898,0.8012 3.3203,0.0731 -0.6173,0.4011 -1.8167,0.9665 -2.9125,1.8828 -2.7411,2.4075 -0.7806,4.7559 -0.7806,4.7559 -0.9859,-1.0278 -1.0251,-2.1281 -0.7353,-3.0274 -0.5195,0.8634 -0.8512,1.9104 -0.7976,3.2022 0.0749,1.8504 1.0912,3.451 2.1595,4.7367 0.5167,0.6237 0.6329,1.3905 0.6329,1.3905 0,0 -0.2099,-0.6766 -0.805,-1.3727zm0.4587 -0.4433c0,0 0.6573,-0.0823 0.9425,-0.3371 0.4439,-0.4035 0.412,-0.8693 0.412,-0.8693 -1.0043,-0.0142 -1.6615,-0.3562 -2.1662,-0.9359 -0.54,-0.6285 -0.6298,-1.3053 -0.6298,-1.3053 0,0 0.54,0.4898 1.5828,0.4898 0.0941,0 0.1912,-0.0046 0.2923,-0.0142 0.495,-0.0401 0.8371,-0.3541 0.8371,-0.3541 -1.0887,-0.6974 -1.8509,-1.9134 -1.1753,-3.7453 0.5417,-1.4683 1.8428,-2.5648 3.1549,-3.3909 0.4356,-0.2722 0.6784,-0.5754 0.6784,-0.8354 0,-0.6138 -0.8714,-0.6333 -1.2284,-1.0453 -0.4134,-0.4792 -0.1544,-1.2559 0.2025,-1.7238 0,0 -0.1187,-0.0243 -0.3099,-0.0243 -0.3767,0 -1.0297,0.0947 -1.5666,0.6512 -0.7138,0.7371 -0.4176,1.5404 -0.4176,1.5404l-0.1908 0.0371c-0.1142,0.024 -0.229,0.0286 -0.3457,0.0351 -0.0268,0 -0.0505,0.001 -0.0756,0.001 -1.0382,0 -1.4986,-1.082 -1.4986,-1.082 0,0 -1.1004,1.3535 0.5202,2.4147 0.2785,0.1812 0.4015,0.3498 0.3689,0.529l-0.025 0.1173 -0.1181 0.0208c-1.1725,0.3187 -1.7679,1.129 -2.4937,2.05 -1.1019,1.401 -2.6595,1.4464 -2.8532,1.4464l-0.0215 0c0,0 0.3559,1.1233 1.4051,1.1233 0.0166,0 0.0325,0 0.0502,-0.0011 0.4823,-0.0174 0.7297,-0.2017 0.7297,-0.2017 0,0 0.1862,2.5499 -1.716,3.3402 0,0 0.3463,0.6024 1.1403,0.6024l0.0092 0c0.9544,-0.0057 1.3382,-0.5872 1.3382,-0.5872 0,0 -0.0555,0.7568 0.287,1.7777 0.4138,1.2308 -0.0014,2.1104 -0.0014,2.1104 0,0 0.2219,0.06 0.4777,0.06 0.0997,0 0.2014,-0.0098 0.2965,-0.0349 0.7958,-0.1892 0.9951,-0.9142 0.9951,-0.9142 0,0 -0.0731,2.4484 2.7821,2.4484l0.0205 0c0,0 -0.2495,-0.342 -0.3229,-1.3264 -0.1357,-1.8171 -1.3669,-2.0666 -1.3669,-2.0666z"/>
  <path class="fil0" d="M13.6466 8.9804l1.3457 0 0 0.4618c-0.158,-0.1936 -0.4664,-0.1544 -0.4664,-0.1544l0 0.6657c0,0 0.0116,0.3276 0.1264,0.4693l-0.666 0c0.1166,-0.1417 0.1272,-0.4693 0.1272,-0.4693l0 -0.6657c0,0 -0.3075,-0.0393 -0.4669,0.1544l0 -0.4618zm-1.4665 0.0692c0.0467,0.0502 0.0926,0.1046 0.1371,0.1598 0.0106,0.0127 0.0205,0.024 0.0311,0.0392 0.0411,0.0541 0.082,0.1121 0.1219,0.1711 0.0092,0.0116 0.0177,0.0257 0.0272,0.0392 0.0474,0.0724 0.093,0.1471 0.1378,0.2242 0.412,0.7109 1.0707,1.1358 1.6556,1.1369 0.5852,-0.0011 1.2435,-0.426 1.6566,-1.1369 0.0456,-0.0792 0.0919,-0.1556 0.1395,-0.2273 0.0071,-0.0103 0.0145,-0.0209 0.0212,-0.0312 0.0407,-0.0615 0.083,-0.1212 0.1275,-0.1784 0.0096,-0.0127 0.0184,-0.024 0.0272,-0.0347 0.046,-0.0573 0.0933,-0.1124 0.1417,-0.1637 0.0081,-0.0081 0.0151,-0.0158 0.0229,-0.0225 0.2096,-0.2146 0.4598,-0.3785 0.7869,-0.469l-0.1455 -0.0851 -0.0081 0 -0.5796 -0.3364 -0.5954 -0.3411 -1.5909 0.8662 -0.0042 -0.0035 -0.0032 0.0035 -1.5913 -0.8662 -0.5951 0.3411 -0.5806 0.3364 -0.0067 0 -0.1469 0.0851c0.328,0.0905 0.5767,0.2523 0.7876,0.4676 0.0088,0.0081 0.0155,0.0176 0.0254,0.0257z"/>
  <path class="fil0" d="M13.7837 6.0455l0 0.434 -0.0833 -0.0379c-0.0039,-0.0032 -0.1265,-0.0308 -0.3397,-0.2 -0.3526,-0.2732 -0.3597,-0.5254 -0.3597,-0.5254l0.7827 0.3293zm0.3693 2.0394l0 -2.704 -1.721 -0.5835 0.4542 2.6196 1.2668 0.6678z"/>
  <path class="fil0" d="M14.799 6.0455l0.7828 -0.3293c0,0 -0.0067,0.2522 -0.3601,0.5254 -0.2128,0.1693 -0.3358,0.1968 -0.3396,0.2l-0.0831 0.0379 0 -0.434zm0.8973 1.3715l0.4527 -2.6196 -1.7199 0.5835 0 2.704 1.2672 -0.6678z"/>
  <path class="fil0" d="M11.7196 14.352c0.1672,0.0609 0.3707,0.0735 0.4746,0.0735 0.0039,-0.0126 0.0099,-0.0286 0.0148,-0.0482 0.0092,-0.0305 0.0177,-0.0613 0.0244,-0.0948 0.0289,-0.1501 0.0392,-0.3193 0.0417,-0.4288 -0.0703,-0.0443 -0.1703,-0.1218 -0.2258,-0.2386 -0.064,-0.1343 -0.1552,-0.197 -0.2884,-0.197 -0.1731,0 -0.3586,0.1042 -0.4385,0.153 -0.0632,0.3738 0.2121,0.7128 0.3972,0.7809z"/>
  <path class="fil0" d="M15.5259 12.9179c-0.3194,0.3479 -0.9453,0.9528 -0.9754,0.9832l-0.0378 0.0381 -1.9771 -0.0315c-0.001,0.196 -0.0333,0.3626 -0.0639,0.4848 -0.005,0.0201 -0.0106,0.0413 -0.0159,0.0626l2.3514 0.4227c0.2448,-0.1711 0.9181,-0.6627 1.1795,-0.8554 -0.1897,-0.2776 -0.2081,-0.6071 -0.1654,-0.839 -0.1247,-0.0793 -0.2198,-0.1699 -0.2954,-0.2654z"/>
  <path class="fil0" d="M15.7937 10.5402c-0.4552,0.4517 -0.8919,0.6191 -1.2824,0.6578 -0.071,0.0073 -0.1424,0.0119 -0.2153,0.0119l-0.0095 0c-0.0731,0 -0.1448,-0.0046 -0.2156,-0.0119 -0.0682,-0.0059 -0.1395,-0.0169 -0.2113,-0.0331 -0.0258,0.1018 -0.058,0.3137 0.0346,0.5157 0.0827,0.1824 0.2506,0.318 0.4954,0.4086l0.082 0.0322 0.0014 0.0887c0,0.0262 0.0197,0.6017 0.6463,0.7614 0.1022,-0.1054 0.1951,-0.2008 0.2639,-0.2805 -0.1275,-0.3015 -0.0607,-0.6093 0.1251,-0.7601 -0.0081,0.032 -0.0894,0.7868 0.5153,1.0674l0.1 0.0473 -0.0301 0.1062c-0.0095,0.0318 -0.2117,0.7625 0.5213,1.0342l0.1296 0.0492 -0.0572 0.1257c-0.0131,0.028 -0.3,0.6906 0.3767,1.0673l1.4672 0 0 -1.1649c-0.522,-0.0638 -0.7428,-0.4833 -0.7997,-0.7801 -0.2428,-0.0417 -0.4304,-0.1464 -0.5594,-0.317 -0.3074,-0.4054 -0.0428,-0.7766 -0.0393,-0.7967 -0.0007,0.0032 0,0.3984 0.2435,0.6424 0.1212,0.1174 0.2643,0.2088 0.4806,0.2292l0.1071 0.0095 0.0092 0.1092c0.0017,0.0231 0.0604,0.5583 0.5579,0.6422l-0.0014 -2.3798c0,-0.3686 0.1078,-0.7394 0.2371,-1.0817l-2.9733 0z"/>
  <polygon class="fil0" points="11.8448,11.6308 11.8045,13.1458 11.977,13.1723 12.3982,11.7182 12.1847,11.2712 "/>
  <path class="fil0" d="M12.7568 17.2408c-0.0487,-0.0013 -0.0847,-0.0426 -0.0819,-0.0922 0.0042,-0.047 0.0442,-0.084 0.0926,-0.0798 0.0492,0.0018 0.0841,0.0452 0.0823,0.0916 -0.0046,0.048 -0.0456,0.0847 -0.093,0.0804zm3.7317 1.3415c0.013,0 0.0275,0.0018 0.0417,0.0054 0.2622,0.0748 0.3283,1.0194 0.7876,1.1035 0.0457,0.0096 0.0869,0.0124 0.1234,0.0124 0.1328,0 0.212,-0.0566 0.2975,-0.1577 0,0 -0.2315,-0.3631 -0.4039,-0.6084 -0.2301,-0.3212 -0.4082,-0.7088 -0.8364,-0.7088 -0.0099,0 -0.0223,0 -0.0329,0.0013 -0.141,0.0071 -0.228,0.0759 -0.228,0.0759 -0.1732,-0.1092 -0.335,-0.1458 -0.4806,-0.1458 -0.2679,0 -0.4763,0.1229 -0.5809,0.1229l-0.0036 0 -0.9555 -0.0944c-0.1491,-0.0145 -0.2675,-0.165 -0.3099,-0.2237 -0.0105,-0.0162 -0.0165,-0.0253 -0.0165,-0.0253 0,-0.0262 0,-0.0528 -0.0018,-0.0763 -0.0322,-0.7814 -0.6368,-1.1156 -0.8523,-1.121 0,0 0.0254,-0.1487 -0.0329,-0.2052l-0.211 0.2557 -0.6913 -0.347 0.4933 0.5765 -0.4177 0.4689c-0.0526,0.0533 -0.0459,0.1254 -0.0239,0.1561l0.1802 0.1595 0.229 -0.1388c0.0113,-0.0086 0.0325,-0.0109 0.0576,-0.0109 0.0632,0 0.1583,0.0161 0.2434,0.0161 0.0937,0 0.1743,-0.0197 0.1841,-0.1074 -0.0289,0.2897 -0.2979,0.793 -0.1212,1.1887l0.1308 0.2986 -0.8446 -0.1216 -0.3954 0.6676c-0.1219,0.2224 -0.141,0.4625 -0.0237,0.5936l0.1478 0.1849c0,0 0.2075,-0.2198 0.254,-0.3647l-0.0674 -0.0738c-0.0562,-0.0623 -0.0538,-0.1176 -0.0187,-0.1845l0.2477 -0.4113 0.9972 0.2349 0.0527 -0.0897c0.0678,-0.1128 0.165,-0.1459 0.2717,-0.1459 0.0446,0 0.0895,0.0052 0.1361,0.0127 0.1855,0.0364 0.4897,0.0854 0.7943,0.0854 0.3343,0 0.6661,-0.0596 0.8428,-0.2578 0.3615,0.5353 1.093,0.6205 1.0354,0.8925l-0.1925 0.9174c0.1272,-0.0056 0.2501,-0.0137 0.3671,-0.0301l0.183 -0.9541c0.0205,-0.1042 0.0396,-0.2438 0.0396,-0.2438 -0.0706,-0.0717 -0.2417,-0.2229 -0.3378,-0.4071 -0.1293,-0.248 -0.0594,-0.3777 -0.1792,-0.7004 0,0 0.0368,-0.0749 0.1216,-0.0749z"/>
  <path class="fil0" d="M11.3953 19.4502c0,0 0.3311,-0.1361 0.3601,-0.2326l-0.0442 -0.1105c-0.0312,-0.0721 -0.0268,-0.15 0.0336,-0.1919l0.3565 -0.2471 0.5962 0.1149c0,0 -0.1078,-0.1353 -0.0976,-0.3155l-0.569 -0.1205 -0.536 0.3269c-0.2304,0.1717 -0.247,0.453 -0.1711,0.6197l0.0714 0.1567z"/>
  <path class="fil0" d="M15.6114 21.0047c0.1067,-0.0042 0.2251,-0.006 0.3537,-0.006 0,0 0.3071,-0.8971 0.3244,-0.9255 -0.1721,-0.076 -0.529,-0.2654 -0.6668,-0.352 0.0912,0.1364 0.3123,0.2916 0.2686,0.4117l-0.2799 0.8718z"/>
  <path class="fil1" d="M18.5314 15.6849l-8.4793 0 0 3.1894c0,1.3046 0.9439,2.1209 2.3369,2.1209 1.1637,0 1.4708,0.0456 1.9033,0.475 0.2986,-0.2976 0.5449,-0.4086 1.052,-0.4499l0.0116 -0.0496 0.2676 -0.8261c-0.0148,-0.0184 -0.452,-0.5149 -0.452,-0.5149 -0.1732,0.0575 -0.3191,0.067 -0.563,0.067 -0.2512,0 -0.5343,-0.0292 -0.8417,-0.0867 -0.0308,-0.0072 -0.0597,-0.0104 -0.0883,-0.0104 -0.0379,0 -0.0403,0.0032 -0.0506,0.0219l-0.053 0.0872 -0.0968 0.1609 -0.1834 -0.0424 -0.8139 -0.1915 -0.1117 0.184 0.017 0.0199 0.099 0.1092 -0.0442 0.142c-0.0598,0.1857 -0.2541,0.4032 -0.3131,0.4628l-0.2035 0.2182 -0.1852 -0.2343 -0.1391 -0.1746c-0.1466,-0.164 -0.1803,-0.4141 -0.098,-0.677 -0.0017,0.0013 -0.0049,0.0029 -0.0081,0.0031l-0.2293 0.0952 -0.1036 -0.2245 -0.0724 -0.1591c-0.1247,-0.2798 -0.0788,-0.6886 0.2576,-0.936l0.6551 -0.3696 0.6231 0.1223c0.0148,-0.0598 0.0374,-0.2739 0.0551,-0.3285 -0.012,-0.0013 -0.0229,-0.0041 -0.0357,-0.0041l-0.3587 0.1343 -0.347 -0.239c0,0 -0.1354,-0.1307 -0.0124,-0.2611l0.3354 -0.5082 -0.8502 -1.0668 1.3064 0.5364 0.0869 -0.1074 0.1764 -0.2114 0.2003 0.1905c0.0562,0.0544 0.0887,0.1216 0.1046,0.1886 0.3597,0.1402 1.0054,0.5541 1.0619,1.2263l-0.2017 0.0805 0 0.005c0.0466,0.0548 0.0847,0.0772 0.0965,0.0795l0.9326 0.0915c0.0236,-0.0038 0.053,-0.0145 0.0861,-0.0239 0.1159,-0.0397 0.2895,-0.097 0.4961,-0.097 0.1679,0 0.3301,0.0385 0.4866,0.1117 0.0573,-0.0218 0.1283,-0.0379 0.21,-0.0431l0.0449 -0.0011c0.4989,0 0.7477,0.3728 0.9467,0.6707 0.0332,0.0516 0.066,0.1001 0.1007,0.1482 0.1742,0.2462 0.4022,0.6056 0.4113,0.6212l0.1025 0.1608 -0.1254 0.1463c-0.0969,0.1119 -0.2428,0.2438 -0.4929,0.2438 -0.0516,0 -0.1078,-0.0057 -0.169,-0.0173 -0.053,-0.0099 -0.1014,-0.0258 -0.1481,-0.0453 -0.007,0.0492 -0.0176,0.1078 -0.0264,0.1584l-0.1637 0.853c0.9782,-0.2403 1.5991,-0.9786 1.5991,-2.0357l-0.0018 -3.1894z"/>
  <path class="fil1" d="M10.0521 15.4281l6.5951 0c-0.3294,-0.3403 -0.3247,-0.7711 -0.241,-1.0509 -0.0958,-0.046 -0.1749,-0.1011 -0.2456,-0.1619 -0.2579,0.19 -1.0443,0.7628 -1.2499,0.9065l-0.0442 0.0294 -2.5881 -0.4678 -0.0527 0c-0.0622,0 -0.153,-0.0025 -0.2523,-0.0143 -0.0278,0.117 -0.1286,0.1966 -0.2441,0.1966 -0.0131,0 -0.0279,-0.0011 -0.0414,-0.0037 -0.0671,-0.0118 -0.1261,-0.046 -0.1654,-0.1027 -0.0407,-0.0558 -0.0565,-0.1219 -0.0456,-0.1901l0.0099 -0.0559c-0.2669,-0.1878 -0.5132,-0.6082 -0.404,-1.0509l0.0103 -0.0468 0.0378 -0.0269c0.0057,-0.0041 0.0502,-0.0347 0.1173,-0.0724l-0.1883 -0.029c-0.0703,-0.0124 -0.1173,-0.0781 -0.1067,-0.1475 0.0123,-0.0702 0.0784,-0.1205 0.1476,-0.107l0.4482 0.0708 0.0406 -1.5777 0.6668 -0.7052 0.4159 0.876 -0.4388 1.5178 0.3958 0.0624c0.0696,0.0107 0.1173,0.0761 0.1067,0.1479 -0.0102,0.0634 -0.0646,0.1064 -0.1265,0.1064 -0.007,0 -0.0137,0 -0.0208,-0.0008l-0.3219 -0.0518c0.0046,0.0096 0.0106,0.0153 0.0149,0.0253 0.0339,0.0711 0.1102,0.1214 0.1548,0.1434l1.9728 0.0314c0.0837,-0.0812 0.2905,-0.284 0.504,-0.4985 -0.4859,-0.1845 -0.6622,-0.6026 -0.6916,-0.8804 -0.2714,-0.1157 -0.459,-0.289 -0.5626,-0.5139 -0.1265,-0.279 -0.0816,-0.5583 -0.0477,-0.694 -0.2633,-0.096 -0.54,-0.2712 -0.8227,-0.5517l-2.9719 0c0.1276,0.3424 0.2354,0.7131 0.2354,1.0817l0 3.8061z"/>
  <path class="fil2" d="M12.7674 17.0688c-0.0484,-0.0047 -0.0883,0.0329 -0.0926,0.0802 -0.0032,0.0492 0.0333,0.0909 0.0819,0.0918 0.0474,0.004 0.0883,-0.0322 0.093,-0.0804 0.0018,-0.0464 -0.0332,-0.0895 -0.0823,-0.0916z"/>
  <path class="fil2" d="M16.6974 23.7565l-0.387 -1.0655c0.4605,-0.1403 1.253,-0.442 1.6078,-0.6425l-0.2367 0.775 0.8025 0.2668c-0.4855,0.2435 -1.0739,0.4711 -1.7866,0.6662zm-2.4048 0.9575c-0.9333,0 -1.9983,-0.2148 -2.3125,-0.3265l0.4767 -1.2902c0.3959,0.1155 1.2189,0.2382 1.8161,0.2343l0.0378 0c0.5969,0.0039 1.4188,-0.1188 1.8164,-0.2343l0.476 1.2902c-0.3138,0.1117 -1.3789,0.3265 -2.3104,0.3265zm-4.1935 -1.6237l0.8036 -0.2668 -0.2374 -0.775c0.3544,0.2004 1.1477,0.5022 1.6074,0.6425l-0.3877 1.0655c-0.7102,-0.1951 -1.3011,-0.4227 -1.7859,-0.6662zm8.421 -0.2367l-0.4883 -0.1873 0.1346 -0.505 0.1488 -0.5498c0,0 -0.8655,0.4696 -2.0853,0.8219 -0.3459,0.099 -0.6077,0.1445 -0.6077,0.1445l0 0.3746c0,0 -0.6527,0.1133 -1.3114,0.1133l-0.0378 0c-0.6601,0 -1.3114,-0.1133 -1.3114,-0.1133l0 -0.3746c0,0 -0.2625,-0.0456 -0.6078,-0.1445 -1.2195,-0.3523 -2.0842,-0.8219 -2.0842,-0.8219l0.1463 0.5498 0.1374 0.505 -0.4901 0.1873 -0.5434 0.2031c0.623,0.3007 1.4862,0.7382 2.2757,0.9544l-0.1862 0.5093c0,0 1.0022,0.4562 2.6708,0.4605l0 0.0011 0.0226 0 0 -0.0011c1.6711,-0.0043 2.6719,-0.4605 2.6719,-0.4605l-0.187 -0.5093c0.7901,-0.2162 1.6545,-0.6537 2.2748,-0.9544l-0.5421 -0.2031z"/>
  <path class="fil2" d="M12.2522 2.3185l0.2219 0.0233 0.0958 -0.2025 0.2799 -0.5982 0.5192 0.2686 0.201 0.1029 0.1604 -0.1587 0.5605 -0.5559 0.5615 0.5559 0.1608 0.1587 0.2011 -0.1029 0.5166 -0.2686 0.2835 0.5982 0.094 0.2025 0.2223 -0.0233 0.2121 -0.0254c-0.0969,0.2188 -0.169,0.4269 -0.2199,0.599 -0.5604,-0.3124 -1.2888,-0.4901 -2.0318,-0.4901 -0.7401,0 -1.4676,0.1777 -2.0302,0.4901 -0.0516,-0.1721 -0.1229,-0.3802 -0.2198,-0.599l0.2114 0.0254zm2.0387 0.3955c0.9944,0 1.7898,0.3297 2.2291,0.6806 0,0 0.1307,-0.7859 0.5764,-1.4792l-0.8008 0.0912 -0.4195 -0.8901 -0.8047 0.4148 -0.7805 -0.7714 -0.7785 0.7714 -0.8068 -0.4148 -0.4184 0.8901 -0.8004 -0.0912c0.446,0.6933 0.576,1.4792 0.576,1.4792 0.4424,-0.3509 1.235,-0.6806 2.2281,-0.6806z"/>
  <path class="fil2" d="M26.8922 15.9336c0,0 -0.346,0.6023 -1.1403,0.6023l-0.0095 0c-0.9538,-0.0057 -1.3379,-0.5872 -1.3379,-0.5872 0,0 0.0551,0.7564 -0.2884,1.7777 -0.4138,1.2308 0.0035,2.1101 0.0035,2.1101 0,0 -0.2226,0.0603 -0.4788,0.0603 -0.0983,0 -0.2007,-0.0098 -0.2972,-0.0349 -0.7961,-0.1892 -0.9948,-0.9142 -0.9948,-0.9142 0,0 0.0732,2.4484 -2.7817,2.4484l-0.0222 0c0,0 0.2515,-0.342 0.3258,-1.3264 0.1357,-1.8171 1.3658,-2.0666 1.3658,-2.0666 0,0 -0.6566,-0.0823 -0.9414,-0.3371 -0.4449,-0.4035 -0.4131,-0.8693 -0.4131,-0.8693 1.0043,-0.0142 1.6626,-0.3562 2.1638,-0.9361 0.5434,-0.6282 0.6325,-1.3049 0.6325,-1.3049 0,0 -0.5403,0.4897 -1.5845,0.4897 -0.0919,0 -0.1898,-0.0047 -0.2909,-0.0143 -0.4943,-0.0401 -0.8357,-0.3541 -0.8357,-0.3541 1.0877,-0.6974 1.8499,-1.9136 1.174,-3.7453 -0.5421,-1.4683 -1.8439,-2.5648 -3.1553,-3.3906 -0.436,-0.2725 -0.6791,-0.5757 -0.6791,-0.8357 0,-0.6138 0.8728,-0.6333 1.2301,-1.0453 0.4131,-0.4792 0.1541,-1.2559 -0.2039,-1.7238 0,0 0.1205,-0.0243 0.3106,-0.0243 0.3774,0 1.0304,0.0947 1.5669,0.6512 0.7128,0.7371 0.4174,1.5404 0.4174,1.5404l0.1908 0.0371c0.1141,0.024 0.2279,0.0286 0.3456,0.0351 0.0254,0 0.0516,0.001 0.077,0.001 1.0354,0 1.4979,-1.0823 1.4979,-1.0823 0,0 1.1008,1.3538 -0.5198,2.415 -0.2789,0.1812 -0.4022,0.3498 -0.3696,0.529l0.025 0.1176 0.1156 0.0205c1.1743,0.3187 1.769,1.129 2.4944,2.05 1.1026,1.401 2.6617,1.4464 2.8542,1.4464l0.0208 0c0,0 -0.3558,1.1233 -1.4047,1.1233 -0.0172,0 -0.0322,0 -0.0494,-0.0011 -0.4817,-0.0174 -0.729,-0.2017 -0.729,-0.2017 0,0 -0.1876,2.55 1.7156,3.3403zm-0.9372 -2.7937c1.286,0 1.7164,-1.3079 1.7337,-1.3638l0.1438 -0.461 -0.482 0.015 -0.0018 0c-0.1696,0 -1.5888,-0.0379 -2.5945,-1.3161l-0.0947 -0.1185c-0.6577,-0.8356 -1.2807,-1.6307 -2.3949,-1.9933 0.0322,-0.0292 0.0784,-0.0646 0.1416,-0.106 0.5912,-0.3884 0.9351,-0.8612 1.0216,-1.4093 0.1265,-0.8251 -0.4,-1.4831 -0.4233,-1.51l-0.358 -0.4427 -0.2237 0.5251c-0.0148,0.0329 -0.3908,0.8736 -1.182,0.8736l-0.059 0c-0.0541,-0.0028 -0.1064,-0.005 -0.157,-0.0092 0.0279,-0.3745 -0.0406,-0.9552 -0.5672,-1.5 -0.6329,-0.6552 -1.4089,-0.7535 -1.8146,-0.7535 -0.2166,0 -0.3608,0.0269 -0.3766,0.0283l-0.5407 0.1074 0.3336 0.4396c0.2615,0.3389 0.499,0.9643 0.2177,1.2909 -0.0905,0.1042 -0.2753,0.1883 -0.452,0.2732 -0.3639,0.1671 -0.8619,0.4014 -0.8619,0.9958 0,0.3842 0.299,0.7866 0.8396,1.1283 1.6008,1.0071 2.5885,2.0577 3.0154,3.2174 0.6601,1.7839 -0.2014,2.8013 -1.0376,3.3378l-0.3749 0.2411 0.3283 0.3016c0.0446,0.039 0.4457,0.3929 1.039,0.4437 0.1124,0.0072 0.2198,0.0134 0.3205,0.0134 0.3802,0 0.7043,-0.0596 0.9675,-0.1402 -0.0721,0.1268 -0.1619,0.2564 -0.2736,0.3865 -0.4777,0.5537 -1.0661,0.8057 -1.9113,0.8194l-0.3145 0.005 -0.024 0.3151c-0.0028,0.0636 -0.0265,0.6481 0.5265,1.145 0.0845,0.077 0.187,0.1402 0.2944,0.1918 -0.3752,0.3378 -0.7566,0.9262 -0.8304,1.9337 -0.0622,0.841 -0.2625,1.1524 -0.2654,1.1555l-0.347 0.5301 0.6276 0.0085c1.0372,0 1.8309,-0.2859 2.3814,-0.853 0.3252,-0.3355 0.511,-0.7142 0.6209,-1.0495 0.1803,0.1537 0.4131,0.2886 0.7174,0.3604 0.1148,0.0267 0.241,0.0417 0.3777,0.0417 0.2926,0 0.5382,-0.0622 0.5654,-0.0688l0.4004 -0.1065 -0.177 -0.3738c-0.0127,-0.0301 -0.347,-0.7806 0.0127,-1.8513 0.1545,-0.4633 0.2339,-0.8778 0.2725,-1.2007 0.2523,0.1314 0.5901,0.2399 1.0269,0.2412 0.9919,0 1.4297,-0.741 1.4492,-0.772l0.1954 -0.3403 -0.3622 -0.1492c-1.1824,-0.4909 -1.4439,-1.8091 -1.4965,-2.5224 0.1067,0.0208 0.229,0.0397 0.3668,0.0436l0.0607 0.0015z"/>
  <path class="fil2" d="M24.5105 7.5439c0.2392,0 0.5188,0.0816 0.7827,0.3545 0.8287,0.841 1.5994,0.888 1.5994,0.888 -0.1403,0.3102 -0.546,0.582 -0.9668,0.582 -0.0972,0 -0.1947,-0.0144 -0.2916,-0.0477 -0.57,-0.1926 -0.7739,-1.0478 -1.7753,-1.5803 0,0 0.2795,-0.1965 0.6516,-0.1965zm-0.8146 0.5007c0.4792,0.2551 0.7591,0.5976 1.004,0.9011 0.2406,0.2965 0.4689,0.5813 0.8269,0.7001 0.1265,0.0435 0.2614,0.0644 0.399,0.0644 0.5364,0 1.0753,-0.3285 1.2796,-0.7828l0.2056 -0.4559 -0.4972 -0.0293c-0.0233,-0.0007 -0.6632,-0.0594 -1.3749,-0.7862 -0.2926,-0.2986 -0.6471,-0.4552 -1.0283,-0.4552 -0.4665,0 -0.8117,0.2329 -0.8498,0.2568l-0.457 0.3219 0.4922 0.265z"/>
  <path class="fil2" d="M23.9211 12.5859l0 0.0175c-0.2884,-2.3285 -1.9794,-4.0104 -3.861,-5.032 -0.1739,-0.0936 -0.335,-0.1728 -0.4908,-0.2484 0.5725,0.0891 1.4955,0.0997 2.2075,-0.518 0,0 -1.0894,0.8018 -3.3214,0.0734 0.6173,0.4008 1.8182,0.9665 2.9143,1.8828 2.7397,2.4075 0.7799,4.7558 0.7799,4.7558 0.9845,-1.0275 1.0254,-2.1281 0.7357,-3.0271 0.5184,0.863 0.8498,1.91 0.7983,3.202 -0.0756,1.8504 -1.0926,3.4508 -2.1627,4.7363 -0.5146,0.6241 -0.6294,1.3909 -0.6294,1.3909 0,0 0.2078,-0.6766 0.8029,-1.3727 1.1467,-1.3429 2.1277,-2.7373 2.2559,-4.7471 0.1184,0.365 0.6075,1.3784 1.3821,1.7604 0,0 -0.9739,-0.5868 -1.4114,-2.8737z"/>
  <path class="fil2" d="M9.016 21.3961c-2.8552,0 -2.7821,-2.4484 -2.7821,-2.4484 0,0 -0.1992,0.725 -0.9951,0.9142 -0.0951,0.025 -0.1968,0.0349 -0.2965,0.0349 -0.2561,0 -0.4777,-0.0603 -0.4777,-0.0603 0,0 0.4152,-0.8793 0.0014,-2.1101 -0.3425,-1.0209 -0.287,-1.7777 -0.287,-1.7777 0,0 -0.3837,0.5815 -1.3382,0.5872l-0.0092 0c-0.794,0 -1.1403,-0.6024 -1.1403,-0.6024 1.9022,-0.7902 1.716,-3.3402 1.716,-3.3402 0,0 -0.2474,0.1843 -0.7297,0.2017 -0.0177,0.0011 -0.0336,0.0011 -0.0502,0.0011 -1.0492,0 -1.4051,-1.1233 -1.4051,-1.1233l0.0215 0c0.1937,0 1.7514,-0.0455 2.8532,-1.4464 0.7258,-0.921 1.3209,-1.7312 2.4937,-2.05l0.1181 -0.0208 0.025 -0.1173c0.0326,-0.1792 -0.0905,-0.3478 -0.3689,-0.529 -1.6205,-1.0612 -0.5202,-2.4147 -0.5202,-2.4147 0,0 0.4605,1.082 1.4986,1.082 0.0251,0 0.0488,-0.001 0.0756,-0.001 0.1163,-0.0064 0.2315,-0.011 0.3457,-0.0351l0.1908 -0.0371c0,0 -0.2965,-0.8033 0.4176,-1.5404 0.5368,-0.5565 1.1895,-0.6512 1.5666,-0.6512 0.1912,0 0.3095,0.0243 0.3095,0.0243 -0.3565,0.4679 -0.6155,1.2446 -0.2024,1.7238 0.3573,0.412 1.2287,0.4314 1.2287,1.0449 0,0.2604 -0.2428,0.5637 -0.6784,0.8358 -1.3121,0.8261 -2.6132,1.9227 -3.1549,3.3909 -0.6756,1.8319 0.0865,3.048 1.1753,3.7453 0,0 -0.3421,0.314 -0.8371,0.3541 -0.1011,0.0096 -0.1982,0.0142 -0.2923,0.0142 -1.0428,0 -1.5828,-0.4898 -1.5828,-0.4898 0,0 0.0898,0.6768 0.6298,1.3053 0.5047,0.5797 1.1619,0.9217 2.1662,0.9359 0,0 0.0319,0.4658 -0.412,0.8693 -0.2852,0.2547 -0.9425,0.3371 -0.9425,0.3371 0,0 1.2312,0.2495 1.3669,2.0666 0.0734,0.9845 0.3229,1.3264 0.3229,1.3264l-0.0205 0zm0.3036 -0.1957c-0.0007,-0.0031 -0.2003,-0.3144 -0.2639,-1.1555 -0.0746,-1.0075 -0.4559,-1.5959 -0.8319,-1.9337 0.1085,-0.0516 0.2093,-0.1148 0.2944,-0.1918 0.5526,-0.4969 0.529,-1.0814 0.5255,-1.145l-0.0216 -0.3151 -0.3165 -0.005c-0.8428,-0.0137 -1.4323,-0.2656 -1.91,-0.8194 -0.1106,-0.13 -0.2003,-0.2597 -0.2736,-0.3865 0.2629,0.0806 0.5852,0.1402 0.9661,0.1402 0.1025,0 0.2089,-0.0062 0.3209,-0.0135 0.5936,-0.0508 0.9954,-0.4043 1.0403,-0.4436l0.3287 -0.3016 -0.3752 -0.2411c-0.8389,-0.5364 -1.697,-1.5539 -1.0379,-3.3378 0.4268,-1.1598 1.4131,-2.2103 3.0164,-3.2174 0.5406,-0.3417 0.8371,-0.7442 0.8371,-1.1287 0,-0.594 -0.4965,-0.8283 -0.8605,-0.9954 -0.1774,-0.0848 -0.3619,-0.169 -0.452,-0.2732 -0.2817,-0.3266 -0.0442,-0.952 0.2173,-1.2909l0.3358 -0.4396 -0.5431 -0.1074c-0.0159,-0.0014 -0.1584,-0.0283 -0.376,-0.0283 -0.406,0 -1.1803,0.0983 -1.8128,0.7535 -0.5273,0.5452 -0.5965,1.1251 -0.5697,1.5 -0.0506,0.0042 -0.1022,0.0064 -0.1563,0.0092l-0.0576 0c-0.7936,0 -1.1686,-0.8407 -1.1831,-0.8736l-0.223 -0.5251 -0.3614 0.4427c-0.0202,0.0268 -0.5481,0.6849 -0.4198,1.5097 0.0851,0.5484 0.4296,1.0209 1.0212,1.4096 0.0643,0.0414 0.1088,0.0767 0.1413,0.106 -1.116,0.3626 -1.7386,1.1577 -2.3956,1.9931l-0.0951 0.1187c-1.0043,1.2783 -2.4259,1.3161 -2.5959,1.3161l-0.4848 -0.0152 0.1478 0.4612c0.0169,0.0559 0.4456,1.3638 1.7322,1.3638l0.0622 -0.0016c0.136,-0.0038 0.2579,-0.0226 0.3667,-0.0435 -0.0533,0.7132 -0.3155,2.0314 -1.4982,2.5224l-0.3612 0.1492 0.1954 0.3403c0.0191,0.0311 0.4577,0.772 1.4517,0.772 0.4343,-0.0013 0.7718,-0.1098 1.0244,-0.2408 0.0386,0.3225 0.1177,0.737 0.2729,1.2003 0.3597,1.0704 0.0247,1.8213 0.0123,1.8513l-0.1781 0.3738 0.4018 0.1065c0.0265,0.0066 0.2732,0.0688 0.5651,0.0688 0.1364,0 0.2629,-0.0149 0.3767,-0.0417 0.3046,-0.0718 0.5396,-0.2068 0.7184,-0.3604 0.1092,0.3353 0.2958,0.714 0.6201,1.0495 0.5519,0.5672 1.345,0.853 2.3814,0.853l0.6283 -0.0085 -0.3477 -0.5301z"/>
  <path class="fil2" d="M3.2892 7.898c0.265,-0.2725 0.5439,-0.3544 0.7845,-0.3544 0.37,0 0.6506,0.1968 0.6506,0.1968 -1.0001,0.5329 -1.2064,1.3876 -1.7779,1.5803 -0.0944,0.0336 -0.1922,0.0477 -0.2897,0.0477 -0.4198,0 -0.8269,-0.2718 -0.9654,-0.582 0,0 0.77,-0.047 1.5979,-0.8884zm-0.6325 1.8121c0.1377,0 0.2724,-0.0204 0.3996,-0.064 0.3587,-0.119 0.5867,-0.4035 0.8277,-0.7003 0.2459,-0.3032 0.5226,-0.646 1.0025,-0.9014l0.4936 -0.2647 -0.4583 -0.3219c-0.0386,-0.0243 -0.3823,-0.2565 -0.8481,-0.2565 -0.3823,0 -0.7367,0.1563 -1.0297,0.4549 -0.712,0.7268 -1.3503,0.7855 -1.3735,0.7862l-0.4969 0.0289 0.2043 0.4563c0.2049,0.4544 0.7435,0.7826 1.2789,0.7826z"/>
  <path class="fil2" d="M4.9006 13.6919c-0.0534,-1.2918 0.2781,-2.3389 0.7972,-3.2022 -0.2895,0.8991 -0.2502,1.9996 0.7356,3.0276 0,0 -1.9601,-2.3486 0.7806,-4.7561 1.0959,-0.9163 2.2956,-1.482 2.9129,-1.8828 -2.2313,0.7283 -3.3207,-0.0731 -3.3207,-0.0731 0.7121,0.6173 1.6348,0.6071 2.2068,0.5177 -0.1544,0.0756 -0.3173,0.1549 -0.4897,0.2481 -1.8825,1.0219 -3.5726,2.7038 -3.8624,5.0325l0 -0.0178c-0.4367,2.287 -1.41,2.8737 -1.41,2.8737 0.7743,-0.3818 1.2615,-1.3955 1.3803,-1.7603 0.1296,2.0098 1.1103,3.4043 2.257,4.7471 0.5947,0.6961 0.8046,1.3727 0.8046,1.3727 0,0 -0.1162,-0.7668 -0.6329,-1.3909 -1.0682,-1.2853 -2.0849,-2.8859 -2.1595,-4.7363z"/>
  <path class="fil2" d="M13.6466 8.9804l0 0.4618c0.1594,-0.1936 0.4669,-0.1544 0.4669,-0.1544l0 0.6657c0,0 -0.0106,0.3276 -0.1272,0.4693l0.666 0c-0.1148,-0.1417 -0.1264,-0.4693 -0.1264,-0.4693l0 -0.6657c0,0 0.3084,-0.0393 0.4664,0.1544l0 -0.4618 -1.3457 0z"/>
  <path class="fil2" d="M13.3604 6.2417c0.2135,0.169 0.3361,0.1972 0.3403,0.2l0.083 0.0382 0 -0.4346 -0.7823 -0.329c0,0 0.0067,0.2519 0.359,0.5254z"/>
  <path class="fil2" d="M15.2217 6.2417c0.3534,-0.2735 0.3604,-0.5254 0.3604,-0.5254l-0.7831 0.329 0 0.4346 0.0831 -0.0382c0.0042,-0.0028 0.1268,-0.0311 0.3396,-0.2z"/>
  <path class="fil2" d="M14.2909 5.0837l-1.8853 -0.745c0.1604,-0.3795 0.8997,-0.7025 1.8853,-0.7035 0.987,0.001 1.7262,0.3239 1.8856,0.7035l-1.8856 0.745zm1.4057 2.3337l-1.2675 0.6675 0 -2.704 1.7199 -0.5838 -0.4524 2.6202zm0.7848 0.7174l0.5796 0.3364 0.0081 0 0.1455 0.0851c-0.3272,0.0905 -0.577,0.2544 -0.7869,0.469 -0.0081,0.0067 -0.0148,0.0144 -0.0229,0.0225 -0.0485,0.0513 -0.0958,0.1064 -0.1417,0.1637 -0.0085,0.0106 -0.0176,0.0219 -0.0272,0.0347 -0.0445,0.0572 -0.0868,0.1169 -0.1275,0.1784 -0.0067,0.0102 -0.0141,0.0208 -0.0212,0.0312 -0.0481,0.0717 -0.094,0.1481 -0.1399,0.2273 -0.4127,0.7109 -1.071,1.1358 -1.6562,1.1369 -0.5852,-0.0011 -1.2439,-0.426 -1.6556,-1.1369 -0.0449,-0.077 -0.0905,-0.1518 -0.1378,-0.2242 -0.0095,-0.0134 -0.0183,-0.0275 -0.0268,-0.0392 -0.0403,-0.059 -0.0812,-0.117 -0.1226,-0.1711 -0.0102,-0.0151 -0.0201,-0.0264 -0.0308,-0.0392 -0.0446,-0.0552 -0.0905,-0.1096 -0.1371,-0.1598 -0.0102,-0.0081 -0.0166,-0.0176 -0.025,-0.0257 -0.2114,-0.2153 -0.4601,-0.3771 -0.7877,-0.4676l0.147 -0.0851 0.0063 0 0.5806 -0.3364 0.5955 -0.3411 1.5909 0.8662 0.0032 -0.0035 0.0045 0.0035 1.5906 -0.8662 0.5954 0.3411zm2.2857 2.4053c-0.1297,0.3425 -0.2368,0.7131 -0.2368,1.0818l0.0011 2.3797c-0.4975,-0.0834 -0.5562,-0.6188 -0.5579,-0.6421l-0.0092 -0.109 -0.1071 -0.0095c-0.2163,-0.0206 -0.3594,-0.1118 -0.4802,-0.2294 -0.2439,-0.2438 -0.2446,-0.639 -0.2439,-0.6424 -0.0035,0.0201 -0.2686,0.3913 0.0393,0.7967 0.129,0.1706 0.3166,0.2756 0.559,0.317 0.0573,0.2971 0.2781,0.7166 0.8001,0.7803l0 1.1646 -1.4672 0c-0.6767,-0.3765 -0.3899,-1.039 -0.3767,-1.0672l0.0572 -0.1258 -0.1296 -0.0489c-0.7325,-0.2717 -0.5308,-1.0025 -0.5209,-1.0342l0.0293 -0.1065 -0.0997 -0.0473c-0.6046,-0.2805 -0.523,-1.0355 -0.5149,-1.0673 -0.1862,0.1511 -0.2534,0.4586 -0.1251,0.7603 -0.0692,0.0794 -0.1622,0.1752 -0.2643,0.2806 -0.6266,-0.1598 -0.646,-0.7352 -0.646,-0.7618l-0.0014 -0.0885 -0.0826 -0.032c-0.2445,-0.0906 -0.4124,-0.2265 -0.4954,-0.4089 -0.0926,-0.2018 -0.0597,-0.4138 -0.0343,-0.5158 0.0717,0.0165 0.143,0.0275 0.2113,0.0333 0.0703,0.0073 0.1428,0.0118 0.2153,0.0118l0.0102 0c0.0724,0 0.1438,-0.0045 0.2149,-0.0118 0.3905,-0.0387 0.8272,-0.2062 1.2828,-0.6579l2.9729 0zm-1.833 10.3703l0.1637 -0.8536c0.0088,-0.0503 0.0194,-0.1089 0.0264,-0.1581 0.0463,0.0194 0.0951,0.0351 0.1481,0.0449 0.0612,0.0117 0.1177,0.0177 0.169,0.0177 0.2498,0 0.3958,-0.1314 0.4925,-0.2438l0.1258 -0.1463 -0.1028 -0.1608c-0.0092,-0.0159 -0.2368,-0.3752 -0.411,-0.6212 -0.0347,-0.0485 -0.0675,-0.0966 -0.1007,-0.1485 -0.199,-0.2976 -0.4475,-0.6704 -0.9467,-0.6704l-0.0446 0.0011c-0.0823,0.0052 -0.1527,0.0215 -0.2099,0.0431 -0.157,-0.0732 -0.3187,-0.1113 -0.487,-0.1113 -0.2066,0 -0.3798,0.0569 -0.4961,0.0961 -0.0332,0.0099 -0.0625,0.0201 -0.0861,0.0247l-0.9326 -0.0918c-0.012,-0.0025 -0.0499,-0.0247 -0.0962,-0.0795l0 -0.0046 0.2018 -0.0809c-0.0569,-0.6724 -0.7026,-1.086 -1.0623,-1.2259 -0.0155,-0.0674 -0.0481,-0.1346 -0.1046,-0.1895l-0.2007 -0.19 -0.176 0.2114 -0.0869 0.1074 -1.306 -0.5364 0.8494 1.0668 -0.335 0.5082c-0.1226,0.1304 0.0127,0.2611 0.0127,0.2611l0.3463 0.2386 0.3591 -0.1339c0.0123,0 0.0236,0.0028 0.0357,0.0041 -0.0177,0.0546 -0.04,0.2687 -0.0548,0.3285l-0.6237 -0.1223 -0.6548 0.3696c-0.3365,0.2474 -0.3823,0.6562 -0.2576,0.9365l0.0728 0.1586 0.1032 0.2245 0.2293 -0.0948c0.0032,-0.0011 0.0064,-0.0022 0.0081,-0.0038 -0.0823,0.2632 -0.0484,0.5134 0.098,0.6773l0.1391 0.1749 0.1852 0.234 0.2032 -0.2185c0.0597,-0.0593 0.2536,-0.2768 0.3134,-0.4625l0.0438 -0.142 -0.099 -0.1092 -0.0162 -0.0199 0.1117 -0.184 0.8135 0.1919 0.1834 0.042 0.0972 -0.1609 0.053 -0.0872c0.0099,-0.0187 0.0123,-0.0215 0.0498,-0.0215 0.029,0 0.0576,0.0028 0.0888,0.01 0.3074,0.058 0.5905,0.0865 0.8417,0.0865 0.2438,0 0.3895,-0.0093 0.563,-0.0668 0,0 0.4367,0.496 0.452,0.5153l-0.2676 0.8255 -0.012 0.0498c-0.5067,0.041 -0.753,0.1523 -1.0513,0.4502 -0.4328,-0.4297 -0.74,-0.475 -1.9032,-0.475 -1.3931,0 -2.3373,-0.8166 -2.3373,-2.1212l0 -3.1892 8.4793 0 0.0014 3.1892c0,1.0572 -0.6209,1.7954 -1.5987,2.036zm-5.2228 -1.8032l0.0442 0.1103c-0.0293,0.0963 -0.3601,0.2328 -0.3601,0.2328l-0.0714 -0.1567c-0.0759,-0.1668 -0.0593,-0.4481 0.1711,-0.62l0.536 -0.3266 0.569 0.1209c-0.0106,0.1801 0.0976,0.3151 0.0976,0.3151l-0.5962 -0.1145 -0.3565 0.2463c-0.0604,0.0424 -0.0647,0.1202 -0.0336,0.1923zm5.1331 0.9013l-0.183 0.9538c-0.117,0.0166 -0.2399,0.0251 -0.3671,0.03l0.1925 -0.9166c0.0576,-0.2725 -0.6738,-0.3572 -1.0354,-0.8929 -0.1767,0.1982 -0.5089,0.2575 -0.8428,0.2575 -0.3046,0 -0.6088,-0.0485 -0.7943,-0.0851 -0.0467,-0.0075 -0.0916,-0.0127 -0.1361,-0.0127 -0.1067,0 -0.2038,0.0336 -0.2714,0.1459l-0.053 0.0897 -0.9972 -0.2346 -0.2477 0.4106c-0.0351,0.0668 -0.0379,0.1226 0.0187,0.1852l0.0674 0.0735c-0.0466,0.1449 -0.2537,0.3647 -0.2537,0.3647l-0.1484 -0.1851c-0.1174,-0.1311 -0.0979,-0.3715 0.024,-0.5934l0.3954 -0.6679 0.8449 0.1219 -0.1311 -0.299c-0.1767,-0.3957 0.0923,-0.8986 0.1209,-1.1883 -0.0095,0.0876 -0.0902,0.1074 -0.1838,0.1074 -0.0851,0 -0.1802,-0.0161 -0.2434,-0.0161 -0.0247,0 -0.0463,0.0023 -0.0576,0.0109l-0.229 0.1388 -0.1802 -0.1598c-0.0219,-0.0304 -0.0286,-0.1021 0.0243,-0.1563l0.4177 -0.4684 -0.4937 -0.5765 0.6913 0.347 0.211 -0.2557c0.0583,0.0569 0.0329,0.2052 0.0329,0.2052 0.2152,0.0054 0.8205,0.3396 0.8526,1.121 0.0018,0.0235 0.0018,0.0505 0.0018,0.0759 0,0 0.0057,0.0099 0.0159,0.0257 0.0428,0.059 0.1612,0.2096 0.3106,0.2234l0.9551 0.0947 0.0036 0c0.1046,0 0.3134,-0.1229 0.5809,-0.1229 0.1456,0 0.3074,0.0372 0.4806,0.1458 0,0 0.0869,-0.0688 0.228,-0.0759 0.0105,-0.0013 0.0229,-0.0013 0.0329,-0.0013 0.4282,0 0.6063,0.3876 0.8364,0.7088 0.1724,0.2453 0.4039,0.6084 0.4039,0.6084 -0.0855,0.1011 -0.1647,0.1577 -0.2975,0.1577 -0.0365,0 -0.0777,-0.0028 -0.1234,-0.012 -0.4594,-0.0847 -0.5258,-1.0293 -0.7876,-1.1039 -0.0141,-0.004 -0.0286,-0.0054 -0.0417,-0.0054 -0.0848,0 -0.1216,0.0749 -0.1216,0.0749 0.1198,0.3223 0.0499,0.4524 0.1792,0.7004 0.0961,0.1842 0.2672,0.3354 0.3378,0.4071 0,0 -0.0194,0.1396 -0.0396,0.2438zm-0.8792 0.9902c-0.1286,0 -0.2473,0.0018 -0.3537,0.006l0.2799 -0.8714c0.0438,-0.1205 -0.1774,-0.2757 -0.2686,-0.4121 0.1378,0.0869 0.4947,0.2764 0.6668,0.352 -0.0173,0.0283 -0.3244,0.9255 -0.3244,0.9255zm-4.1606 -7.8527l0.04 -1.515 0.3403 -0.3597 0.2135 0.4471 -0.4212 1.4541 -0.1725 -0.0264zm0.2445 0.4692c0.0559,0.1168 0.1559,0.1943 0.2262,0.2386 -0.0025,0.1095 -0.0127,0.2788 -0.0417,0.4288 -0.0067,0.0335 -0.0152,0.0643 -0.0244,0.0948 -0.0049,0.0195 -0.0105,0.0356 -0.0148,0.0482 -0.1039,0 -0.3074,-0.0126 -0.4749,-0.0735 -0.1845,-0.0681 -0.4601,-0.4071 -0.3969,-0.7809 0.0799,-0.0488 0.2654,-0.153 0.4389,-0.153 0.1328,0 0.2244,0.0627 0.2876,0.197zm3.9377 0.4071c-0.2614,0.1926 -0.935,0.6847 -1.1795,0.8553l-2.3514 -0.4226c0.0053,-0.021 0.0109,-0.0421 0.0162,-0.0627 0.0308,-0.1221 0.0622,-0.2886 0.064,-0.4846l1.9767 0.0316 0.0378 -0.0384c0.0298,-0.03 0.6563,-0.6351 0.9754,-0.983 0.076,0.0954 0.1707,0.1858 0.2954,0.2656 -0.0427,0.2316 -0.0247,0.5612 0.1654,0.8387zm-3.198 -3.4822c0.2827,0.2809 0.5593,0.4558 0.8227,0.5517 -0.0344,0.1357 -0.0792,0.4154 0.0473,0.6944 0.104,0.2249 0.2916,0.3981 0.563,0.5135 0.0293,0.2782 0.2056,0.696 0.6916,0.8804 -0.2131,0.2146 -0.4202,0.4173 -0.504,0.4988l-1.9725 -0.0313c-0.0449,-0.0221 -0.1212,-0.0726 -0.1555,-0.1437 -0.0035,-0.01 -0.0102,-0.0154 -0.0141,-0.0252l0.3215 0.0519c0.0071,0.0008 0.0138,0.0008 0.0205,0.0008 0.0625,0 0.1166,-0.0429 0.1268,-0.1067 0.0106,-0.0713 -0.0371,-0.1367 -0.1064,-0.1479l-0.3961 -0.0624 0.4392 -1.5175 -0.4163 -0.876 -0.6664 0.7051 -0.041 1.5777 -0.4482 -0.0709c-0.0692,-0.0135 -0.1356,0.037 -0.1476,0.1073 -0.011,0.0691 0.0364,0.1351 0.1071,0.1475l0.1876 0.0287c-0.0668,0.0381 -0.1113,0.0685 -0.1166,0.0725l-0.0382 0.0268 -0.0106 0.0468c-0.1089,0.4429 0.1378,0.863 0.4043,1.0511l-0.0096 0.0559c-0.0109,0.0682 0.0046,0.1343 0.0456,0.1901 0.039,0.0568 0.0976,0.0909 0.1651,0.1028 0.0134,0.0023 0.0282,0.0034 0.0414,0.0034 0.1152,0 0.2163,-0.0796 0.2441,-0.1964 0.0994,0.0119 0.1901,0.0142 0.2523,0.0142l0.0527 0 2.5881 0.4677 0.0439 -0.0293c0.2059,-0.1439 0.9923,-0.7166 1.2502,-0.9067 0.0707,0.0611 0.1499,0.1162 0.2456,0.1622 -0.0834,0.2799 -0.0888,0.7106 0.241,1.0506l-6.5951 0 0 -3.806c0,-0.3687 -0.1078,-0.7394 -0.2354,-1.0818l2.9719 0zm-0.3566 -5.7429l1.721 0.5838 0 2.704 -1.2668 -0.6675 -0.4542 -2.6202zm4.1992 -0.3262c0,-0.6598 -1.1107,-1.2534 -2.3366,-1.2534l-0.007 0c-1.2259,0 -2.3362,0.5936 -2.3362,1.2534l0.024 0.1622 0.4897 2.8097 -0.4919 0.2856 -1.2718 0.7428 0.0046 0c0,0 -0.2863,0.147 -0.4191,0.2375 -0.4841,0.3364 -0.5873,0.8272 -0.306,1.0301 0.0692,-0.4005 0.3859,-0.8185 0.9785,-0.8185 0.4262,0 0.7517,0.2205 1.0138,0.5502 0.0679,0.0833 0.1322,0.1726 0.1919,0.2683 0.0735,0.1207 0.1473,0.2269 0.2205,0.3288l-3.2764 0c0.2406,0.4842 0.4696,0.9969 0.4696,1.5543l0 7.2524c0,1.7555 1.3499,2.5934 2.8105,2.5934 1.1286,0 1.2806,-0.0516 1.9032,0.5689 0.6198,-0.6205 0.7718,-0.5689 1.9015,-0.5689 1.4613,0 2.8094,-0.8379 2.8094,-2.5934l0 -7.2524c0,-0.5574 0.2286,-1.0701 0.4703,-1.5543l-3.2775 0c0.0728,-0.1019 0.1466,-0.2081 0.2206,-0.3288 0.0604,-0.0957 0.1243,-0.1849 0.1904,-0.2683 0.2646,-0.3312 0.5894,-0.5502 1.016,-0.5502 0.5919,0 0.9081,0.418 0.9781,0.8185 0.2817,-0.2029 0.1796,-0.6938 -0.3074,-1.0301 -0.1304,-0.0905 -0.417,-0.2375 -0.417,-0.2375l0.0043 0 -1.274 -0.7428 -0.4897 -0.2856 0.4897 -2.8097 0.024 -0.1622z"/>
 </g>
</svg>
