<?xml version="1.0" encoding="UTF-8"?>
<!DOCTYPE svg PUBLIC "-//W3C//DTD SVG 1.1//EN" "http://www.w3.org/Graphics/SVG/1.1/DTD/svg11.dtd">
<!-- Creator: CorelDRAW 2017 -->
<svg xmlns="http://www.w3.org/2000/svg" xml:space="preserve" width="180.622mm" height="180.622mm" version="1.1" style="shape-rendering:geometricPrecision; text-rendering:geometricPrecision; image-rendering:optimizeQuality; fill-rule:evenodd; clip-rule:evenodd"
viewBox="0 0 115.5983 115.5983"
 xmlns:xlink="http://www.w3.org/1999/xlink">
 <defs>
  <style type="text/css">
   <![CDATA[
    .fil0 {fill:#fff}
   ]]>
  </style>
 </defs>
 <g id="Слой_x0020_1">
  <metadata id="CorelCorpID_0Corel-Layer"/>
  <g id="Stavrapid2016.ai">
   <g>
    <path class="fil0" d="M85.9833 96.5805l-0.8501 -2.3357c11.0736,-8.3218 18.2367,-21.5664 18.2367,-36.4849 0,-3.4417 -0.3843,-6.7931 -1.1069,-10.0167l1.3967 -3.8371c1.3284,4.3981 2.0431,9.0625 2.0431,13.894 0,15.9336 -7.7661,30.0533 -19.7194,38.7804zm11.9621 -55.7606l0 0 0.9858 -2.7099c-5.9347,-12.4128 -17.3169,-21.7223 -31.052,-24.8343l0.826 2.2694c-0.905,-0.234 -1.8215,-0.4391 -2.7483,-0.6154l-1.7004 -4.6721c16.6424,2.2676 30.5704,13.0678 37.2314,27.8484l-2.2504 6.1826c-0.3827,-1.1791 -0.8141,-2.3362 -1.2921,-3.4688zm-32.6798 17.7444l0 0 -2.5244 -6.9379 -2.5252 6.9379 -2.5681 0 5.0977 -14.0061 5.0938 14.0061 -2.5737 0zm-12.6054 0l0 0 7.6024 -20.8874 1.2841 3.5281 -6.3183 17.3592 -2.5682 0zm-5.0615 0l0 0 10.1332 -27.8407 1.284 3.5281 -8.849 24.3125 -2.5683 0zm-0.8926 -42.9915l0 0 0.8255 -2.2735c-13.7353,3.1464 -25.1053,12.494 -31.0077,24.9392l0.9896 2.7188c-0.4697,1.1236 -0.893,2.2714 -1.269,3.4405l-2.2931 -6.2995c6.6625,-14.777 20.5891,-25.574 37.2291,-27.8408l-1.7062 4.6878c-0.9337,0.1796 -1.8566,0.3894 -2.7681,0.6275zm-16.386 78.6249l0 0 -0.8606 2.3646c-11.7268,-8.5661 -19.4251,-22.3173 -19.7178,-37.8819 -0.0003,-0.0154 -0.0006,-0.0307 -0.0009,-0.0461 -0.0051,-0.2854 -0.0077,-0.5714 -0.0078,-0.858 0.0023,-4.8277 0.7183,-9.4883 2.047,-13.883l1.4457 3.9715c-0.705,3.1863 -1.0796,6.4966 -1.0796,9.895 0,14.8904 7.136,28.1132 18.174,36.4378zm-0.2799 -25.858l0 0 -9.3299 -25.6337c-0.4739,1.1649 -0.8958,2.3565 -1.2599,3.5732l9.3096 25.5778 -1.2599 3.4616 -10.5651 -29.0237c4.2278,-15.0839 16.5885,-26.7681 32.0555,-30.0206l-0.9839 2.7032c-11.2926,2.8305 -20.6802,10.4634 -25.8657,20.6026l9.1835 25.2315 -1.2841 3.5281zm3.7056 28.2061l0 0c0.0079,0.0049 0.0156,0.0099 0.0234,0.0147l0.7035 -1.9328c0.6909,0.4374 1.3949,0.8561 2.1114,1.255l-0.6963 1.9129c0.6895,0.3775 1.3899,0.7373 2.1005,1.0793l1.1064 -3.0399c-1.4568,-0.7154 -2.8655,-1.5131 -4.2223,-2.3848l0.8472 -2.3274c0.0077,0.0051 0.0154,0.0104 0.0231,0.0155l7.0834 -19.4615 2.5682 0 -7.5548 20.7566c0.6828,0.393 1.3785,0.7661 2.086,1.119l7.9621 -21.8756 2.5683 0 -11.0911 30.4725c-0.7466,-0.3094 -1.4836,-0.637 -2.2107,-0.9823l0.0052 -0.0143c-1.4607,-0.6946 -2.8802,-1.4615 -4.255,-2.2947l0.8415 -2.3122zm54.1934 -21.2182l0 0 -21.4995 -59.0714c15.468,3.2191 27.8431,14.8678 32.1091,29.9244l-1.5038 4.1314c-2.711,-14.388 -13.1294,-26.0542 -26.803,-30.5446l18.9598 52.0916 -1.2625 3.4686zm-32.4958 -3.6509l0 0 -8.9049 24.4659c3.5597,1.039 7.3242,1.598 11.2195,1.598 7.2229,0 13.9982,-1.9156 19.8461,-5.2661l-7.5675 -20.7978 2.5714 0 7.0948 19.5083c0.0093,-0.0061 0.0184,-0.0125 0.0276,-0.0186l0.8473 2.3279c-6.5878,4.2156 -14.4182,6.6597 -22.8197,6.6597 -4.1852,0 -8.2277,-0.609 -12.0465,-1.739l-1.1025 3.029c4.1638,1.2521 8.5772,1.9278 13.1489,1.9278 7.8947,0 15.3208,-2.0061 21.7969,-5.5357l-0.6961 -1.9131c0.717,-0.3972 1.4216,-0.8141 2.1131,-1.25l0.703 1.9319c0.0095,-0.0059 0.0189,-0.012 0.0284,-0.0179l0.8331 2.2889c-7.2351,4.3809 -15.7202,6.9046 -24.7946,6.9091 -0.292,-0.0001 -0.5833,-0.0029 -0.874,-0.0082 -0.0134,-0.0002 -0.0268,-0.0005 -0.0401,-0.0008 -4.5301,-0.0863 -8.9058,-0.802 -13.0457,-2.0596l-0.0042 0.0115c-0.7725,-0.2342 -1.5366,-0.4872 -2.292,-0.7587l11.3895 -31.2924 2.5682 0z"/>
   </g>
  </g>
 </g>
</svg>
